SplineFontDB: 3.0
FontName: RaviPrakash
FullName: RaviPrakash
FamilyName: RaviPrakash
OS2FamilyName: "RaviPrakash"
OS2StyleName: "regular"
Weight: Normal
Copyright: Copyright 2011 Silicon Andhra.
Version: 1.0
FONDName: RaviPrakash
ItalicAngle: 0
UnderlinePosition: -310
UnderlineWidth: 20
Ascent: 819
Descent: 205
InvalidEm: 1
UFOAscent: 1617
UFODescent: -784
LayerCount: 2
Layer: 0 1 "Back" 1
Layer: 1 1 "Fore" 0
FSType: 0
OS2Version: 0
OS2_WeightWidthSlopeOnly: 0
OS2_UseTypoMetrics: 0
CreationTime: 1418103667
ModificationTime: 1418103667
PfmFamily: 16
TTFWeight: 400
TTFWidth: 5
LineGap: 200
VLineGap: 0
Panose: 2 0 6 0 0 0 0 0 0 0
OS2TypoAscent: 1617
OS2TypoAOffset: 0
OS2TypoDescent: -784
OS2TypoDOffset: 0
OS2TypoLinegap: 20
OS2WinAscent: 910
OS2WinAOffset: 0
OS2WinDescent: 781
OS2WinDOffset: 0
HheadAscent: 910
HheadAOffset: 0
HheadDescent: -781
HheadDOffset: 0
OS2SubXSize: 717
OS2SubYSize: 666
OS2SubXOff: 0
OS2SubYOff: 205
OS2SupXSize: 717
OS2SupYSize: 666
OS2SupXOff: 0
OS2SupYOff: 512
OS2StrikeYSize: 50
OS2StrikeYPos: 250
OS2CapHeight: 0
OS2XHeight: 0
OS2Vendor: 'SA  '
OS2CodePages: 00000001.00000000
OS2UnicodeRanges: 80208001.00002042.00000030.00000000
DEI: 91125
Group: "abvs1" "U0C15 U0C16 U0C17 U0C18 U0C19 U0C1A U0C1B U0C1C U0C1D U0C1E U0C1F U0C20 U0C21 U0C22 U0C23 U0C24 U0C25 U0C26 U0C27 U0C28 U0C2A U0C2B U0C2C U0C2D U0C2E U0C2F U0C30 U0C31 U0C32 U0C33 U0C35 U0C36 U0C37 U0C38 U0C39"
Group: "blws1" "U0C15_U0C4D.blwf U0C1A_U0C4D.blwf U0C1B_U0C4D.blwf U0C28_U0C4D.blwf U0C2A_U0C4D.blwf U0C2B_U0C4D.blwf U0C2C_U0C4D.blwf U0C2D_U0C4D.blwf U0C2E_U0C4D.blwf U0C2F_U0C4D.blwf U0C33_U0C4D.blwf U0C35_U0C4D.blwf U0C36_U0C4D.blwf U0C38_U0C4D.blwf"

StartChar: .notdef
Encoding: 0 -1 0
GlifName: _notdef
Width: 374
VWidth: 0
Flags: W
LayerCount: 2
Back
Fore
SplineSet
34 0 m 257
NamedP: "hr00"
 34 682 l 257
 306 682 l 257
 306 0 l 257
 34 0 l 257
NamedP: "hr00"
68 34 m 257
 272 34 l 257
 272 648 l 257
 68 648 l 257
 68 34 l 257
EndSplineSet
PickledDataWithLists: "(dp1
S'com.adobe.type.autohint'
p2
(S'data'
S'<data>\\n  <hintSetList>\\n    <hintset pointTag=\"hr00\">\\n      <hstem pos=\"0\" width=\"34\"/>\\n      <hstem pos=\"648\" width=\"34\"/>\\n      <vstem pos=\"34\" width=\"34\"/>\\n      <vstem pos=\"272\" width=\"34\"/>\\n    </hintset>\\n  </hintSetList>\\n  </data>'
Ntp3
s."
EndChar

StartChar: exclam
Encoding: 4 33 4
GlifName: exclam
Width: 203
VWidth: 0
Flags: W
LayerCount: 2
Back
Fore
SplineSet
121 440 m 257
 119 418 119 418 107 301 c 128
 95 184 95 184 88 140 c 257
 63 142 l 257
 59 161 59 161 29.5 308 c 128
 0 455 0 455 0 465 c 257
 0 492 0 492 12 508.5 c 128
 24 525 24 525 43 527 c 257
 83 530 83 530 107.5 509.5 c 128
 132 489 132 489 121 440 c 257
130 84 m 257
 132 76 132 76 131 63.5 c 128
 130 51 130 51 124.5 39.5 c 128
 119 28 119 28 108.5 17.5 c 128
 98 7 98 7 84 2 c 257
 70 -2 70 -2 58 1.5 c 128
 46 5 46 5 37.5 12.5 c 128
 29 20 29 20 23.5 30.5 c 128
 18 41 18 41 16 50 c 257
 15 55 15 55 16.5 62.5 c 128
 18 70 18 70 22 77 c 128
 26 84 26 84 31 91 c 128
 36 98 36 98 41.5 104 c 128
 47 110 47 110 52.5 113.5 c 128
 58 117 58 117 63 118 c 257
 74 119 74 119 84 117.5 c 128
 94 116 94 116 103.5 111 c 128
 113 106 113 106 119.5 99.5 c 128
 126 93 126 93 130 84 c 257
EndSplineSet
EndChar

StartChar: parenleft
Encoding: 5 40 5
GlifName: parenleft
Width: 401
VWidth: 0
Flags: W
LayerCount: 2
Back
Fore
SplineSet
307 473 m 257
NamedP: "hr00"
 274 476 274 476 248 473 c 257
 225 471 225 471 205.5 463 c 128
 186 455 186 455 184 436 c 257
 181 424 181 424 179 399 c 128
 177 374 177 374 176 342.5 c 128
 175 311 175 311 174.5 277 c 128
 174 243 174 243 174.5 212 c 128
 175 181 175 181 175.5 157 c 128
 176 133 176 133 178 123 c 257
 180 109 180 109 191.5 96 c 128
 203 83 203 83 218 74 c 128
 233 65 233 65 249 60.5 c 128
 265 56 265 56 276 61 c 257
 276 0 l 257
 246 0 246 0 219 4 c 257
 197 8 197 8 176 18.5 c 128
 155 29 155 29 147 49 c 257
 142 61 142 61 133.5 93 c 128
 125 125 125 125 115.5 167 c 128
 106 209 106 209 97.5 256.5 c 128
 89 304 89 304 85 347 c 128
 81 390 81 390 83.5 424 c 128
 86 458 86 458 98 473 c 257
 117 494 117 494 142.5 511.5 c 128
 168 529 168 529 193.5 542.5 c 128
 219 556 219 556 240 563.5 c 128
 261 571 261 571 270 571 c 257
 275 560 275 560 281 543 c 128
 287 526 287 526 293 511 c 257
 299 493 299 493 307 473 c 257
NamedP: "hr00"
EndSplineSet
PickledDataWithLists: "(dp1
S'com.adobe.type.autohint'
p2
(S'data'
S'<data>\\n  <hintSetList>\\n    <hintset pointTag=\"hr00\">\\n      <hstem pos=\"21\" width=\"-21\"/>\\n      <hstem pos=\"571\" width=\"-20\"/>\\n    </hintset>\\n  </hintSetList>\\n  </data>'
Ntp3
s."
EndChar

StartChar: parenright
Encoding: 6 41 6
GlifName: parenright
Width: 422
VWidth: 0
Flags: W
LayerCount: 2
Back
Fore
SplineSet
72 473 m 257
NamedP: "hr00"
 78 493 78 493 85 511 c 257
 90 526 90 526 96.5 543 c 128
 103 560 103 560 109 571 c 257
 118 571 118 571 139 563.5 c 128
 160 556 160 556 185.5 542.5 c 128
 211 529 211 529 236.5 511.5 c 128
 262 494 262 494 281 473 c 257
 293 458 293 458 295.5 424 c 128
 298 390 298 390 294 347 c 128
 290 304 290 304 281 256.5 c 128
 272 209 272 209 263 167 c 128
 254 125 254 125 245 93 c 128
 236 61 236 61 231 49 c 257
 224 29 224 29 203 18.5 c 128
 182 8 182 8 160 4 c 257
 133 0 133 0 102 0 c 257
 102 61 l 257
 114 56 114 56 129.5 60.5 c 128
 145 65 145 65 160.5 74 c 128
 176 83 176 83 187.5 96 c 128
 199 109 199 109 201 123 c 257
 202 133 202 133 203 157 c 128
 204 181 204 181 204.5 212 c 128
 205 243 205 243 204.5 277 c 128
 204 311 204 311 203 342.5 c 128
 202 374 202 374 200 399 c 128
 198 424 198 424 195 436 c 257
 193 455 193 455 173.5 463 c 128
 154 471 154 471 131 473 c 257
 104 476 104 476 72 473 c 257
NamedP: "hr00"
EndSplineSet
PickledDataWithLists: "(dp1
S'com.adobe.type.autohint'
p2
(S'data'
S'<data>\\n  <hintSetList>\\n    <hintset pointTag=\"hr00\">\\n      <hstem pos=\"21\" width=\"-21\"/>\\n      <hstem pos=\"571\" width=\"-20\"/>\\n    </hintset>\\n  </hintSetList>\\n  </data>'
Ntp3
s."
EndChar

StartChar: plus
Encoding: 7 43 7
GlifName: plus
Width: 421
VWidth: 0
Flags: W
LayerCount: 2
Back
Fore
SplineSet
251 421 m 257
NamedP: "hr00"
 252 286 l 257
 388 287 l 257
 371 189 l 257
 252 189 l 257
 252 70 l 257
 155 70 l 257
 155 189 l 257
 24 188 l 257
 35 286 l 257
 155 286 l 257
 155 406 l 257
 251 421 l 257
NamedP: "hr00"
EndSplineSet
PickledDataWithLists: "(dp1
S'com.adobe.type.autohint'
p2
(S'data'
S'<data>\\n  <hintSetList>\\n    <hintset pointTag=\"hr00\">\\n      <hstem pos=\"91\" width=\"-21\"/>\\n      <hstem pos=\"188\" width=\"98\"/>\\n      <hstem pos=\"421\" width=\"-20\"/>\\n      <vstem pos=\"155\" width=\"96\"/>\\n    </hintset>\\n  </hintSetList>\\n  </data>'
Ntp3
s."
EndChar

StartChar: comma
Encoding: 8 44 8
GlifName: comma
Width: 191
VWidth: 0
Flags: W
LayerCount: 2
Back
Fore
SplineSet
34 -49 m 257
NamedP: "hr00"
 51 -40 51 -40 51 -22 c 257
 51 -9 51 -9 43 -4 c 257
 40 -4 40 -4 37 -3 c 257
 32 -1 32 -1 27 1.5 c 128
 22 4 22 4 16 9 c 257
 3 20 3 20 2 39 c 257
 1 43 1 43 2 49 c 128
 3 55 3 55 6 61.5 c 128
 9 68 9 68 13.5 74 c 128
 18 80 18 80 23 84.5 c 128
 28 89 28 89 33 92 c 128
 38 95 38 95 42 96 c 257
 51 97 51 97 60 95.5 c 128
 69 94 69 94 76.5 90.5 c 128
 84 87 84 87 89.5 81.5 c 128
 95 76 95 76 99 68 c 257
 100 68 l 257
 119 31 119 31 91 -23 c 257
 77 -46 77 -46 49 -57 c 257
 34 -49 l 257
NamedP: "hr00"
EndSplineSet
PickledDataWithLists: "(dp1
S'com.adobe.type.autohint'
p2
(S'data'
S'<data>\\n  <hintSetList>\\n    <hintset pointTag=\"hr00\">\\n      <hstem pos=\"-36\" width=\"-21\"/>\\n    </hintset>\\n  </hintSetList>\\n  </data>'
Ntp3
s."
EndChar

StartChar: hyphen
Encoding: 9 45 9
GlifName: hyphen
Width: 441
VWidth: 0
Flags: W
LayerCount: 2
Back
Fore
SplineSet
371 189 m 257
 17 189 l 257
 35 286 l 257
NamedP: "hr01"
 392 289 l 257
 371 189 l 257
EndSplineSet
PickledDataWithLists: "(dp1
S'com.adobe.type.autohint'
p2
(S'data'
S'<data>\\n  <hintSetList>\\n    <hintset pointTag=\"hr01\">\\n      <hstem pos=\"189\" width=\"98\"/>\\n    </hintset>\\n    <hintset pointTag=\"hr01\">\\n      <hstem pos=\"289\" width=\"-20\"/>\\n    </hintset>\\n  </hintSetList>\\n  </data>'
Ntp3
s."
EndChar

StartChar: period
Encoding: 10 46 10
GlifName: period
Width: 185
VWidth: 0
Flags: W
LayerCount: 2
Back
Fore
SplineSet
115 84 m 257
 117 76 117 76 116 63.5 c 128
 115 51 115 51 109 39.5 c 128
 103 28 103 28 93 17.5 c 128
 83 7 83 7 69 2 c 257
 54 -2 54 -2 42.5 1.5 c 128
 31 5 31 5 22 12.5 c 128
 13 20 13 20 8 30.5 c 128
 3 41 3 41 1 50 c 257
 0 55 0 55 1.5 62.5 c 128
 3 70 3 70 6.5 77 c 128
 10 84 10 84 15 91 c 128
 20 98 20 98 26 104 c 128
 32 110 32 110 37.5 113.5 c 128
 43 117 43 117 48 118 c 257
 58 119 58 119 68.5 117.5 c 128
 79 116 79 116 88 111 c 128
 97 106 97 106 104 99.5 c 128
 111 93 111 93 115 84 c 257
EndSplineSet
EndChar

StartChar: slash
Encoding: 11 47 11
GlifName: slash
Width: 381
VWidth: 0
Flags: W
LayerCount: 2
Back
Fore
SplineSet
312 512 m 257
NamedP: "hr00"
 98 -25 l 257
 3 -25 l 257
 214 512 l 257
 312 512 l 257
NamedP: "hr00"
EndSplineSet
PickledDataWithLists: "(dp1
S'com.adobe.type.autohint'
p2
(S'data'
S'<data>\\n  <hintSetList>\\n    <hintset pointTag=\"hr00\">\\n      <hstem pos=\"-4\" width=\"-21\"/>\\n      <hstem pos=\"512\" width=\"-20\"/>\\n    </hintset>\\n  </hintSetList>\\n  </data>'
Ntp3
s."
EndChar

StartChar: zero
Encoding: 12 48 12
GlifName: zero
Width: 552
VWidth: 0
Flags: W
LayerCount: 2
Back
Fore
SplineSet
444 327 m 257
 456 294 456 294 451 246.5 c 128
 446 199 446 199 424 151 c 128
 402 103 402 103 363 63.5 c 128
 324 24 324 24 266 7 c 257
 209 -9 209 -9 163 4.5 c 128
 117 18 117 18 83.5 48.5 c 128
 50 79 50 79 29.5 118 c 128
 9 157 9 157 2 191 c 257
 -3 213 -3 213 3.5 240.5 c 128
 10 268 10 268 24 297 c 128
 38 326 38 326 57.5 353.5 c 128
 77 381 77 381 99 403.5 c 128
 121 426 121 426 143.5 440 c 128
 166 454 166 454 186 456 c 257
 227 460 227 460 267.5 453.5 c 128
 308 447 308 447 343 430.5 c 128
 378 414 378 414 404 387.5 c 128
 430 361 430 361 444 327 c 257
272 75 m 257
 293 73 293 73 311.5 96.5 c 128
 330 120 330 120 340 154.5 c 128
 350 189 350 189 350 226.5 c 128
 350 264 350 264 334 290 c 257
 317 315 317 315 294.5 334 c 128
 272 353 272 353 247.5 363.5 c 128
 223 374 223 374 200.5 374.5 c 128
 178 375 178 375 162 364 c 257
 153 357 153 357 138 336 c 128
 123 315 123 315 112.5 287 c 128
 102 259 102 259 99.5 226.5 c 128
 97 194 97 194 112.5 163.5 c 128
 128 133 128 133 165.5 109 c 128
 203 85 203 85 272 75 c 257
EndSplineSet
EndChar

StartChar: one
Encoding: 13 49 13
GlifName: one
Width: 352
VWidth: 0
Flags: W
LayerCount: 2
Back
Fore
SplineSet
174 216 m 257
 172 152 172 152 184 101.5 c 128
 196 51 196 51 210 6 c 257
 180 14 180 14 145 15.5 c 128
 110 17 110 17 73 3 c 257
 61 0 61 0 57 6.5 c 128
 53 13 53 13 53 29.5 c 128
 53 46 53 46 55.5 70 c 128
 58 94 58 94 59 125 c 257
 65 208 65 208 69 269.5 c 128
 73 331 73 331 73 374 c 257
 73 382 73 382 73.5 392 c 128
 74 402 74 402 70.5 409.5 c 128
 67 417 67 417 56 417.5 c 128
 45 418 45 418 24 407 c 257
NamedP: "hr01"
 19 403 19 403 16 405 c 128
 13 407 13 407 10.5 409.5 c 128
 8 412 8 412 8 415 c 128
 8 418 8 418 10 420 c 257
NamedP: "hr02"
 23 428 23 428 44.5 442.5 c 128
 66 457 66 457 91 470.5 c 128
 116 484 116 484 142 496 c 128
 168 508 168 508 190 511 c 257
 191 511 191 511 189 483 c 128
 187 455 187 455 184 412 c 128
 181 369 181 369 178 316.5 c 128
 175 264 175 264 174 216 c 257
EndSplineSet
PickledDataWithLists: "(dp1
S'com.adobe.type.autohint'
p2
(S'data'
S'<data>\\n  <hintSetList>\\n    <hintset pointTag=\"hr01\">\\n      <hstem pos=\"511\" width=\"-20\"/>\\n      <vstem pos=\"59\" width=\"115\"/>\\n    </hintset>\\n    <hintset pointTag=\"hr02\">\\n      <hstem pos=\"511\" width=\"-20\"/>\\n      <vstem pos=\"73\" width=\"101\"/>\\n    </hintset>\\n  </hintSetList>\\n  </data>'
Ntp3
s."
EndChar

StartChar: two
Encoding: 14 50 14
GlifName: two
Width: 594
VWidth: 0
Flags: W
LayerCount: 2
Back
Fore
SplineSet
424 10 m 257
NamedP: "hr00"
 400 10 400 10 363 13 c 128
 326 16 326 16 287.5 20 c 128
 249 24 249 24 216.5 27 c 128
 184 30 184 30 171 30 c 257
 139 30 139 30 108.5 21 c 128
 78 12 78 12 63 0 c 257
 46 29 46 29 32.5 53.5 c 128
 19 78 19 78 7 115 c 257
 26 127 26 127 54 145 c 128
 82 163 82 163 114 185 c 128
 146 207 146 207 178.5 232.5 c 128
 211 258 211 258 237 286.5 c 128
 263 315 263 315 279.5 346.5 c 128
 296 378 296 378 296 410 c 257
 296 423 296 423 290 431.5 c 128
 284 440 284 440 275 446 c 128
 266 452 266 452 256 454 c 128
 246 456 246 456 237 456 c 257
 204 456 204 456 179 442.5 c 128
 154 429 154 429 136 410 c 128
 118 391 118 391 105.5 371 c 128
 93 351 93 351 86 338 c 257
 84 338 84 338 75.5 351 c 128
 67 364 67 364 55 379 c 257
 27 420 l 257
 44 434 44 434 65 451.5 c 128
 86 469 86 469 112 484 c 128
 138 499 138 499 170.5 508.5 c 128
 203 518 203 518 244 518 c 257
 301 518 301 518 336 506.5 c 128
 371 495 371 495 389 476.5 c 128
 407 458 407 458 411.5 435 c 128
 416 412 416 412 414 390 c 257
 408 346 408 346 396.5 316 c 128
 385 286 385 286 368.5 264 c 128
 352 242 352 242 330.5 226 c 128
 309 210 309 210 283.5 193 c 128
 258 176 258 176 229 156.5 c 128
 200 137 200 137 168 109 c 257
 187 109 187 109 202 109 c 128
 217 109 217 109 230.5 107.5 c 128
 244 106 244 106 257 105 c 128
 270 104 270 104 286 101 c 257
 350 96 350 96 395 111 c 128
 440 126 440 126 463 151 c 257
 455 113 455 113 450 86 c 128
 445 59 445 59 442 42.5 c 128
 439 26 439 26 435 18 c 128
 431 10 431 10 424 10 c 257
NamedP: "hr00"
EndSplineSet
PickledDataWithLists: "(dp1
S'com.adobe.type.autohint'
p2
(S'data'
S'<data>\\n  <hintSetList>\\n    <hintset pointTag=\"hr00\">\\n      <hstem pos=\"21\" width=\"-21\"/>\\n      <hstem pos=\"30\" width=\"79\"/>\\n      <hstem pos=\"456\" width=\"62\"/>\\n    </hintset>\\n  </hintSetList>\\n  </data>'
Ntp3
s."
EndChar

StartChar: three
Encoding: 15 51 15
GlifName: three
Width: 560
VWidth: 0
Flags: W
LayerCount: 2
Back
Fore
SplineSet
205 3 m 257
NamedP: "hr00"
 166 3 166 3 130.5 2.5 c 128
 95 2 95 2 67.5 12.5 c 128
 40 23 40 23 21.5 50.5 c 128
 3 78 3 78 -1 134 c 257
 -1 137 -1 137 9.5 138.5 c 128
 20 140 20 140 37 141 c 128
 54 142 54 142 74.5 143.5 c 128
 95 145 95 145 114 147 c 257
 112 125 112 125 121 106 c 257
 128 91 128 91 146.5 78.5 c 128
 165 66 165 66 202 66 c 257
 244 66 244 66 272 83 c 128
 300 100 300 100 310 137 c 257
 319 174 319 174 302 192 c 128
 285 210 285 210 248 219 c 257
 232 222 232 222 220.5 227 c 128
 209 232 209 232 203 237.5 c 128
 197 243 197 243 197 248 c 128
 197 253 197 253 205 256 c 257
 227 265 227 265 242.5 274.5 c 128
 258 284 258 284 268 297 c 128
 278 310 278 310 282.5 329.5 c 128
 287 349 287 349 287 380 c 257
 287 396 287 396 281.5 406 c 128
 276 416 276 416 268 421 c 128
 260 426 260 426 249.5 427.5 c 128
 239 429 239 429 228 429 c 257
 179 433 179 433 156 418.5 c 128
 133 404 133 404 126 387 c 257
 117 366 117 366 123 338 c 257
 25 387 l 257
 24 422 24 422 39 442.5 c 128
 54 463 54 463 82.5 473 c 128
 111 483 111 483 149 485.5 c 128
 187 488 187 488 231 488 c 257
 263 488 263 488 296 485.5 c 128
 329 483 329 483 355 474 c 128
 381 465 381 465 397 446.5 c 128
 413 428 413 428 412 396 c 257
 409 352 409 352 404 327.5 c 128
 399 303 399 303 391 290.5 c 128
 383 278 383 278 370 273.5 c 128
 357 269 357 269 339 265 c 257
 355 262 355 262 370 252.5 c 128
 385 243 385 243 396 227 c 128
 407 211 407 211 411 189.5 c 128
 415 168 415 168 409 141 c 257
 396 76 396 76 381.5 46 c 128
 367 16 367 16 344 6.5 c 128
 321 -3 321 -3 287.5 0 c 128
 254 3 254 3 205 3 c 257
NamedP: "hr00"
EndSplineSet
PickledDataWithLists: "(dp1
S'com.adobe.type.autohint'
p2
(S'data'
S'<data>\\n  <hintSetList>\\n    <hintset pointTag=\"hr00\">\\n      <hstem pos=\"3\" width=\"63\"/>\\n      <hstem pos=\"429\" width=\"59\"/>\\n      <vstem pos=\"287\" width=\"125\"/>\\n    </hintset>\\n  </hintSetList>\\n  </data>'
Ntp3
s."
EndChar

StartChar: four
Encoding: 16 52 16
GlifName: four
Width: 649
VWidth: 0
Flags: W
LayerCount: 2
Back
Fore
SplineSet
361 101 m 257
 361 0 l 257
 353 4 353 4 343 8 c 257
 335 11 335 11 322.5 13.5 c 128
 310 16 310 16 296 16 c 257
 284 16 284 16 273.5 11.5 c 128
 263 7 263 7 255.5 4.5 c 128
 248 2 248 2 244 4 c 128
 240 6 240 6 240 19 c 257
 240 95 l 257
 230 93 230 93 208 93 c 128
 186 93 186 93 158.5 95.5 c 128
 131 98 131 98 102 103.5 c 128
 73 109 73 109 50 117 c 128
 27 125 27 125 14 136.5 c 128
 1 148 1 148 7 164 c 257
 12 190 12 190 24 219 c 128
 36 248 36 248 52 276.5 c 128
 68 305 68 305 86.5 333 c 128
 105 361 105 361 124 387 c 257
 168 446 168 446 220 505 c 257
 252 503 252 503 280 500 c 257
 303 498 303 498 326.5 495.5 c 128
 350 493 350 493 361 492 c 257
 361 183 l 257
 393 185 393 185 425.5 193.5 c 128
 458 202 458 202 482 207 c 257
 474 179 474 179 468 154 c 128
 462 129 462 129 460 121 c 257
 435 114 435 114 409 110 c 128
 383 106 383 106 361 101 c 257
102 200 m 257
NamedP: "hr01"
 97 184 97 184 113.5 178 c 128
 130 172 130 172 154 171.5 c 128
 178 171 178 171 203.5 173.5 c 128
 229 176 229 176 243 177 c 257
 244 182 244 182 245 198 c 128
 246 214 246 214 247 236 c 128
 248 258 248 258 248.5 284.5 c 128
 249 311 249 311 250 336 c 128
 251 361 251 361 251.5 383.5 c 128
 252 406 252 406 253 420 c 257
 214 369 214 369 182 326 c 257
 169 307 169 307 155.5 287.5 c 128
 142 268 142 268 131 251 c 128
 120 234 120 234 112 221 c 128
 104 208 104 208 102 200 c 257
NamedP: "hr01"
EndSplineSet
PickledDataWithLists: "(dp1
S'com.adobe.type.autohint'
p2
(S'data'
S'<data>\\n  <hintSetList>\\n    <hintset pointTag=\"hr01\">\\n      <hstem pos=\"505\" width=\"-20\"/>\\n      <vstem pos=\"240\" width=\"121\"/>\\n    </hintset>\\n  </hintSetList>\\n  </data>'
Ntp3
s."
EndChar

StartChar: five
Encoding: 17 53 17
GlifName: five
Width: 523
VWidth: 0
Flags: W
LayerCount: 2
Back
Fore
SplineSet
365 485 m 257
NamedP: "hr00"
 365 387 l 257
 319 386 319 386 278 385 c 257
 242 384 242 384 202 383.5 c 128
 162 383 162 383 132 383 c 257
 123 383 123 383 119 370.5 c 128
 115 358 115 358 114 343 c 128
 113 328 113 328 113.5 314.5 c 128
 114 301 114 301 113 298 c 257
 156 292 156 292 203.5 285 c 128
 251 278 251 278 291 264.5 c 128
 331 251 331 251 356.5 228 c 128
 382 205 382 205 381 167 c 257
 381 147 381 147 372.5 117.5 c 128
 364 88 364 88 350 61 c 128
 336 34 336 34 319 17 c 128
 302 0 302 0 287 6 c 257
 250 23 250 23 201.5 24 c 128
 153 25 153 25 109 19 c 257
 57 13 57 13 4 0 c 257
 4 154 l 257
 52 124 52 124 97 105 c 257
 117 97 117 97 137 90 c 128
 157 83 157 83 176.5 79 c 128
 196 75 196 75 213 75.5 c 128
 230 76 230 76 244 82 c 257
 270 93 270 93 275 115 c 128
 280 137 280 137 265.5 160.5 c 128
 251 184 251 184 219 203.5 c 128
 187 223 187 223 142 229 c 257
 127 230 127 230 106.5 231 c 128
 86 232 86 232 67 233 c 257
 44 234 44 234 20 236 c 257
 20 325 l 257
 20 357 20 357 22 384 c 257
 23 407 23 407 25 425 c 128
 27 443 27 443 31 445 c 257
 67 450 67 450 114 455 c 128
 161 460 161 460 208.5 465.5 c 128
 256 471 256 471 298 476 c 128
 340 481 340 481 365 485 c 257
NamedP: "hr00"
EndSplineSet
PickledDataWithLists: "(dp1
S'com.adobe.type.autohint'
p2
(S'data'
S'<data>\\n  <hintSetList>\\n    <hintset pointTag=\"hr00\">\\n      <hstem pos=\"485\" width=\"-20\"/>\\n    </hintset>\\n  </hintSetList>\\n  </data>'
Ntp3
s."
EndChar

StartChar: six
Encoding: 18 54 18
GlifName: six
Width: 501
VWidth: 0
Flags: W
LayerCount: 2
Back
Fore
SplineSet
388 232 m 257
NamedP: "hr00"
 398 211 398 211 394 176.5 c 128
 390 142 390 142 370.5 108.5 c 128
 351 75 351 75 317 46 c 128
 283 17 283 17 233 6 c 257
 185 -5 185 -5 145.5 4.5 c 128
 106 14 106 14 76.5 34.5 c 128
 47 55 47 55 28.5 82.5 c 128
 10 110 10 110 4 134 c 257
 1 143 1 143 1 157 c 257
 1 170 l 257
 8 232 8 232 32 293 c 257
 42 318 42 318 56.5 346 c 128
 71 374 71 374 92 401.5 c 128
 113 429 113 429 139.5 454.5 c 128
 166 480 166 480 201 502 c 257
 273 442 l 257
 247 426 247 426 220 406 c 257
 198 388 198 388 174 364 c 128
 150 340 150 340 132 311 c 257
 150 322 150 322 165 322 c 257
 201 324 201 324 236 318.5 c 128
 271 313 271 313 301 301.5 c 128
 331 290 331 290 354 272.5 c 128
 377 255 377 255 388 232 c 257
NamedP: "hr00"
237 66 m 257
 254 63 254 63 268.5 78 c 128
 283 93 283 93 290.5 115 c 128
 298 137 298 137 297 161 c 128
 296 185 296 185 283 203 c 257
 269 220 269 220 251 232 c 128
 233 244 233 244 215 250 c 128
 197 256 197 256 179.5 255 c 128
 162 254 162 254 148 246 c 257
 139 242 139 242 128 229 c 128
 117 216 117 216 109 198.5 c 128
 101 181 101 181 100.5 160.5 c 128
 100 140 100 140 113 121.5 c 128
 126 103 126 103 155 88 c 128
 184 73 184 73 237 66 c 257
EndSplineSet
PickledDataWithLists: "(dp1
S'com.adobe.type.autohint'
p2
(S'data'
S'<data>\\n  <hintSetList>\\n    <hintset pointTag=\"hr00\">\\n      <hstem pos=\"502\" width=\"-20\"/>\\n    </hintset>\\n  </hintSetList>\\n  </data>'
Ntp3
s."
EndChar

StartChar: seven
Encoding: 19 55 19
GlifName: seven
Width: 485
VWidth: 0
Flags: W
LayerCount: 2
Back
Fore
SplineSet
191 10 m 257
 167 17 167 17 144.5 14.5 c 128
 122 12 122 12 105.5 8 c 128
 89 4 89 4 80 1.5 c 128
 71 -1 71 -1 74 6 c 257
 95 60 95 60 121 120.5 c 128
 147 181 147 181 172 238.5 c 128
 197 296 197 296 218.5 346 c 128
 240 396 240 396 254 429 c 257
 251 423 251 423 242 420 c 128
 233 417 233 417 222.5 416.5 c 128
 212 416 212 416 201 416 c 128
 190 416 190 416 184 416 c 257
 170 416 170 416 143.5 414 c 128
 117 412 117 412 89 410 c 257
NamedP: "hr01"
 56 407 56 407 20 403 c 257
NamedP: "hr02"
 17 418 17 418 13 434 c 257
 10 449 10 449 6.5 466.5 c 128
 3 484 3 484 1 505 c 257
 20 504 20 504 46 504 c 128
 72 504 72 504 99.5 504 c 128
 127 504 127 504 156 504 c 128
 185 504 185 504 213 504 c 257
 276 504 276 504 345 505 c 257
 350 477 350 477 354 455 c 257
 357 435 357 435 359.5 418 c 128
 362 401 362 401 361 399 c 257
 317 306 317 306 275 209 c 128
 233 112 233 112 191 10 c 257
EndSplineSet
PickledDataWithLists: "(dp1
S'com.adobe.type.autohint'
p2
(S'data'
S'<data>\\n  <hintSetList>\\n    <hintset pointTag=\"hr01\">\\n      <hstem pos=\"504\" width=\"-20\"/>\\n    </hintset>\\n    <hintset pointTag=\"hr02\">\\n      <hstem pos=\"416\" width=\"89\"/>\\n    </hintset>\\n  </hintSetList>\\n  </data>'
Ntp3
s."
EndChar

StartChar: eight
Encoding: 20 56 20
GlifName: eight
Width: 517
VWidth: 0
Flags: W
LayerCount: 2
Back
Fore
SplineSet
299 252 m 257
 348 231 348 231 372 200 c 128
 396 169 396 169 395 136 c 128
 394 103 394 103 368.5 72 c 128
 343 41 343 41 293 19 c 257
 252 4 252 4 204 2 c 128
 156 0 156 0 113 12 c 128
 70 24 70 24 39.5 49 c 128
 9 74 9 74 4 112 c 257
 0 139 0 139 5.5 161.5 c 128
 11 184 11 184 22 201 c 128
 33 218 33 218 48 230 c 128
 63 242 63 242 80 249 c 257
 87 251 87 251 94 254 c 128
 101 257 101 257 109 259 c 257
 106 261 106 261 103.5 262 c 128
 101 263 101 263 99 265 c 257
 50 287 50 287 26 317.5 c 128
 2 348 2 348 3 380.5 c 128
 4 413 4 413 29.5 443.5 c 128
 55 474 55 474 105 495 c 257
 145 512 145 512 193.5 514.5 c 128
 242 517 242 517 285 505.5 c 128
 328 494 328 494 358.5 468 c 128
 389 442 389 442 394 403 c 257
 397 376 397 376 392 354.5 c 128
 387 333 387 333 376 316.5 c 128
 365 300 365 300 349 287.5 c 128
 333 275 333 275 315 268 c 257
 307 263 307 263 301.5 260.5 c 128
 296 258 296 258 286 256 c 257
 288 256 288 256 292.5 254 c 128
 297 252 297 252 299 252 c 257
145 439 m 257
 116 427 116 427 103.5 406 c 128
 91 385 91 385 109 350 c 257
 119 331 119 331 139.5 318 c 128
 160 305 160 305 181.5 298.5 c 128
 203 292 203 292 221 289.5 c 128
 239 287 239 287 244 289 c 257
 265 296 265 296 277.5 307 c 128
 290 318 290 318 293.5 332 c 128
 297 346 297 346 293 361.5 c 128
 289 377 289 377 280 393 c 257
 268 411 268 411 249 422 c 128
 230 433 230 433 210 438.5 c 128
 190 444 190 444 172.5 444 c 128
 155 444 155 444 145 439 c 257
244 76 m 257
 273 90 273 90 283.5 117 c 128
 294 144 294 144 280 177 c 257
 269 197 269 197 251.5 209 c 128
 234 221 234 221 216 226 c 128
 198 231 198 231 181.5 231 c 128
 165 231 165 231 158 226 c 257
 119 206 119 206 111 184.5 c 128
 103 163 103 163 125 128 c 257
 135 111 135 111 151.5 99 c 128
 168 87 168 87 185.5 81 c 128
 203 75 203 75 218.5 73.5 c 128
 234 72 234 72 244 76 c 257
EndSplineSet
EndChar

StartChar: nine
Encoding: 21 57 21
GlifName: nine
Width: 501
VWidth: 0
Flags: W
LayerCount: 2
Back
Fore
SplineSet
10 268 m 257
NamedP: "hr00"
 -1 292 -1 292 3 325.5 c 128
 7 359 7 359 26 393 c 128
 45 427 45 427 79 455 c 128
 113 483 113 483 161 495 c 257
 210 507 210 507 250 497.5 c 128
 290 488 290 488 320 467.5 c 128
 350 447 350 447 368.5 420 c 128
 387 393 387 393 393 371 c 257
 394 366 394 366 394 359 c 128
 394 352 394 352 394 346 c 257
 394 339 394 339 393 331 c 257
 387 268 387 268 364 208 c 257
 353 182 353 182 339 154.5 c 128
 325 127 325 127 304.5 100 c 128
 284 73 284 73 257 47.5 c 128
 230 22 230 22 197 0 c 257
 125 62 l 257
 150 78 150 78 173 96 c 257
 194 113 194 113 216.5 135.5 c 128
 239 158 239 158 256 186 c 257
 246 184 246 184 236.5 180.5 c 128
 227 177 227 177 219 177 c 257
 183 173 183 173 150.5 178.5 c 128
 118 184 118 184 90 197 c 128
 62 210 62 210 41 228.5 c 128
 20 247 20 247 10 268 c 257
NamedP: "hr00"
170 439 m 257
 153 440 153 440 137.5 425.5 c 128
 122 411 122 411 112 388.5 c 128
 102 366 102 366 101.5 341 c 128
 101 316 101 316 115 298 c 257
 128 281 128 281 145 268.5 c 128
 162 256 162 256 179 249 c 128
 196 242 196 242 212.5 242 c 128
 229 242 229 242 243 249 c 257
 251 254 251 254 262.5 269.5 c 128
 274 285 274 285 283.5 305 c 128
 293 325 293 325 295.5 347.5 c 128
 298 370 298 370 286.5 390 c 128
 275 410 275 410 248 423 c 128
 221 436 221 436 170 439 c 257
EndSplineSet
PickledDataWithLists: "(dp1
S'com.adobe.type.autohint'
p2
(S'data'
S'<data>\\n  <hintSetList>\\n    <hintset pointTag=\"hr00\">\\n      <hstem pos=\"21\" width=\"-21\"/>\\n    </hintset>\\n  </hintSetList>\\n  </data>'
Ntp3
s."
EndChar

StartChar: colon
Encoding: 22 58 22
GlifName: colon
Width: 195
VWidth: 0
Flags: W
LayerCount: 2
Back
Fore
SplineSet
125 303 m 257
NamedP: "hr00"
 125 278 125 278 107 258 c 128
 89 238 89 238 65 238 c 257
 0 238 0 238 0 297 c 257
 0 324 0 324 18.5 343.5 c 128
 37 363 37 363 64 363 c 257
 91 363 91 363 108 346.5 c 128
 125 330 125 330 125 303 c 257
NamedP: "hr00"
125 63 m 257
 125 38 125 38 107 18 c 128
 89 -2 89 -2 65 -2 c 257
 0 -2 0 -2 0 57 c 257
 0 84 0 84 18.5 103.5 c 128
 37 123 37 123 64 123 c 257
 91 123 91 123 108 106.5 c 128
 125 90 125 90 125 63 c 257
EndSplineSet
PickledDataWithLists: "(dp1
S'com.adobe.type.autohint'
p2
(S'data'
S'<data>\\n  <hintSetList>\\n    <hintset pointTag=\"hr00\">\\n      <hstem pos=\"-2\" width=\"125\"/>\\n      <hstem pos=\"238\" width=\"125\"/>\\n      <vstem pos=\"0\" width=\"125\"/>\\n    </hintset>\\n  </hintSetList>\\n  </data>'
Ntp3
s."
EndChar

StartChar: semicolon
Encoding: 23 59 23
GlifName: semicolon
Width: 195
VWidth: 0
Flags: W
LayerCount: 2
Back
Fore
SplineSet
37 -52 m 257
 57 -41 57 -41 57 -20 c 257
 57 -1 57 -1 40 3 c 257
 28 5 28 5 17 16 c 257
 0 31 0 31 0 54 c 257
 0 77 0 77 15 93.5 c 128
 30 110 30 110 52 110 c 257
 81 110 81 110 102 88 c 128
 123 66 123 66 123 36 c 257
 123 8 123 8 104 -21 c 257
 82 -54 82 -54 50 -54 c 257
 44 -54 44 -54 37 -52 c 257
125 303 m 257
NamedP: "hr01"
 125 278 125 278 107 258 c 128
 89 238 89 238 65 238 c 257
 0 238 0 238 0 297 c 257
 0 324 0 324 18.5 343.5 c 128
 37 363 37 363 64 363 c 257
 91 363 91 363 108 346.5 c 128
 125 330 125 330 125 303 c 257
NamedP: "hr01"
EndSplineSet
PickledDataWithLists: "(dp1
S'com.adobe.type.autohint'
p2
(S'data'
S'<data>\\n  <hintSetList>\\n    <hintset pointTag=\"hr01\">\\n      <hstem pos=\"-33\" width=\"-21\"/>\\n      <hstem pos=\"110\" width=\"128\"/>\\n      <vstem pos=\"0\" width=\"125\"/>\\n    </hintset>\\n    <hintset pointTag=\"hr02\">\\n      <hstem pos=\"-33\" width=\"-21\"/>\\n      <hstem pos=\"110\" width=\"128\"/>\\n      <vstem pos=\"57\" width=\"68\"/>\\n    </hintset>\\n  </hintSetList>\\n  </data>'
Ntp3
s."
EndChar

StartChar: equal
Encoding: 24 61 24
GlifName: equal
Width: 441
VWidth: 0
Flags: W
LayerCount: 2
Back
Fore
SplineSet
371 259 m 257
NamedP: "hr00"
 35 259 l 257
 35 336 l 257
 371 336 l 257
 371 259 l 257
NamedP: "hr00"
371 119 m 257
 35 119 l 257
 35 196 l 257
 371 196 l 257
 371 119 l 257
EndSplineSet
PickledDataWithLists: "(dp1
S'com.adobe.type.autohint'
p2
(S'data'
S'<data>\\n  <hintSetList>\\n    <hintset pointTag=\"hr00\">\\n      <hstem pos=\"119\" width=\"77\"/>\\n      <hstem pos=\"259\" width=\"77\"/>\\n    </hintset>\\n  </hintSetList>\\n  </data>'
Ntp3
s."
EndChar

StartChar: question
Encoding: 25 63 25
GlifName: question
Width: 332
VWidth: 0
Flags: W
LayerCount: 2
Back
Fore
SplineSet
174 13 m 257
NamedP: "hr00"
 174 -14 174 -14 148 -31 c 257
 129 -43 129 -43 111.5 -40.5 c 128
 94 -38 94 -38 84 -31 c 257
 61 -15 61 -15 61 11 c 257
 61 34 61 34 78 52 c 128
 95 70 95 70 117 70 c 257
 141 70 141 70 157.5 54.5 c 128
 174 39 174 39 174 13 c 257
NamedP: "hr00"
33 375 m 257
 24 408 24 408 31 434 c 257
 37 457 37 457 60.5 476.5 c 128
 84 496 84 496 140 500 c 257
 177 502 177 502 201.5 497.5 c 128
 226 493 226 493 242 485 c 128
 258 477 258 477 266.5 467.5 c 128
 275 458 275 458 280 451 c 257
 300 411 300 411 291 376.5 c 128
 282 342 282 342 248 309 c 257
 233 296 233 296 215.5 279.5 c 128
 198 263 198 263 180.5 247 c 128
 163 231 163 231 148.5 217.5 c 128
 134 204 134 204 127 196 c 257
 120 188 120 188 118 177.5 c 128
 116 167 116 167 118.5 157 c 128
 121 147 121 147 128 142 c 128
 135 137 135 137 146 140 c 257
 146.5 129 l 130
 147 118 147 118 141.5 106 c 128
 136 94 136 94 122.5 89.5 c 128
 109 85 109 85 81 99 c 257
 71 104 71 104 60.5 120 c 128
 50 136 50 136 50.5 157.5 c 128
 51 179 51 179 67.5 204 c 128
 84 229 84 229 127 254 c 257
 214 304 214 304 237 346 c 128
 260 388 260 388 227 424 c 257
 203 451 203 451 171.5 455 c 128
 140 459 140 459 116.5 447.5 c 128
 93 436 93 436 85 413.5 c 128
 77 391 77 391 97 365 c 257
 33 375 l 257
EndSplineSet
PickledDataWithLists: "(dp1
S'com.adobe.type.autohint'
p2
(S'data'
S'<data>\\n  <hintSetList>\\n    <hintset pointTag=\"hr00\">\\n      <vstem pos=\"61\" width=\"113\"/>\\n    </hintset>\\n  </hintSetList>\\n  </data>'
Ntp3
s."
EndChar

StartChar: backslash
Encoding: 26 92 26
GlifName: backslash
Width: 378
VWidth: 0
Flags: W
LayerCount: 2
Back
Fore
SplineSet
98 512 m 257
NamedP: "hr00"
 309 -25 l 257
 214 -25 l 257
 0 512 l 257
 98 512 l 257
NamedP: "hr00"
EndSplineSet
PickledDataWithLists: "(dp1
S'com.adobe.type.autohint'
p2
(S'data'
S'<data>\\n  <hintSetList>\\n    <hintset pointTag=\"hr00\">\\n      <hstem pos=\"-4\" width=\"-21\"/>\\n      <hstem pos=\"512\" width=\"-20\"/>\\n    </hintset>\\n  </hintSetList>\\n  </data>'
Ntp3
s."
EndChar

StartChar: underscore
Encoding: 27 95 27
GlifName: underscore
Width: 591
VWidth: 0
Flags: W
LayerCount: 2
Back
Fore
SplineSet
521 0 m 257
 35 0 l 257
 35 97 l 257
NamedP: "hr01"
 521 99 l 257
 521 0 l 257
EndSplineSet
PickledDataWithLists: "(dp1
S'com.adobe.type.autohint'
p2
(S'data'
S'<data>\\n  <hintSetList>\\n    <hintset pointTag=\"hr01\">\\n      <hstem pos=\"0\" width=\"98\"/>\\n    </hintset>\\n    <hintset pointTag=\"hr01\">\\n      <hstem pos=\"99\" width=\"-20\"/>\\n    </hintset>\\n  </hintSetList>\\n  </data>'
Ntp3
s."
EndChar

StartChar: bar
Encoding: 28 124 28
GlifName: bar
Width: 244
VWidth: 0
Flags: W
LayerCount: 2
Back
Fore
SplineSet
173 477 m 257
NamedP: "hr00"
 173 0 l 257
 74 0 l 257
 74 477 l 257
 173 477 l 257
NamedP: "hr00"
EndSplineSet
PickledDataWithLists: "(dp1
S'com.adobe.type.autohint'
p2
(S'data'
S'<data>\\n  <hintSetList>\\n    <hintset pointTag=\"hr00\">\\n      <hstem pos=\"21\" width=\"-21\"/>\\n      <hstem pos=\"477\" width=\"-20\"/>\\n      <vstem pos=\"74\" width=\"99\"/>\\n    </hintset>\\n  </hintSetList>\\n  </data>'
Ntp3
s."
EndChar

StartChar: uni0964
Encoding: 29 2404 29
GlifName: uni0964
Width: 168
VWidth: 0
Flags: W
LayerCount: 2
Back
Fore
SplineSet
88 -20 m 257
NamedP: "hr00"
 0 -20 l 257
 0 472 l 257
 88 472 l 257
 88 -20 l 257
NamedP: "hr00"
EndSplineSet
PickledDataWithLists: "(dp1
S'com.adobe.type.autohint'
p2
(S'data'
S'<data>\\n  <hintSetList>\\n    <hintset pointTag=\"hr00\">\\n      <hstem pos=\"1\" width=\"-21\"/>\\n      <hstem pos=\"472\" width=\"-20\"/>\\n      <vstem pos=\"0\" width=\"88\"/>\\n    </hintset>\\n  </hintSetList>\\n  </data>'
Ntp3
s."
EndChar

StartChar: uni0965
Encoding: 30 2405 30
GlifName: uni0965
Width: 368
VWidth: 0
Flags: W
LayerCount: 2
Back
Fore
SplineSet
88 -20 m 257
NamedP: "hr00"
 0 -20 l 257
 0 472 l 257
 88 472 l 257
 88 -20 l 257
NamedP: "hr00"
288 -20 m 257
 200 -20 l 257
 200 472 l 257
 288 472 l 257
 288 -20 l 257
EndSplineSet
PickledDataWithLists: "(dp1
S'com.adobe.type.autohint'
p2
(S'data'
S'<data>\\n  <hintSetList>\\n    <hintset pointTag=\"hr00\">\\n      <hstem pos=\"1\" width=\"-21\"/>\\n      <hstem pos=\"472\" width=\"-20\"/>\\n      <vstem pos=\"0\" width=\"88\"/>\\n      <vstem pos=\"200\" width=\"88\"/>\\n    </hintset>\\n  </hintSetList>\\n  </data>'
Ntp3
s."
EndChar

StartChar: U0C01
Encoding: 31 3073 31
GlifName: U0C01_
Width: 382
VWidth: 0
Flags: W
LayerCount: 2
Back
Fore
SplineSet
187 416 m 257
NamedP: "hr00"
 176 409 176 409 161.5 393 c 128
 147 377 147 377 134.5 355.5 c 128
 122 334 122 334 110.5 310 c 128
 99 286 99 286 94 262 c 257
 80 201 80 201 99.5 155.5 c 128
 119 110 119 110 151.5 78 c 128
 184 46 184 46 218.5 27 c 128
 253 8 253 8 268 0 c 257
 136 0 l 257
 94 20 94 20 65 54 c 257
 38 82 38 82 20 125.5 c 128
 2 169 2 169 10 230 c 257
 17 268 17 268 32.5 300.5 c 128
 48 333 48 333 66.5 358 c 128
 85 383 85 383 102.5 400.5 c 128
 120 418 120 418 131 426 c 257
 187 416 l 257
NamedP: "hr00"
EndSplineSet
PickledDataWithLists: "(dp1
S'com.adobe.type.autohint'
p2
(S'data'
S'<data>\\n  <hintSetList>\\n    <hintset pointTag=\"hr00\">\\n      <hstem pos=\"21\" width=\"-21\"/>\\n      <hstem pos=\"426\" width=\"-20\"/>\\n    </hintset>\\n  </hintSetList>\\n  </data>'
Ntp3
s."
EndChar

StartChar: U0C02
Encoding: 32 3074 32
GlifName: U0C02_
Width: 537
VWidth: 0
Flags: W
LayerCount: 2
Back
Fore
SplineSet
431 318 m 257
 443 288 443 288 438.5 241.5 c 128
 434 195 434 195 412 148 c 128
 390 101 390 101 351.5 62.5 c 128
 313 24 313 24 258 7 c 257
 203 -7 203 -7 158.5 6.5 c 128
 114 20 114 20 81 49 c 128
 48 78 48 78 28 115.5 c 128
 8 153 8 153 2 184 c 257
 -5 216 -5 216 11 259 c 128
 27 302 27 302 55 341.5 c 128
 83 381 83 381 117 409 c 128
 151 437 151 437 179 440 c 257
 220 443 220 443 260 436.5 c 128
 300 430 300 430 334 413.5 c 128
 368 397 368 397 393.5 373 c 128
 419 349 419 349 431 318 c 257
264 76 m 257
 284 74 284 74 301.5 96 c 128
 319 118 319 118 329.5 150.5 c 128
 340 183 340 183 340.5 219 c 128
 341 255 341 255 327 280 c 257
 310 304 310 304 287 322.5 c 128
 264 341 264 341 240 351 c 128
 216 361 216 361 193.5 363 c 128
 171 365 171 365 157 354 c 257
 146 348 146 348 132 327.5 c 128
 118 307 118 307 107 279.5 c 128
 96 252 96 252 94.5 220 c 128
 93 188 93 188 108.5 159.5 c 128
 124 131 124 131 161 108.5 c 128
 198 86 198 86 264 76 c 257
EndSplineSet
EndChar

StartChar: U0C03
Encoding: 33 3075 33
GlifName: U0C03_
Width: 283
VWidth: 0
Flags: W
LayerCount: 2
Back
Fore
SplineSet
183 393 m 257
 187 380 187 380 185.5 360.5 c 128
 184 341 184 341 175 321 c 128
 166 301 166 301 149.5 284.5 c 128
 133 268 133 268 110 262 c 257
 86 256 86 256 67.5 261.5 c 128
 49 267 49 267 35.5 279.5 c 128
 22 292 22 292 13 308 c 128
 4 324 4 324 1 338 c 257
 -2 351 -2 351 5 369.5 c 128
 12 388 12 388 24 405 c 128
 36 422 36 422 50.5 433.5 c 128
 65 445 65 445 77 446 c 257
 112 451 112 451 142 436.5 c 128
 172 422 172 422 183 393 c 257
111 301 m 257
 118 300 118 300 124 308 c 128
 130 316 130 316 133.5 328 c 128
 137 340 137 340 137 353 c 128
 137 366 137 366 131 375 c 257
 120 391 120 391 102 399 c 128
 84 407 84 407 73 399 c 257
 68 396 68 396 60 382.5 c 128
 52 369 52 369 51.5 352 c 128
 51 335 51 335 63 320 c 128
 75 305 75 305 111 301 c 257
183 167 m 257
 187 154 187 154 185.5 134.5 c 128
 184 115 184 115 175 95 c 128
 166 75 166 75 149.5 58.5 c 128
 133 42 133 42 110 36 c 257
 86 30 86 30 67.5 35.5 c 128
 49 41 49 41 35.5 53.5 c 128
 22 66 22 66 13 81.5 c 128
 4 97 4 97 1 112 c 257
 -2 125 -2 125 5 143.5 c 128
 12 162 12 162 24 179 c 128
 36 196 36 196 50.5 207.5 c 128
 65 219 65 219 77 220 c 257
 112 224 112 224 142 210 c 128
 172 196 172 196 183 167 c 257
110 75 m 257
 117 74 117 74 123 82 c 128
 129 90 129 90 132.5 102 c 128
 136 114 136 114 136 126.5 c 128
 136 139 136 139 130 148 c 257
 119 165 119 165 100.5 172.5 c 128
 82 180 82 180 71 173 c 257
 67 170 67 170 59 156 c 128
 51 142 51 142 50.5 126.5 c 128
 50 111 50 111 62 96 c 128
 74 81 74 81 110 75 c 257
EndSplineSet
EndChar

StartChar: U0C05
Encoding: 34 3077 34
GlifName: U0C05_
Width: 727
VWidth: 0
Flags: W
LayerCount: 2
Back
Fore
SplineSet
444 455 m 257
NamedP: "hr00"
 463 461 463 461 493.5 456.5 c 128
 524 452 524 452 554.5 430.5 c 128
 585 409 585 409 606.5 366.5 c 128
 628 324 628 324 628 252 c 257
 628 186 628 186 595 138.5 c 128
 562 91 562 91 513 60.5 c 128
 464 30 464 30 406.5 15 c 128
 349 0 349 0 300 0 c 257
 267 0 267 0 226 12 c 128
 185 24 185 24 146.5 43 c 128
 108 62 108 62 75 86.5 c 128
 42 111 42 111 25 134 c 257
 6 158 6 158 2 190.5 c 128
 -2 223 -2 223 8.5 259.5 c 128
 19 296 19 296 44.5 332 c 128
 70 368 70 368 111 399 c 257
 151 430 151 430 189.5 434.5 c 128
 228 439 228 439 259.5 428.5 c 128
 291 418 291 418 311 396.5 c 128
 331 375 331 375 333 355 c 257
 335 318 335 318 314.5 288.5 c 128
 294 259 294 259 248 245 c 257
 222 238 222 238 200.5 244.5 c 128
 179 251 179 251 162 262 c 257
 142 274 142 274 126 294 c 257
 100 247 100 247 111 206.5 c 128
 122 166 122 166 155.5 135.5 c 128
 189 105 189 105 238.5 88.5 c 128
 288 72 288 72 340 72 c 257
 385 72 385 72 421.5 87.5 c 128
 458 103 458 103 483.5 128.5 c 128
 509 154 509 154 523 185 c 128
 537 216 537 216 537 246 c 257
 537 271 537 271 526 293.5 c 128
 515 316 515 316 498.5 331.5 c 128
 482 347 482 347 464 356 c 128
 446 365 446 365 431 361 c 257
 420 359 420 359 418.5 351.5 c 128
 417 344 417 344 422 331.5 c 128
 427 319 427 319 436.5 303.5 c 128
 446 288 446 288 458 270 c 257
 469 253 469 253 468 231 c 128
 467 209 467 209 456 189.5 c 128
 445 170 445 170 425.5 156 c 128
 406 142 406 142 379 140 c 257
 362 138 362 138 337 138.5 c 128
 312 139 312 139 289 139 c 257
 261 139 261 139 231 140 c 257
 231 212 l 257
 376 212 l 257
 398 212 398 212 400 228.5 c 128
 402 245 402 245 392 259 c 257
 362 298 362 298 360.5 332.5 c 128
 359 367 359 367 372.5 392 c 128
 386 417 386 417 407 433.5 c 128
 428 450 428 450 444 455 c 257
NamedP: "hr00"
188 377 m 257
 174 367 174 367 176.5 349.5 c 128
 179 332 179 332 191.5 318.5 c 128
 204 305 204 305 221.5 300 c 128
 239 295 239 295 254 308 c 257
 269 323 269 323 266.5 338.5 c 128
 264 354 264 354 252 366 c 128
 240 378 240 378 222 382 c 128
 204 386 204 386 188 377 c 257
EndSplineSet
PickledDataWithLists: "(dp1
S'com.adobe.type.autohint'
p2
(S'data'
S'<data>\\n  <hintSetList>\\n    <hintset pointTag=\"hr00\">\\n      <hstem pos=\"0\" width=\"72\"/>\\n      <hstem pos=\"140\" width=\"72\"/>\\n      <vstem pos=\"537\" width=\"91\"/>\\n    </hintset>\\n  </hintSetList>\\n  </data>'
Ntp3
s."
EndChar

StartChar: U0C06
Encoding: 35 3078 35
GlifName: U0C06_
Width: 712
VWidth: 0
Flags: W
LayerCount: 2
Back
Fore
SplineSet
444 456 m 257
NamedP: "hr00"
 479 464 479 464 510.5 454 c 128
 542 444 542 444 565 422.5 c 128
 588 401 588 401 600.5 371 c 128
 613 341 613 341 611.5 309.5 c 128
 610 278 610 278 592 246.5 c 128
 574 215 574 215 536 190 c 257
 550 161 550 161 545.5 135.5 c 128
 541 110 541 110 524 88.5 c 128
 507 67 507 67 480.5 50.5 c 128
 454 34 454 34 422.5 22.5 c 128
 391 11 391 11 358.5 5 c 128
 326 -1 326 -1 297 0 c 257
 295 0 295 0 281 1 c 128
 267 2 267 2 245.5 6 c 128
 224 10 224 10 196 18.5 c 128
 168 27 168 27 138.5 42 c 128
 109 57 109 57 79.5 80.5 c 128
 50 104 50 104 25 137 c 257
 6 161 6 161 2 194 c 128
 -2 227 -2 227 8 263.5 c 128
 18 300 18 300 44 337.5 c 128
 70 375 70 375 110 406 c 257
 151 436 151 436 189.5 439.5 c 128
 228 443 228 443 259 432 c 128
 290 421 290 421 310 400.5 c 128
 330 380 330 380 333 361 c 257
 335 325 335 325 318.5 297 c 128
 302 269 302 269 253 253 c 257
 228 245 228 245 204.5 251 c 128
 181 257 181 257 164 266 c 257
 143 278 143 278 125 295 c 257
 98 246 98 246 109.5 206 c 128
 121 166 121 166 154.5 137 c 128
 188 108 188 108 238 92 c 128
 288 76 288 76 339 76 c 257
 374 76 374 76 395.5 83.5 c 128
 417 91 417 91 428.5 102 c 128
 440 113 440 113 443 126.5 c 128
 446 140 446 140 444 157 c 257
 432 155 432 155 419.5 152.5 c 128
 407 150 407 150 391 146 c 257
 354 142 354 142 324.5 142 c 128
 295 142 295 142 274 143 c 257
 250 144 250 144 231 146 c 257
 231 218 l 257
 249 216 249 216 272 215 c 257
 293 214 293 214 321 214.5 c 128
 349 215 349 215 385 218 c 257
 395 218 395 218 402.5 219.5 c 128
 410 221 410 221 418 221 c 257
 413 231 413 231 408 239 c 128
 403 247 403 247 399 253 c 257
 395 259 395 259 391 265 c 257
 361 305 361 305 360.5 338.5 c 128
 360 372 360 372 373.5 396.5 c 128
 387 421 387 421 408 437 c 128
 429 453 429 453 444 456 c 257
NamedP: "hr00"
188 380 m 257
 172 370 172 370 173.5 352.5 c 128
 175 335 175 335 186.5 320.5 c 128
 198 306 198 306 217 301.5 c 128
 236 297 236 297 254 312 c 257
 270 326 270 326 267.5 342 c 128
 265 358 265 358 252.5 370 c 128
 240 382 240 382 221.5 386.5 c 128
 203 391 203 391 188 380 c 257
489 250 m 257
 512 263 512 263 520 280.5 c 128
 528 298 528 298 526.5 313.5 c 128
 525 329 525 329 515.5 342.5 c 128
 506 356 506 356 492 364.5 c 128
 478 373 478 373 461.5 374 c 128
 445 375 445 375 431 365 c 257
 413 354 413 354 416 338 c 128
 419 322 419 322 430 307 c 257
 443 290 443 290 467 271 c 257
 475 264 475 264 479.5 259.5 c 128
 484 255 484 255 489 250 c 257
EndSplineSet
PickledDataWithLists: "(dp1
S'com.adobe.type.autohint'
p2
(S'data'
S'<data>\\n  <hintSetList>\\n    <hintset pointTag=\"hr00\">\\n      <hstem pos=\"0\" width=\"76\"/>\\n      <hstem pos=\"144\" width=\"71\"/>\\n    </hintset>\\n  </hintSetList>\\n  </data>'
Ntp3
s."
EndChar

StartChar: U0C07
Encoding: 36 3079 36
GlifName: U0C07_
Width: 651
VWidth: 0
Flags: W
LayerCount: 2
Back
Fore
SplineSet
534 208 m 257
NamedP: "hr00"
 516 172 516 172 500.5 149 c 128
 485 126 485 126 474 113 c 257
 461 96 461 96 449 89 c 257
 520 31 l 257
 449 -9 l 257
 434 5 434 5 422 17 c 257
 411 28 411 28 400 39.5 c 128
 389 51 389 51 383 58 c 257
 351 35 351 35 311 21 c 128
 271 7 271 7 230.5 1.5 c 128
 190 -4 190 -4 152.5 0.5 c 128
 115 5 115 5 85.5 17.5 c 128
 56 30 56 30 39.5 51.5 c 128
 23 73 23 73 26 101 c 257
 29 127 29 127 47.5 145.5 c 128
 66 164 66 164 92 174.5 c 128
 118 185 118 185 149.5 189.5 c 128
 181 194 181 194 212 193 c 257
 246 193 246 193 276 185 c 128
 306 177 306 177 330 167.5 c 128
 354 158 354 158 369.5 148.5 c 128
 385 139 385 139 389 137 c 257
 403 150 403 150 417 166 c 257
 428 179 428 179 440 198 c 128
 452 217 452 217 458 239 c 257
 464 262 464 262 463 278 c 128
 462 294 462 294 456 305.5 c 128
 450 317 450 317 440 326 c 128
 430 335 430 335 419 342 c 257
 408 347 408 347 394.5 350 c 128
 381 353 381 353 367.5 352 c 128
 354 351 354 351 343.5 346.5 c 128
 333 342 333 342 327 333 c 257
 323 329 323 329 319 318 c 128
 315 307 315 307 312 297 c 257
 308 285 308 285 304 269 c 257
 234 269 l 257
 240 290 240 290 240 308 c 257
 240 325 240 325 236.5 340 c 128
 233 355 233 355 222 364 c 257
 211 371 211 371 187 374 c 128
 163 377 163 377 140.5 374 c 128
 118 371 118 371 104.5 359.5 c 128
 91 348 91 348 100 327 c 257
 109 311 109 311 117.5 301.5 c 128
 126 292 126 292 134 287 c 257
 143 280 143 280 154 275 c 257
 84 220 l 257
 54 247 54 247 34 272 c 257
 25 284 25 284 17.5 295.5 c 128
 10 307 10 307 5.5 319.5 c 128
 1 332 1 332 0.5 344 c 128
 0 356 0 356 6 367 c 257
 13 379 13 379 32 393.5 c 128
 51 408 51 408 75.5 420.5 c 128
 100 433 100 433 127.5 444 c 128
 155 455 155 455 178.5 461 c 128
 202 467 202 467 219.5 467.5 c 128
 237 468 237 468 242 461 c 257
 248 450 248 450 253 435.5 c 128
 258 421 258 421 262 409 c 257
 266 393 266 393 271 379 c 257
 285 399 285 399 302 414 c 257
 316 426 316 426 335.5 434.5 c 128
 355 443 355 443 379 437 c 257
 427 426 427 426 452.5 418 c 128
 478 410 478 410 492 402.5 c 128
 506 395 506 395 512 387.5 c 128
 518 380 518 380 526 370 c 257
 540 350 540 350 545.5 327.5 c 128
 551 305 551 305 550 283 c 128
 549 261 549 261 544.5 241 c 128
 540 221 540 221 534 208 c 257
NamedP: "hr00"
130 113 m 257
 125 93 125 93 145.5 83.5 c 128
 166 74 166 74 198 72.5 c 128
 230 71 230 71 268 77.5 c 128
 306 84 306 84 337 97 c 257
 326 110 326 110 294.5 121.5 c 128
 263 133 263 133 228.5 137.5 c 128
 194 142 194 142 165 137.5 c 128
 136 133 136 133 130 113 c 257
EndSplineSet
PickledDataWithLists: "(dp1
S'com.adobe.type.autohint'
p2
(S'data'
S'<data>\\n  <hintSetList>\\n    <hintset pointTag=\"hr00\">\\n      <hstem pos=\"193\" width=\"76\"/>\\n    </hintset>\\n  </hintSetList>\\n  </data>'
Ntp3
s."
EndChar

StartChar: U0C08
Encoding: 37 3080 37
GlifName: U0C08_
Width: 800
VWidth: 0
Flags: W
LayerCount: 2
Back
Fore
SplineSet
99 430 m 257
 354 586 l 257
 389 502 l 257
 126 388 l 257
 99 430 l 257
476 315 m 257
 488 285 488 285 483.5 239.5 c 128
 479 194 479 194 458 147.5 c 128
 437 101 437 101 399.5 63 c 128
 362 25 362 25 309 8 c 257
 255 -7 255 -7 211.5 6.5 c 128
 168 20 168 20 136 48.5 c 128
 104 77 104 77 84.5 113.5 c 128
 65 150 65 150 57 181 c 257
 51 214 51 214 67.5 257 c 128
 84 300 84 300 111 339 c 128
 138 378 138 378 171 405.5 c 128
 204 433 204 433 230 436 c 257
 270 439 270 439 308.5 432.5 c 128
 347 426 347 426 380.5 409.5 c 128
 414 393 414 393 439 369 c 128
 464 345 464 345 476 315 c 257
312 75 m 257
 332 74 332 74 352 97.5 c 128
 372 121 372 121 384.5 153.5 c 128
 397 186 397 186 399.5 221.5 c 128
 402 257 402 257 388 282 c 257
 373 305 373 305 352 324 c 128
 331 343 331 343 307 352.5 c 128
 283 362 283 362 257 361.5 c 128
 231 361 231 361 208 348 c 257
 195 340 195 340 179 318 c 128
 163 296 163 296 152.5 267.5 c 128
 142 239 142 239 141 207.5 c 128
 140 176 140 176 156 148.5 c 128
 172 121 172 121 209 100.5 c 128
 246 80 246 80 312 75 c 257
601 269 m 257
 621 269 621 269 643.5 260 c 128
 666 251 666 251 682.5 234.5 c 128
 699 218 699 218 706.5 196 c 128
 714 174 714 174 702 148 c 257
 692 122 692 122 670.5 97 c 128
 649 72 649 72 623.5 60 c 128
 598 48 598 48 571.5 58 c 128
 545 68 545 68 525 112 c 257
 519 126 519 126 522 144 c 128
 525 162 525 162 532 176 c 257
 540 194 540 194 552 210 c 257
 1 210 l 257
 1 280 l 257
 154 278 154 278 280 275 c 257
 333 274 333 274 386 273 c 128
 439 272 439 272 483 271.5 c 128
 527 271 527 271 558.5 270 c 128
 590 269 590 269 601 269 c 257
664 132 m 257
 670 142 670 142 659 158.5 c 128
 648 175 648 175 632 189 c 128
 616 203 616 203 601.5 209.5 c 128
 587 216 587 216 585 207 c 257
 578 176 578 176 587 156.5 c 128
 596 137 596 137 611 128 c 128
 626 119 626 119 641.5 120 c 128
 657 121 657 121 664 132 c 257
610 247 m 257
 604 245 604 245 598 245 c 257
 592 245 592 245 584.5 248 c 128
 577 251 577 251 568 259 c 257
NamedP: "hr01"
 573 269 573 269 580 283 c 128
 587 297 587 297 591.5 310 c 128
 596 323 596 323 596 333.5 c 128
 596 344 596 344 588 348 c 257
 580 351 580 351 572 346.5 c 128
 564 342 564 342 558 335 c 257
 551 327 551 327 545 315 c 257
 536 315 536 315 525 318 c 257
 517 321 517 321 507.5 326 c 128
 498 331 498 331 489 341 c 257
NamedP: "hr02"
 495 354 495 354 511 366.5 c 128
 527 379 527 379 547.5 386.5 c 128
 568 394 568 394 589 395.5 c 128
 610 397 610 397 624 390 c 257
 637 382 637 382 637 359.5 c 128
 637 337 637 337 631 311 c 257
 624 282 624 282 610 247 c 257
EndSplineSet
PickledDataWithLists: "(dp1
S'com.adobe.type.autohint'
p2
(S'data'
S'<data>\\n  <hintSetList>\\n    <hintset pointTag=\"hr01\">\\n      <hstem pos=\"75\" width=\"135\"/>\\n      <hstem pos=\"586\" width=\"-20\"/>\\n    </hintset>\\n    <hintset pointTag=\"hr02\">\\n      <hstem pos=\"210\" width=\"226\"/>\\n      <hstem pos=\"586\" width=\"-20\"/>\\n    </hintset>\\n  </hintSetList>\\n  </data>'
Ntp3
s."
EndChar

StartChar: U0C09
Encoding: 38 3081 38
GlifName: U0C09_
Width: 667
VWidth: 0
Flags: W
LayerCount: 2
Back
Fore
SplineSet
322 456 m 257
NamedP: "hr00"
 301 555 l 257
 375 557 l 257
 353 457 l 257
 322 456 l 257
NamedP: "hr00"
529 319 m 257
 528 262 l 257
 0 256 l 257
 0 317 l 257
 529 319 l 257
551 174 m 257
 564 140 564 140 560 109 c 128
 556 78 556 78 539 53.5 c 128
 522 29 522 29 493.5 14.5 c 128
 465 0 465 0 428 0 c 257
 392 0 392 0 365.5 15 c 128
 339 30 339 30 319 46 c 128
 299 62 299 62 285 74 c 128
 271 86 271 86 261 79 c 257
 241 67 241 67 215.5 50.5 c 128
 190 34 190 34 165.5 20.5 c 128
 141 7 141 7 120 1.5 c 128
 99 -4 99 -4 89 4 c 257
 60 29 60 29 44 61 c 128
 28 93 28 93 23 129 c 128
 18 165 18 165 25 203 c 128
 32 241 32 241 50 276 c 257
 71 315 71 315 103.5 348.5 c 128
 136 382 136 382 179 404 c 257
 220 427 220 427 265 433 c 128
 310 439 310 439 351 437.5 c 128
 392 436 392 436 424.5 430.5 c 128
 457 425 457 425 473 424 c 257
 467 411 467 411 461.5 398 c 128
 456 385 456 385 452 375 c 257
 446 364 446 364 442 352 c 257
 430 354 430 354 404.5 359 c 128
 379 364 379 364 347 365.5 c 128
 315 367 315 367 281 362 c 128
 247 357 247 357 216 342 c 257
 200 333 200 333 178.5 316 c 128
 157 299 157 299 140 275 c 257
 124 252 124 252 113.5 225 c 128
 103 198 103 198 101 172.5 c 128
 99 147 99 147 108 126.5 c 128
 117 106 117 106 138 96 c 257
 152 92 152 92 177.5 106 c 128
 203 120 203 120 229 137 c 257
 260 158 260 158 294 185 c 257
 308 156 308 156 327 132.5 c 128
 346 109 346 109 366.5 92.5 c 128
 387 76 387 76 406.5 67 c 128
 426 58 426 58 442 58 c 257
 459 58 459 58 468 60.5 c 128
 477 63 477 63 482 67 c 257
 487 71 487 71 489 75 c 257
 477 70 477 70 461 70.5 c 128
 445 71 445 71 428.5 76 c 128
 412 81 412 81 396.5 90 c 128
 381 99 381 99 372 113 c 257
 354 137 354 137 354 159 c 128
 354 181 354 181 364 199 c 128
 374 217 374 217 388.5 229.5 c 128
 403 242 403 242 418 246 c 257
 425 247 425 247 441.5 249.5 c 128
 458 252 458 252 477.5 247.5 c 128
 497 243 497 243 517 226.5 c 128
 537 210 537 210 551 174 c 257
495 113 m 257
 504 120 504 120 502.5 138 c 128
 501 156 501 156 490.5 171.5 c 128
 480 187 480 187 462.5 196.5 c 128
 445 206 445 206 421 197 c 257
 409 184 409 184 416 167.5 c 128
 423 151 423 151 438 136.5 c 128
 453 122 453 122 469.5 114 c 128
 486 106 486 106 495 113 c 257
EndSplineSet
PickledDataWithLists: "(dp1
S'com.adobe.type.autohint'
p2
(S'data'
S'<data>\\n  <hintSetList>\\n    <hintset pointTag=\"hr00\">\\n      <hstem pos=\"0\" width=\"58\"/>\\n      <hstem pos=\"259\" width=\"59\"/>\\n      <hstem pos=\"557\" width=\"-20\"/>\\n    </hintset>\\n  </hintSetList>\\n  </data>'
Ntp3
s."
EndChar

StartChar: U0C0A
Encoding: 39 3082 39
GlifName: U0C0A_
Width: 846
VWidth: 0
Flags: W
LayerCount: 2
Back
Fore
SplineSet
641 317 m 257
 660 316 660 316 681 307.5 c 128
 702 299 702 299 718 283.5 c 128
 734 268 734 268 741.5 247.5 c 128
 749 227 749 227 739 203 c 257
 730 179 730 179 709.5 156 c 128
 689 133 689 133 665 122.5 c 128
 641 112 641 112 617 120.5 c 128
 593 129 593 129 575 170 c 257
 569 183 569 183 571.5 199 c 128
 574 215 574 215 581 229 c 257
 588 246 588 246 599 262 c 257
 0 256 l 257
 0 317 l 257
 197 318 197 318 323 318 c 257
 376 318 376 318 429 318 c 128
 482 318 482 318 526 318 c 128
 570 318 570 318 601 317.5 c 128
 632 317 632 317 641 317 c 257
700 189 m 257
 707 200 707 200 697 214.5 c 128
 687 229 687 229 673 241.5 c 128
 659 254 659 254 646 259.5 c 128
 633 265 633 265 632 258 c 257
 623 228 623 228 630.5 209.5 c 128
 638 191 638 191 652 183 c 128
 666 175 666 175 680.5 176.5 c 128
 695 178 695 178 700 189 c 257
654 295 m 257
 649 293 649 293 642 293 c 257
 636 293 636 293 628 296 c 128
 620 299 620 299 611 307 c 257
 616 317 616 317 623.5 330 c 128
 631 343 631 343 635.5 355 c 128
 640 367 640 367 640 376.5 c 128
 640 386 640 386 632 389 c 257
 624 393 624 393 616.5 388.5 c 128
 609 384 609 384 604 377 c 257
 598 369 598 369 592 356 c 257
 583 357 583 357 573 361 c 257
 565 365 565 365 556 370 c 128
 547 375 547 375 540 383 c 257
 545 395 545 395 560 406.5 c 128
 575 418 575 418 594.5 425.5 c 128
 614 433 614 433 633 434.5 c 128
 652 436 652 436 665 429 c 257
 677 421 677 421 677 399.5 c 128
 677 378 677 378 672 354 c 257
 666 328 666 328 654 295 c 257
250 450 m 257
 229 549 l 257
 303 551 l 257
 282 451 l 257
 250 450 l 257
358 456 m 257
 338 551 l 257
 412 553 l 257
NamedP: "hr01"
 390 457 l 257
 358 456 l 257
551 174 m 257
 564 140 564 140 560 109 c 128
 556 78 556 78 539 53.5 c 128
 522 29 522 29 493.5 14.5 c 128
 465 0 465 0 428 0 c 257
 392 0 392 0 365.5 15 c 128
 339 30 339 30 319 46 c 128
 299 62 299 62 285 74 c 128
 271 86 271 86 261 79 c 257
 241 67 241 67 215.5 50.5 c 128
 190 34 190 34 165.5 20.5 c 128
 141 7 141 7 120 1.5 c 128
 99 -4 99 -4 89 4 c 257
 60 29 60 29 44 61 c 128
 28 93 28 93 23 129 c 128
 18 165 18 165 25 203 c 128
 32 241 32 241 50 276 c 257
 71 315 71 315 103.5 348.5 c 128
 136 382 136 382 179 404 c 257
 220 427 220 427 265 433 c 128
 310 439 310 439 351 437.5 c 128
 392 436 392 436 424.5 430.5 c 128
 457 425 457 425 473 424 c 257
 467 411 467 411 461.5 398 c 128
 456 385 456 385 452 375 c 257
 446 364 446 364 442 352 c 257
 430 354 430 354 404.5 359 c 128
 379 364 379 364 347 365.5 c 128
 315 367 315 367 281 362 c 128
 247 357 247 357 216 342 c 257
 200 333 200 333 178.5 316 c 128
 157 299 157 299 140 275 c 257
 124 252 124 252 113.5 225 c 128
 103 198 103 198 101 172.5 c 128
 99 147 99 147 108 126.5 c 128
 117 106 117 106 138 96 c 257
 152 92 152 92 177.5 106 c 128
 203 120 203 120 229 137 c 257
 260 158 260 158 294 185 c 257
 308 156 308 156 327 132.5 c 128
 346 109 346 109 366.5 92.5 c 128
 387 76 387 76 406.5 67 c 128
 426 58 426 58 442 58 c 257
 459 58 459 58 468 60.5 c 128
 477 63 477 63 482 67 c 257
 487 71 487 71 489 75 c 257
 477 70 477 70 461 70.5 c 128
 445 71 445 71 428.5 76 c 128
 412 81 412 81 396.5 90 c 128
 381 99 381 99 372 113 c 257
 354 137 354 137 354 159 c 128
 354 181 354 181 364 199 c 128
 374 217 374 217 388.5 229.5 c 128
 403 242 403 242 418 246 c 257
 425 247 425 247 441.5 249.5 c 128
 458 252 458 252 477.5 247.5 c 128
 497 243 497 243 517 226.5 c 128
 537 210 537 210 551 174 c 257
495 113 m 257
 504 120 504 120 502.5 138 c 128
 501 156 501 156 490.5 171.5 c 128
 480 187 480 187 462.5 196.5 c 128
 445 206 445 206 421 197 c 257
 409 184 409 184 416 167.5 c 128
 423 151 423 151 438 136.5 c 128
 453 122 453 122 469.5 114 c 128
 486 106 486 106 495 113 c 257
EndSplineSet
PickledDataWithLists: "(dp1
S'com.adobe.type.autohint'
p2
(S'data'
S'<data>\\n  <hintSetList>\\n    <hintset pointTag=\"hr01\">\\n      <hstem pos=\"0\" width=\"58\"/>\\n      <hstem pos=\"259\" width=\"59\"/>\\n      <hstem pos=\"456\" width=\"96\"/>\\n    </hintset>\\n  </hintSetList>\\n  </data>'
Ntp3
s."
EndChar

StartChar: U0C0B
Encoding: 40 3083 40
GlifName: U0C0B_
Width: 1125
VWidth: 0
Flags: W
LayerCount: 2
Back
Fore
SplineSet
444 438 m 257
 481 408 481 408 509 374 c 257
 532 345 532 345 551 310.5 c 128
 570 276 570 276 568 245 c 257
 566 219 566 219 555 182.5 c 128
 544 146 544 146 522.5 110 c 128
 501 74 501 74 468.5 43.5 c 128
 436 13 436 13 390 0 c 257
 370 7 370 7 351 21 c 128
 332 35 332 35 314.5 47.5 c 128
 297 60 297 60 280.5 69.5 c 128
 264 79 264 79 248 76 c 257
 237 75 237 75 206 62.5 c 128
 175 50 175 50 139.5 36.5 c 128
 104 23 104 23 71.5 11.5 c 128
 39 0 39 0 24 0 c 257
 15 3 15 3 6.5 23.5 c 128
 -2 44 -2 44 1.5 75 c 128
 5 106 5 106 27.5 144.5 c 128
 50 183 50 183 104 222 c 257
 93 220 93 220 77 223.5 c 128
 61 227 61 227 46 236 c 128
 31 245 31 245 18 257.5 c 128
 5 270 5 270 0 287.5 c 128
 -5 305 -5 305 1 326.5 c 128
 7 348 7 348 30 374 c 257
 66 416 66 416 108.5 429 c 128
 151 442 151 442 188 435.5 c 128
 225 429 225 429 251.5 408 c 128
 278 387 278 387 282 360 c 257
 284 324 284 324 268.5 298.5 c 128
 253 273 253 273 231.5 256 c 128
 210 239 210 239 188 227 c 128
 166 215 166 215 155 206 c 257
 128 184 128 184 115.5 163 c 128
 103 142 103 142 101.5 127.5 c 128
 100 113 100 113 109 106 c 128
 118 99 118 99 134 105 c 257
 171 118 171 118 197.5 136.5 c 128
 224 155 224 155 241 170 c 128
 258 185 258 185 266.5 194.5 c 128
 275 204 275 204 278 199 c 257
 281 195 281 195 291.5 174 c 128
 302 153 302 153 318.5 131 c 128
 335 109 335 109 353.5 93 c 128
 372 77 372 77 390 83 c 257
 396 84 396 84 412 96.5 c 128
 428 109 428 109 443 130.5 c 128
 458 152 458 152 466.5 181 c 128
 475 210 475 210 469 245 c 257
 461 278 461 278 441 310 c 128
 421 342 421 342 399 368.5 c 128
 377 395 377 395 358 413.5 c 128
 339 432 339 432 332 438 c 257
 444 438 l 257
88 381 m 257
 74 358 74 358 82.5 337 c 128
 91 316 91 316 109.5 302.5 c 128
 128 289 128 289 149 285 c 128
 170 281 170 281 181 291 c 257
 194 323 194 323 182 343.5 c 128
 170 364 170 364 150.5 374 c 128
 131 384 131 384 111.5 385.5 c 128
 92 387 92 387 88 381 c 257
570 438 m 257
 714 438 l 257
 756 368 756 368 769 293 c 257
 774 261 774 261 774 225 c 128
 774 189 774 189 764 151.5 c 128
 754 114 754 114 731.5 75 c 128
 709 36 709 36 670 -1 c 257
 654 10 654 10 635 16.5 c 128
 616 23 616 23 597.5 26 c 128
 579 29 579 29 562.5 29.5 c 128
 546 30 546 30 537 30 c 257
 511 28 511 28 488 25 c 128
 465 22 465 22 447 17 c 257
 427 13 427 13 409 7 c 257
 425 27 425 27 440 47 c 257
 454 65 454 65 468.5 85 c 128
 483 105 483 105 497 125 c 257
 505 123 505 123 520.5 118 c 128
 536 113 536 113 552 106 c 128
 568 99 568 99 583 92 c 128
 598 85 598 85 607 80 c 257
 630 89 630 89 653 119.5 c 128
 676 150 676 150 681 197 c 128
 686 244 686 244 663 306 c 128
 640 368 640 368 570 438 c 257
827 438 m 257
 971 438 l 257
 1013 368 1013 368 1026 293 c 257
 1031 261 1031 261 1031 225 c 128
 1031 189 1031 189 1021 151.5 c 128
 1011 114 1011 114 988.5 75 c 128
 966 36 966 36 927 -1 c 257
 911 10 911 10 892 16.5 c 128
 873 23 873 23 854.5 26 c 128
 836 29 836 29 819.5 29.5 c 128
 803 30 803 30 794 30 c 257
 768 28 768 28 745 25 c 128
 722 22 722 22 705 17 c 257
 684 13 684 13 666 7 c 257
 679 27 679 27 693 47 c 257
NamedP: "hr01"
 705 65 705 65 719 85 c 128
 733 105 733 105 745 126 c 257
 753 125 753 125 768 121 c 128
 783 117 783 117 800.5 110 c 128
 818 103 818 103 835.5 95 c 128
 853 87 853 87 864 80 c 257
 887 89 887 89 910 119.5 c 128
 933 150 933 150 938 197 c 128
 943 244 943 244 920 306 c 128
 897 368 897 368 827 438 c 257
EndSplineSet
PickledDataWithLists: "(dp1
S'com.adobe.type.autohint'
p2
(S'data'
S'<data>\\n  <hintSetList>\\n    <hintset pointTag=\"hr01\">\\n      <hstem pos=\"0\" width=\"-20\"/>\\n    </hintset>\\n  </hintSetList>\\n  </data>'
Ntp3
s."
EndChar

StartChar: U0C0C
Encoding: 41 3084 41
GlifName: U0C0C_
Width: 768
VWidth: 0
Flags: W
LayerCount: 2
Back
Fore
SplineSet
586 272 m 257
 612 270 612 270 627 264 c 128
 642 258 642 258 649 251 c 257
 657 243 657 243 658 232 c 257
 650 180 650 180 631 138 c 128
 612 96 612 96 585.5 65 c 128
 559 34 559 34 527 13 c 128
 495 -8 495 -8 462 -19 c 257
 459 -22 459 -22 431 -27 c 128
 403 -32 403 -32 349 -24 c 257
 334 -22 334 -22 310 -12.5 c 128
 286 -3 286 -3 259 12 c 128
 232 27 232 27 208.5 46 c 128
 185 65 185 65 172.5 86.5 c 128
 160 108 160 108 162 130.5 c 128
 164 153 164 153 189 174 c 257
 218 200 218 200 252.5 209.5 c 128
 287 219 287 219 321.5 225 c 128
 356 231 356 231 388.5 241.5 c 128
 421 252 421 252 445 279 c 257
 454 290 454 290 453.5 304.5 c 128
 453 319 453 319 447 334 c 128
 441 349 441 349 431.5 362.5 c 128
 422 376 422 376 413 383 c 257
 402 390 402 390 390 394.5 c 128
 378 399 378 399 365.5 399 c 128
 353 399 353 399 342 394.5 c 128
 331 390 331 390 324 380 c 257
 319 374 319 374 316 362 c 128
 313 350 313 350 310 339 c 257
 306 326 306 326 304 311 c 257
 236 311 l 257
 240 334 240 334 240 352 c 257
 240 369 240 369 236.5 385 c 128
 233 401 233 401 222 410 c 257
 211 418 211 418 187 421.5 c 128
 163 425 163 425 141 422 c 128
 119 419 119 419 105 407 c 128
 91 395 91 395 101 374 c 257
 109 356 109 356 117 345 c 128
 125 334 125 334 133 327 c 257
 142 318 142 318 151 314 c 257
 81 259 l 257
 50 288 50 288 31 315 c 257
 13 339 13 339 3.5 365.5 c 128
 -6 392 -6 392 6 413 c 257
 13 427 13 427 32 442.5 c 128
 51 458 51 458 75.5 471.5 c 128
 100 485 100 485 127.5 496.5 c 128
 155 508 155 508 178 514 c 128
 201 520 201 520 217.5 520.5 c 128
 234 521 234 521 239 514 c 257
 245 503 245 503 250 488 c 128
 255 473 255 473 259 459 c 257
 263 442 263 442 268 426 c 257
 283 447 283 447 301 463 c 257
 316 476 316 476 336 485.5 c 128
 356 495 356 495 380 488 c 257
 431 475 431 475 464 458.5 c 128
 497 442 497 442 515.5 421.5 c 128
 534 401 534 401 540.5 375 c 128
 547 349 547 349 547 317 c 257
 547 284 547 284 527 255 c 128
 507 226 507 226 473.5 204.5 c 128
 440 183 440 183 398.5 169.5 c 128
 357 156 357 156 314 151 c 257
 291 142 291 142 282 134.5 c 128
 273 127 273 127 274 119 c 128
 275 111 275 111 283 101 c 128
 291 91 291 91 301 79 c 257
 315 62 315 62 339.5 56 c 128
 364 50 364 50 389.5 51.5 c 128
 415 53 415 53 439 61.5 c 128
 463 70 463 70 478 82 c 257
 515 114 515 114 536 147.5 c 128
 557 181 557 181 568 209 c 257
 581 242 581 242 586 272 c 257
EndSplineSet
EndChar

StartChar: U0C0E
Encoding: 42 3086 42
GlifName: U0C0E_
Width: 566
VWidth: 0
Flags: W
LayerCount: 2
Back
Fore
SplineSet
344 439 m 257
NamedP: "hr00"
 379 407 379 407 407 374 c 257
 430 346 430 346 449.5 313.5 c 128
 469 281 469 281 469 253 c 257
 469 225 469 225 453 182.5 c 128
 437 140 437 140 418 99 c 257
 395 51 395 51 368 0 c 257
 348 9 348 9 329 16 c 257
 311 23 311 23 290 27 c 128
 269 31 269 31 250 30 c 257
 236 30 236 30 219.5 25 c 128
 203 20 203 20 187 14.5 c 128
 171 9 171 9 157 4.5 c 128
 143 0 143 0 135 0 c 257
 128 0 128 0 111.5 3.5 c 128
 95 7 95 7 76.5 14.5 c 128
 58 22 58 22 40.5 34 c 128
 23 46 23 46 12 62.5 c 128
 1 79 1 79 0.5 101 c 128
 0 123 0 123 16 151 c 257
 42 194 42 194 78 212 c 128
 114 230 114 230 147.5 232 c 128
 181 234 181 234 207 225 c 128
 233 216 233 216 240 204 c 257
 246 191 246 191 250.5 176.5 c 128
 255 162 255 162 259 148 c 257
 263 133 263 133 266 118 c 257
 272 103 272 103 282 94 c 257
 290 86 290 86 300.5 81.5 c 128
 311 77 311 77 328 85 c 257
 340 91 340 91 349 119 c 128
 358 147 358 147 360 184 c 128
 362 221 362 221 356 259.5 c 128
 350 298 350 298 332 325 c 257
 313 348 313 348 289 368 c 128
 265 388 265 388 244 402 c 257
 218 420 218 420 194 433 c 257
 344 439 l 257
NamedP: "hr00"
164 62 m 257
 173 73 173 73 177.5 92 c 128
 182 111 182 111 178 130.5 c 128
 174 150 174 150 158.5 166 c 128
 143 182 143 182 112 187 c 257
 102 188 102 188 95.5 171.5 c 128
 89 155 89 155 92.5 132.5 c 128
 96 110 96 110 112 89.5 c 128
 128 69 128 69 164 62 c 257
EndSplineSet
PickledDataWithLists: "(dp1
S'com.adobe.type.autohint'
p2
(S'data'
S'<data>\\n  <hintSetList>\\n    <hintset pointTag=\"hr00\">\\n      <hstem pos=\"21\" width=\"-21\"/>\\n      <hstem pos=\"439\" width=\"-20\"/>\\n    </hintset>\\n  </hintSetList>\\n  </data>'
Ntp3
s."
EndChar

StartChar: U0C0F
Encoding: 43 3087 43
GlifName: U0C0F_
Width: 625
VWidth: 0
Flags: W
LayerCount: 2
Back
Fore
SplineSet
406 433 m 257
NamedP: "hr00"
 423 402 423 402 436 371 c 257
 447 344 447 344 457 312.5 c 128
 467 281 467 281 467 253 c 257
 467 225 467 225 451 182.5 c 128
 435 140 435 140 416 99 c 257
 393 51 393 51 366 0 c 257
 346 9 346 9 327 16 c 257
 309 23 309 23 288 27 c 128
 267 31 267 31 248 30 c 257
 234 30 234 30 218 25 c 128
 202 20 202 20 186 14.5 c 128
 170 9 170 9 156.5 4.5 c 128
 143 0 143 0 136 0 c 257
 128 0 128 0 111 3.5 c 128
 94 7 94 7 75.5 14.5 c 128
 57 22 57 22 38.5 34 c 128
 20 46 20 46 10 62.5 c 128
 0 79 0 79 -0.5 101 c 128
 -1 123 -1 123 15 151 c 257
 41 194 41 194 77 212 c 128
 113 230 113 230 146.5 232 c 128
 180 234 180 234 205.5 225 c 128
 231 216 231 216 238 204 c 257
 244 191 244 191 248.5 176.5 c 128
 253 162 253 162 257 148 c 257
 261 133 261 133 264 118 c 257
 271 103 271 103 281 94 c 257
 289 86 289 86 300 81.5 c 128
 311 77 311 77 327 85 c 257
 339 91 339 91 351.5 121 c 128
 364 151 364 151 370 188.5 c 128
 376 226 376 226 372.5 265.5 c 128
 369 305 369 305 349 331 c 257
 332 355 332 355 315.5 373 c 128
 299 391 299 391 285 402 c 257
 268 416 268 416 254 426 c 257
 406 433 l 257
NamedP: "hr00"
163 62 m 257
 171 73 171 73 176 92 c 128
 181 111 181 111 177.5 130.5 c 128
 174 150 174 150 159 166 c 128
 144 182 144 182 114 187 c 257
 102 188 102 188 95 171.5 c 128
 88 155 88 155 91 132.5 c 128
 94 110 94 110 110.5 89.5 c 128
 127 69 127 69 163 62 c 257
61 338 m 257
 59 352 59 352 60 370 c 128
 61 388 61 388 68.5 407.5 c 128
 76 427 76 427 90 448.5 c 128
 104 470 104 470 130 492 c 257
 142 502 142 502 159.5 509 c 128
 177 516 177 516 196.5 520.5 c 128
 216 525 216 525 237 527 c 128
 258 529 258 529 278 530 c 257
 324 532 324 532 373 527 c 257
 373 482 l 257
 338 484 338 484 306 484 c 257
 280 484 280 484 251 481.5 c 128
 222 479 222 479 205 472 c 257
 182 464 182 464 175 444.5 c 128
 168 425 168 425 167 404 c 257
 166 381 166 381 172 354 c 257
 61 338 l 257
EndSplineSet
PickledDataWithLists: "(dp1
S'com.adobe.type.autohint'
p2
(S'data'
S'<data>\\n  <hintSetList>\\n    <hintset pointTag=\"hr00\">\\n      <hstem pos=\"21\" width=\"-21\"/>\\n      <hstem pos=\"484\" width=\"46\"/>\\n    </hintset>\\n  </hintSetList>\\n  </data>'
Ntp3
s."
EndChar

StartChar: U0C10
Encoding: 44 3088 44
GlifName: U0C10_
Width: 671
VWidth: 0
Flags: W
LayerCount: 2
Back
Fore
SplineSet
377 501 m 257
 432 497 432 497 468 480 c 128
 504 463 504 463 526 438 c 128
 548 413 548 413 557 381.5 c 128
 566 350 566 350 568 318 c 257
 572 244 572 244 539 152 c 257
 527 124 527 124 510 95.5 c 128
 493 67 493 67 475.5 43.5 c 128
 458 20 458 20 441.5 8 c 128
 425 -4 425 -4 416 2 c 257
 384 20 384 20 357 24 c 128
 330 28 330 28 304.5 23.5 c 128
 279 19 279 19 252.5 11.5 c 128
 226 4 226 4 197 1 c 257
 139 -9 139 -9 105 2 c 128
 71 13 71 13 53.5 37 c 128
 36 61 36 61 33.5 92.5 c 128
 31 124 31 124 37 153 c 128
 43 182 43 182 55.5 205 c 128
 68 228 68 228 81 234 c 257
 126 256 126 256 154 260 c 128
 182 264 182 264 200 256.5 c 128
 218 249 218 249 229 232.5 c 128
 240 216 240 216 249.5 197 c 128
 259 178 259 178 271.5 158.5 c 128
 284 139 284 139 305 126 c 257
 338 104 338 104 362.5 100.5 c 128
 387 97 387 97 405.5 105.5 c 128
 424 114 424 114 436.5 130.5 c 128
 449 147 449 147 457 169 c 257
 475 218 475 218 477 296 c 257
 477 360 477 360 451.5 387.5 c 128
 426 415 426 415 387 413 c 257
 359 411 359 411 345.5 397.5 c 128
 332 384 332 384 326 368 c 257
 318 349 318 349 318 325 c 257
 232 325 l 257
 231 331 231 331 231 336 c 257
 230 341 230 341 230 345.5 c 128
 230 350 230 350 229 354 c 257
 226 370 226 370 216 386.5 c 128
 206 403 206 403 190.5 415.5 c 128
 175 428 175 428 156.5 433 c 128
 138 438 138 438 120 430 c 257
 98 420 98 420 94 398.5 c 128
 90 377 90 377 93 354 c 257
 97 328 97 328 110 298 c 257
NamedP: "hr01"
 13 298 l 257
 -5 331 -5 331 2 366.5 c 128
 9 402 9 402 30 431.5 c 128
 51 461 51 461 81 480.5 c 128
 111 500 111 500 138 501 c 257
 171 502 171 502 196 491 c 128
 221 480 221 480 239 466 c 257
 258 450 258 450 272 429 c 257
 275 437 275 437 285.5 449.5 c 128
 296 462 296 462 311 473 c 128
 326 484 326 484 342.5 492.5 c 128
 359 501 359 501 377 501 c 257
206 68 m 257
 212 95 212 95 212 115.5 c 128
 212 136 212 136 206.5 151 c 128
 201 166 201 166 191.5 175 c 128
 182 184 182 184 172 189 c 257
 146 202 146 202 111 199 c 257
 93 168 93 168 101.5 139 c 128
 110 110 110 110 128.5 89.5 c 128
 147 69 147 69 170.5 61.5 c 128
 194 54 194 54 206 68 c 257
EndSplineSet
PickledDataWithLists: "(dp1
S'com.adobe.type.autohint'
p2
(S'data'
S'<data>\\n  <hintSetList>\\n    <hintset pointTag=\"hr01\">\\n      <hstem pos=\"298\" width=\"203\"/>\\n      <vstem pos=\"477\" width=\"91\"/>\\n    </hintset>\\n  </hintSetList>\\n  </data>'
Ntp3
s."
EndChar

StartChar: U0C12
Encoding: 45 3090 45
GlifName: U0C12_
Width: 652
VWidth: 0
Flags: W
LayerCount: 2
Back
Fore
SplineSet
549 255 m 257
 553 204 553 204 547 161 c 257
 542 123 542 123 525.5 87 c 128
 509 51 509 51 473 35 c 257
 441 22 441 22 407 11 c 128
 373 0 373 0 336 0.5 c 128
 299 1 299 1 260.5 16.5 c 128
 222 32 222 32 181 72 c 257
 166 72 166 72 140.5 60 c 128
 115 48 115 48 89 33.5 c 128
 63 19 63 19 44 7.5 c 128
 25 -4 25 -4 20 -4 c 257
 17 -5 17 -5 11.5 13.5 c 128
 6 32 6 32 3 59 c 128
 0 86 0 86 1.5 117 c 128
 3 148 3 148 14 173 c 257
 26 200 26 200 50.5 218.5 c 128
 75 237 75 237 99 248 c 257
 128 260 128 260 162 268 c 257
 113 268 113 268 77 280 c 257
 61 285 61 285 46.5 292.5 c 128
 32 300 32 300 21.5 312 c 128
 11 324 11 324 6 340 c 128
 1 356 1 356 4 379 c 257
 8 410 8 410 27 432 c 128
 46 454 46 454 72 467 c 128
 98 480 98 480 128.5 487.5 c 128
 159 495 159 495 186 497 c 128
 213 499 213 499 233.5 497 c 128
 254 495 254 495 260 490 c 257
 283 476 283 476 289 452 c 128
 295 428 295 428 290 379 c 257
 287 330 287 330 265 301 c 128
 243 272 243 272 214.5 254.5 c 128
 186 237 186 237 157.5 224.5 c 128
 129 212 129 212 113 196 c 257
 101 186 101 186 96.5 173.5 c 128
 92 161 92 161 92.5 150 c 128
 93 139 93 139 97.5 131.5 c 128
 102 124 102 124 110 124 c 257
 117 124 117 124 134.5 133.5 c 128
 152 143 152 143 171 155.5 c 128
 190 168 190 168 207 178 c 128
 224 188 224 188 230 189 c 257
 236 191 236 191 244 185 c 128
 252 179 252 179 261.5 168.5 c 128
 271 158 271 158 282 144.5 c 128
 293 131 293 131 303 121 c 257
 312 110 312 110 326.5 96 c 128
 341 82 341 82 358.5 72.5 c 128
 376 63 376 63 396 61 c 128
 416 59 416 59 437 72 c 257
 449 79 449 79 455 103.5 c 128
 461 128 461 128 458.5 157 c 128
 456 186 456 186 442.5 214 c 128
 429 242 429 242 401 255 c 257
 549 255 l 257
102 350 m 257
 106 335 106 335 121 326.5 c 128
 136 318 136 318 154 313 c 257
 173 308 173 308 198 307 c 257
 202 318 202 318 204 331 c 257
 206 342 206 342 206 357 c 128
 206 372 206 372 201 389 c 257
 196 408 196 408 182 415.5 c 128
 168 423 168 423 154 425 c 257
 136 428 136 428 116 425 c 257
 106 421 106 421 102 411 c 257
 98 402 98 402 97 388 c 128
 96 374 96 374 102 350 c 257
EndSplineSet
EndChar

StartChar: U0C13
Encoding: 46 3091 46
GlifName: U0C13_
Width: 652
VWidth: 0
Flags: W
LayerCount: 2
Back
Fore
SplineSet
549 256 m 257
NamedP: "hr00"
 553 205 553 205 547 162 c 257
 542 124 542 124 525.5 88 c 128
 509 52 509 52 473 36 c 257
 441 23 441 23 407 12 c 128
 373 1 373 1 336 1 c 128
 299 1 299 1 259.5 17 c 128
 220 33 220 33 178 72 c 257
 164 72 164 72 139 60 c 128
 114 48 114 48 88.5 34 c 128
 63 20 63 20 44 8.5 c 128
 25 -3 25 -3 22 -3 c 257
 17 -4 17 -4 11.5 14.5 c 128
 6 33 6 33 2.5 60 c 128
 -1 87 -1 87 0 118.5 c 128
 1 150 1 150 11 174 c 257
 24 201 24 201 48.5 219 c 128
 73 237 73 237 98 248 c 257
 128 260 128 260 162 268 c 257
 113 268 113 268 77 280 c 257
 61 285 61 285 47 292.5 c 128
 33 300 33 300 22.5 312.5 c 128
 12 325 12 325 7 341 c 128
 2 357 2 357 5 380 c 257
 9 411 9 411 27.5 433 c 128
 46 455 46 455 71.5 468 c 128
 97 481 97 481 127.5 488.5 c 128
 158 496 158 496 184.5 498 c 128
 211 500 211 500 232 498 c 128
 253 496 253 496 260 492 c 257
 283 477 283 477 287.5 453 c 128
 292 429 292 429 290 380 c 257
 286 331 286 331 264 302 c 128
 242 273 242 273 213.5 255.5 c 128
 185 238 185 238 157 225.5 c 128
 129 213 129 213 113 197 c 257
 101 186 101 186 96.5 174 c 128
 92 162 92 162 92.5 151 c 128
 93 140 93 140 97.5 132.5 c 128
 102 125 102 125 110 125 c 257
 117 125 117 125 134.5 134.5 c 128
 152 144 152 144 171 156 c 128
 190 168 190 168 207 178 c 128
 224 188 224 188 230 190 c 257
 236 193 236 193 244 186.5 c 128
 252 180 252 180 261.5 169.5 c 128
 271 159 271 159 282 145.5 c 128
 293 132 293 132 303 121 c 257
 311 110 311 110 325 96.5 c 128
 339 83 339 83 356.5 73 c 128
 374 63 374 63 394.5 61 c 128
 415 59 415 59 437 72 c 257
 449 79 449 79 454.5 103.5 c 128
 460 128 460 128 457.5 157 c 128
 455 186 455 186 441.5 214 c 128
 428 242 428 242 401 256 c 257
 549 256 l 257
NamedP: "hr00"
103 350 m 257
 106 336 106 336 121 327 c 128
 136 318 136 318 154 314 c 257
 173 309 173 309 198 308 c 257
 201 319 201 319 204 332 c 257
 206 343 206 343 206.5 358 c 128
 207 373 207 373 202 390 c 257
 197 409 197 409 182.5 416.5 c 128
 168 424 168 424 154 426 c 257
 136 429 136 429 116 426 c 257
 108 422 108 422 103 412 c 257
 99 403 99 403 98 388.5 c 128
 97 374 97 374 103 350 c 257
309 495 m 257
 314 507 314 507 312.5 528 c 128
 311 549 311 549 303.5 568.5 c 128
 296 588 296 588 281 601.5 c 128
 266 615 266 615 244 612 c 257
 209 606 209 606 203 585.5 c 128
 197 565 197 565 203 544 c 257
 210 518 210 518 230 488 c 257
 218 487 218 487 205 486 c 257
 193 485 193 485 177 485 c 128
 161 485 161 485 142 485 c 257
 135 492 135 492 130 506 c 128
 125 520 125 520 123.5 537.5 c 128
 122 555 122 555 127 574 c 128
 132 593 132 593 146 609.5 c 128
 160 626 160 626 184 636.5 c 128
 208 647 208 647 247 649 c 257
 275 650 275 650 296.5 644.5 c 128
 318 639 318 639 333 628.5 c 128
 348 618 348 618 358 604.5 c 128
 368 591 368 591 374 577 c 257
 387 543 387 543 385 498 c 257
 309 495 l 257
EndSplineSet
PickledDataWithLists: "(dp1
S'com.adobe.type.autohint'
p2
(S'data'
S'<data>\\n  <hintSetList>\\n    <hintset pointTag=\"hr00\">\\n      <hstem pos=\"485\" width=\"164\"/>\\n    </hintset>\\n  </hintSetList>\\n  </data>'
Ntp3
s."
EndChar

StartChar: U0C14
Encoding: 47 3092 47
GlifName: U0C14_
Width: 730
VWidth: 0
Flags: W
LayerCount: 2
Back
Fore
SplineSet
552 255 m 257
 555 204 555 204 548 161 c 257
 542 123 542 123 525.5 87 c 128
 509 51 509 51 473 35 c 257
 442 22 442 22 408 11 c 128
 374 0 374 0 337 0 c 128
 300 0 300 0 261 16 c 128
 222 32 222 32 181 71 c 257
 165 71 165 71 139.5 59.5 c 128
 114 48 114 48 88.5 34 c 128
 63 20 63 20 44 8.5 c 128
 25 -3 25 -3 20 -4 c 257
 17 -5 17 -5 11.5 13.5 c 128
 6 32 6 32 3 59 c 128
 0 86 0 86 1.5 117 c 128
 3 148 3 148 14 173 c 257
 27 200 27 200 51.5 218 c 128
 76 236 76 236 100 247 c 257
 129 259 129 259 162 267 c 257
 113 267 113 267 77 279 c 257
 61 284 61 284 46.5 291.5 c 128
 32 299 32 299 21.5 311.5 c 128
 11 324 11 324 6 340 c 128
 1 356 1 356 4 379 c 257
 8 410 8 410 27 432 c 128
 46 454 46 454 72 467 c 128
 98 480 98 480 128.5 487.5 c 128
 159 495 159 495 186 497 c 128
 213 499 213 499 233.5 497 c 128
 254 495 254 495 260 490 c 257
 283 476 283 476 289 452 c 128
 295 428 295 428 290 379 c 257
 288 346 288 346 277 322.5 c 128
 266 299 266 299 249.5 282.5 c 128
 233 266 233 266 214 254.5 c 128
 195 243 195 243 176 233 c 128
 157 223 157 223 140 214.5 c 128
 123 206 123 206 113 196 c 257
 102 185 102 185 97.5 173 c 128
 93 161 93 161 93 150 c 128
 93 139 93 139 97 131.5 c 128
 101 124 101 124 110 124 c 257
 118 124 118 124 136 133.5 c 128
 154 143 154 143 172.5 155 c 128
 191 167 191 167 207.5 177 c 128
 224 187 224 187 230 189 c 257
 237 191 237 191 245.5 185 c 128
 254 179 254 179 263.5 168.5 c 128
 273 158 273 158 283.5 144.5 c 128
 294 131 294 131 302 120 c 257
 312 109 312 109 326.5 95.5 c 128
 341 82 341 82 358.5 72 c 128
 376 62 376 62 396 60 c 128
 416 58 416 58 437 71 c 257
 450 78 450 78 456.5 102.5 c 128
 463 127 463 127 460.5 156 c 128
 458 185 458 185 444.5 213 c 128
 431 241 431 241 404 255 c 257
 552 255 l 257
102 349 m 257
 106 335 106 335 121 326 c 128
 136 317 136 317 154 313 c 257
 173 308 173 308 198 307 c 257
 203 318 203 318 206 331 c 257
 208 342 208 342 208.5 357 c 128
 209 372 209 372 204 389 c 257
 198 408 198 408 183.5 415.5 c 128
 169 423 169 423 155 425 c 257
 137 428 137 428 119 425 c 257
 110 421 110 421 104 411 c 257
 99 402 99 402 97.5 387.5 c 128
 96 373 96 373 102 349 c 257
224 468 m 257
 217 468 l 257
 224 468 l 257
515 657 m 257
 544 649 544 649 562.5 633 c 128
 581 617 581 617 592 599 c 128
 603 581 603 581 608.5 561 c 128
 614 541 614 541 617 523 c 257
 620 497 620 497 611.5 473 c 128
 603 449 603 449 587.5 432 c 128
 572 415 572 415 551.5 406.5 c 128
 531 398 531 398 509 402 c 257
 489 406 489 406 471 414.5 c 128
 453 423 453 423 437.5 435 c 128
 422 447 422 447 411.5 461.5 c 128
 401 476 401 476 397 490 c 257
 387 529 387 529 391 555 c 128
 395 581 395 581 408 595 c 257
 362 603 362 603 316.5 606.5 c 128
 271 610 271 610 237 615 c 257
 249 613 249 613 259.5 604.5 c 128
 270 596 270 596 278.5 582.5 c 128
 287 569 287 569 291.5 554.5 c 128
 296 540 296 540 296 526 c 257
 296 517 296 517 283.5 507 c 128
 271 497 271 497 256.5 488.5 c 128
 242 480 242 480 229.5 474.5 c 128
 217 469 217 469 217 468 c 257
 203 465 203 465 178.5 465 c 128
 154 465 154 465 125.5 466 c 128
 97 467 97 467 69.5 469.5 c 128
 42 472 42 472 20 474 c 257
 67 523 l 257
 85 522 85 522 97 521 c 128
 109 520 109 520 118 519.5 c 128
 127 519 127 519 135 519 c 128
 143 519 143 519 155 520 c 257
 159 520 159 520 165 520.5 c 128
 171 521 171 521 177 523 c 128
 183 525 183 525 187 528 c 128
 191 531 191 531 191 537 c 257
 194 566 194 566 176 582 c 128
 158 598 158 598 129.5 604 c 128
 101 610 101 610 67 609.5 c 128
 33 609 33 609 2 605 c 257
 0 626 0 626 -9 647.5 c 128
 -18 669 -18 669 -31 693 c 257
 -8 694 -8 694 35.5 693.5 c 128
 79 693 79 693 132 691 c 128
 185 689 185 689 243.5 685.5 c 128
 302 682 302 682 355 678 c 128
 408 674 408 674 451 669 c 128
 494 664 494 664 515 657 c 257
479 494 m 257
 493 480 493 480 507 478 c 128
 521 476 521 476 531.5 483 c 128
 542 490 542 490 546.5 504 c 128
 551 518 551 518 545 537 c 257
 540 551 540 551 522.5 566.5 c 128
 505 582 505 582 482 579 c 257
 475 578 475 578 468 570 c 128
 461 562 461 562 458 550 c 128
 455 538 455 538 459.5 523.5 c 128
 464 509 464 509 479 494 c 257
EndSplineSet
EndChar

StartChar: U0C15
Encoding: 48 3093 48
GlifName: U0C15_
Width: 463
VWidth: 0
Flags: W
AnchorPoint: "mark0" 264 -14 basechar 0
LayerCount: 2
Back
Fore
SplineSet
-3 367 m 257
NamedP: "hr00"
 -19 431 l 257
 334 604 l 257
 366 495 l 257
 -3 367 l 257
NamedP: "hr00"
372 455 m 257
 367 362 l 257
 305 349 305 349 254 336 c 257
 232 330 232 330 210 323.5 c 128
 188 317 188 317 170 310.5 c 128
 152 304 152 304 138.5 298 c 128
 125 292 125 292 120 286 c 257
 163 280 163 280 210 267.5 c 128
 257 255 257 255 296 238.5 c 128
 335 222 335 222 359.5 203.5 c 128
 384 185 384 185 382 167 c 257
 379 147 379 147 373.5 118.5 c 128
 368 90 368 90 352.5 64 c 128
 337 38 337 38 307.5 19 c 128
 278 0 278 0 227 0 c 257
 1 0 l 257
 0 133 l 257
 52 110 52 110 100 94 c 257
 121 88 121 88 142.5 82.5 c 128
 164 77 164 77 184 74 c 128
 204 71 204 71 222 72 c 128
 240 73 240 73 253 79 c 257
 288 94 288 94 292 116.5 c 128
 296 139 296 139 277.5 161.5 c 128
 259 184 259 184 222 203 c 128
 185 222 185 222 139 229 c 257
 123 232 123 232 101.5 235.5 c 128
 80 239 80 239 60 241 c 257
 38 244 38 244 14 246 c 257
 -2 322 l 257
 75 353 75 353 143 380 c 257
 172 391 172 391 202.5 403 c 128
 233 415 233 415 261.5 424.5 c 128
 290 434 290 434 314 441.5 c 128
 338 449 338 449 355 452 c 257
 372 455 l 257
EndSplineSet
PickledDataWithLists: "(dp1
S'com.adobe.type.autohint'
p2
(S'data'
S'<data>\\n  <hintSetList>\\n    <hintset pointTag=\"hr00\">\\n      <hstem pos=\"21\" width=\"-21\"/>\\n      <hstem pos=\"604\" width=\"-20\"/>\\n    </hintset>\\n  </hintSetList>\\n  </data>'
Ntp3
s."
EndChar

StartChar: U0C16
Encoding: 49 3094 49
GlifName: U0C16_
Width: 609
VWidth: 0
Flags: W
AnchorPoint: "mark0" 335 -137 basechar 0
LayerCount: 2
Back
Fore
SplineSet
223 30 m 257
NamedP: "hr00"
 273 31 l 257
 255 -76 l 257
 178 -79 l 257
 223 30 l 257
NamedP: "hr00"
464 438 m 257
 477 422 477 422 491 394 c 128
 505 366 505 366 514.5 330.5 c 128
 524 295 524 295 526 253.5 c 128
 528 212 528 212 517.5 169 c 128
 507 126 507 126 480 82.5 c 128
 453 39 453 39 403 0 c 257
 387 6 387 6 368 19.5 c 128
 349 33 349 33 328 43.5 c 128
 307 54 307 54 285 57.5 c 128
 263 61 263 61 242 48 c 257
 211 31 211 31 181 19 c 257
 156 9 156 9 127 3 c 128
 98 -3 98 -3 76 4 c 257
 53 10 53 10 38 21.5 c 128
 23 33 23 33 14 48 c 128
 5 63 5 63 2 81 c 128
 -1 99 -1 99 0 117 c 257
 1 134 1 134 22.5 150.5 c 128
 44 167 44 167 77.5 176 c 128
 111 185 111 185 152.5 183.5 c 128
 194 182 194 182 236 164 c 257
 241 176 241 176 241.5 191.5 c 128
 242 207 242 207 239 223.5 c 128
 236 240 236 240 229.5 254 c 128
 223 268 223 268 215 278 c 257
 189 256 189 256 165 241 c 257
 144 227 144 227 122.5 219.5 c 128
 101 212 101 212 87 221 c 257
 72 231 72 231 52 249 c 128
 32 267 32 267 17.5 288.5 c 128
 3 310 3 310 0.5 333 c 128
 -2 356 -2 356 18 376 c 257
 37 396 37 396 63 411 c 128
 89 426 89 426 115 432.5 c 128
 141 439 141 439 165 436.5 c 128
 189 434 189 434 205 419 c 257
 222 407 222 407 240 388 c 128
 258 369 258 369 272.5 345 c 128
 287 321 287 321 295.5 291.5 c 128
 304 262 304 262 303 230 c 257
 303 211 303 211 303 198.5 c 128
 303 186 303 186 302 176 c 128
 301 166 301 166 299.5 157 c 128
 298 148 298 148 295 137 c 257
 312 131 312 131 336.5 116 c 128
 361 101 361 101 387 80 c 257
 424 120 424 120 433 166 c 128
 442 212 442 212 431.5 259.5 c 128
 421 307 421 307 395 353 c 128
 369 399 369 399 334 438 c 257
 464 438 l 257
167 303 m 257
 179 312 179 312 174 326.5 c 128
 169 341 169 341 154 353.5 c 128
 139 366 139 366 118 372.5 c 128
 97 379 97 379 76 373 c 257
 67 371 67 371 67 361.5 c 128
 67 352 67 352 72.5 340.5 c 128
 78 329 78 329 88.5 317.5 c 128
 99 306 99 306 112 299 c 128
 125 292 125 292 139.5 292 c 128
 154 292 154 292 167 303 c 257
88 102 m 257
 86 85 86 85 94.5 77.5 c 128
 103 70 103 70 118 68.5 c 128
 133 67 133 67 151 71 c 128
 169 75 169 75 184.5 81 c 128
 200 87 200 87 210 94 c 128
 220 101 220 101 219 108 c 257
 211 117 211 117 190 121.5 c 128
 169 126 169 126 146.5 126 c 128
 124 126 124 126 106.5 120.5 c 128
 89 115 89 115 88 102 c 257
EndSplineSet
PickledDataWithLists: "(dp1
S'com.adobe.type.autohint'
p2
(S'data'
S'<data>\\n  <hintSetList>\\n    <hintset pointTag=\"hr00\">\\n      <hstem pos=\"-58\" width=\"-21\"/>\\n    </hintset>\\n  </hintSetList>\\n  </data>'
Ntp3
s."
EndChar

StartChar: U0C17
Encoding: 50 3095 50
GlifName: U0C17_
Width: 559
VWidth: 0
Flags: W
AnchorPoint: "mark0" 307 0 basechar 0
LayerCount: 2
Back
Fore
SplineSet
49 429 m 257
NamedP: "hr00"
 438 549 l 257
 455 437 l 257
 54 369 l 257
 49 429 l 257
NamedP: "hr00"
44 0 m 257
 23 30 23 30 12 63 c 128
 1 96 1 96 1 142 c 257
 1 188 1 188 16.5 234.5 c 128
 32 281 32 281 59.5 319 c 128
 87 357 87 357 126.5 383 c 128
 166 409 166 409 214 414 c 257
 258 418 258 418 301.5 405.5 c 128
 345 393 345 393 379.5 365 c 128
 414 337 414 337 435 294 c 128
 456 251 456 251 455 195 c 257
 454 158 454 158 447 128 c 128
 440 98 440 98 431 74.5 c 128
 422 51 422 51 412 32.5 c 128
 402 14 402 14 395 1 c 257
 280 0 l 257
 315 52 315 52 329 92.5 c 128
 343 133 343 133 351 167 c 257
 360 208 360 208 354 243 c 128
 348 278 348 278 329.5 302.5 c 128
 311 327 311 327 281 339 c 128
 251 351 251 351 213 348 c 257
 170 344 170 344 142 309 c 128
 114 274 114 274 101 200 c 257
 95 164 95 164 106 128.5 c 128
 117 93 117 93 131 65 c 257
 148 31 148 31 173 0 c 257
 44 0 l 257
EndSplineSet
PickledDataWithLists: "(dp1
S'com.adobe.type.autohint'
p2
(S'data'
S'<data>\\n  <hintSetList>\\n    <hintset pointTag=\"hr00\">\\n      <hstem pos=\"21\" width=\"-21\"/>\\n      <hstem pos=\"549\" width=\"-20\"/>\\n    </hintset>\\n  </hintSetList>\\n  </data>'
Ntp3
s."
EndChar

StartChar: U0C18
Encoding: 51 3096 51
GlifName: U0C18_
Width: 795
VWidth: 0
Flags: W
LayerCount: 2
Back
Fore
SplineSet
492 424 m 257
NamedP: "hr00"
 630 424 l 257
 673 355 673 355 686 284 c 257
 692 253 692 253 691.5 218 c 128
 691 183 691 183 681.5 146.5 c 128
 672 110 672 110 650 72 c 128
 628 34 628 34 590 -2 c 257
 570 6 570 6 548 10.5 c 128
 526 15 526 15 506 17 c 128
 486 19 486 19 470.5 18.5 c 128
 455 18 455 18 445 17 c 257
 421 17 421 17 400 14.5 c 128
 379 12 379 12 364 10 c 257
 345 7 345 7 331 4 c 257
 342 22 342 22 355 40 c 257
 367 55 367 55 381 74.5 c 128
 395 94 395 94 410 113 c 257
 413 116 413 116 428.5 114 c 128
 444 112 444 112 463.5 106.5 c 128
 483 101 483 101 501.5 93 c 128
 520 85 520 85 527 77 c 257
 542 82 542 82 557.5 97 c 128
 573 112 573 112 585 134.5 c 128
 597 157 597 157 600.5 187 c 128
 604 217 604 217 595.5 254 c 128
 587 291 587 291 562.5 334 c 128
 538 377 538 377 492 424 c 257
NamedP: "hr00"
56 358 m 257
 38 409 l 257
 343 598 l 257
 387 493 l 257
 56 358 l 257
431 421 m 257
 438 394 438 394 443 366 c 257
 449 341 449 341 451.5 310 c 128
 454 279 454 279 453 247 c 257
 453 215 453 215 441.5 180.5 c 128
 430 146 430 146 412 114 c 128
 394 82 394 82 373.5 53 c 128
 353 24 353 24 335 1 c 257
 332 1 332 1 318.5 8 c 128
 305 15 305 15 285 24.5 c 128
 265 34 265 34 239.5 41.5 c 128
 214 49 214 49 187 50 c 257
 161 50 161 50 140 45 c 128
 119 40 119 40 101 34 c 128
 83 28 83 28 68 22.5 c 128
 53 17 53 17 40 17 c 257
 28 16 28 16 18 31.5 c 128
 8 47 8 47 3.5 70.5 c 128
 -1 94 -1 94 0.5 122.5 c 128
 2 151 2 151 13 175 c 257
 28 209 28 209 52 228 c 128
 76 247 76 247 100 253 c 128
 124 259 124 259 143 253 c 128
 162 247 162 247 167 230 c 257
 178 195 178 195 196 173 c 128
 214 151 214 151 233.5 139 c 128
 253 127 253 127 270 123 c 128
 287 119 287 119 295 119 c 257
 311 119 311 119 325.5 130 c 128
 340 141 340 141 350 160 c 128
 360 179 360 179 366 203 c 128
 372 227 372 227 371 253 c 257
 369 273 369 273 360.5 294.5 c 128
 352 316 352 316 341 334 c 257
 329 354 329 354 313 375 c 257
 431 421 l 257
85 105 m 257
 98 92 98 92 113 97.5 c 128
 128 103 128 103 139 117 c 128
 150 131 150 131 153.5 147.5 c 128
 157 164 157 164 147 171 c 257
 134 184 134 184 119.5 178.5 c 128
 105 173 105 173 95 159 c 128
 85 145 85 145 81.5 129 c 128
 78 113 78 113 85 105 c 257
152 30 m 257
 202 31 l 257
 183 -76 l 257
 106 -79 l 257
 152 30 l 257
EndSplineSet
PickledDataWithLists: "(dp1
S'com.adobe.type.autohint'
p2
(S'data'
S'<data>\\n  <hintSetList>\\n    <hintset pointTag=\"hr00\">\\n      <hstem pos=\"-58\" width=\"-21\"/>\\n      <hstem pos=\"598\" width=\"-20\"/>\\n      <vstem pos=\"371\" width=\"82\"/>\\n    </hintset>\\n  </hintSetList>\\n  </data>'
Ntp3
s."
EndChar

StartChar: U0C19
Encoding: 52 3097 52
GlifName: U0C19_
Width: 728
VWidth: 0
Flags: W
AnchorPoint: "mark0" 294 -22 basechar 0
LayerCount: 2
Back
Fore
SplineSet
621 259 m 257
NamedP: "hr00"
 625 208 625 208 618 165 c 257
 613 127 613 127 597 91 c 128
 581 55 581 55 545 39 c 257
 514 26 514 26 479.5 15 c 128
 445 4 445 4 408.5 4.5 c 128
 372 5 372 5 333 20.5 c 128
 294 36 294 36 254 76 c 257
 238 76 238 76 212 64 c 128
 186 52 186 52 160.5 38 c 128
 135 24 135 24 115.5 12 c 128
 96 0 96 0 93 0 c 257
 89 -1 89 -1 83.5 17.5 c 128
 78 36 78 36 75 63 c 128
 72 90 72 90 73.5 121.5 c 128
 75 153 75 153 86 177 c 257
 94 196 94 196 106.5 211.5 c 128
 119 227 119 227 131 240 c 257
 145 253 145 253 162 265 c 257
 112 260 112 260 74 271 c 257
 57 275 57 275 42.5 284 c 128
 28 293 28 293 17.5 307 c 128
 7 321 7 321 3 341 c 128
 -1 361 -1 361 4 390 c 257
 9 420 9 420 28 441.5 c 128
 47 463 47 463 73 476.5 c 128
 99 490 99 490 129 497.5 c 128
 159 505 159 505 185.5 507 c 128
 212 509 212 509 231.5 506.5 c 128
 251 504 251 504 257 498 c 257
 266 489 266 489 274.5 481.5 c 128
 283 474 283 474 287 463.5 c 128
 291 453 291 453 290 438 c 128
 289 423 289 423 280 399 c 257
 271 376 271 376 256.5 349 c 128
 242 322 242 322 226.5 295 c 128
 211 268 211 268 199 245.5 c 128
 187 223 187 223 184 210 c 257
 182 195 182 195 178.5 180.5 c 128
 175 166 175 166 173 154 c 128
 171 142 171 142 172.5 135 c 128
 174 128 174 128 181 128 c 257
 188 128 188 128 206 137.5 c 128
 224 147 224 147 243.5 159.5 c 128
 263 172 263 172 280 182.5 c 128
 297 193 297 193 303 194 c 257
 309 196 309 196 317.5 189.5 c 128
 326 183 326 183 335 172.5 c 128
 344 162 344 162 354.5 148.5 c 128
 365 135 365 135 375 125 c 257
 385 114 385 114 399.5 100 c 128
 414 86 414 86 431.5 77 c 128
 449 68 449 68 468.5 65.5 c 128
 488 63 488 63 509 76 c 257
 521 83 521 83 528 107 c 128
 535 131 535 131 532 159.5 c 128
 529 188 529 188 516.5 216 c 128
 504 244 504 244 476 259 c 257
 621 259 l 257
NamedP: "hr00"
99 357 m 257
 103 342 103 342 118 334 c 128
 133 326 133 326 151 321 c 257
 170 315 170 315 195 314 c 257
 200 326 200 326 203 338 c 257
 205 349 205 349 205.5 364 c 128
 206 379 206 379 201 396 c 257
 196 413 196 413 182 420 c 128
 168 427 168 427 154 430 c 257
 136 433 136 433 116 432 c 257
 109 428 109 428 104 419 c 257
 100 411 100 411 97.5 396.5 c 128
 95 382 95 382 99 357 c 257
381 492 m 257
 383 492 383 492 397.5 492 c 128
 412 492 412 492 428 493 c 257
 446 494 446 494 470 495 c 257
 421 314 l 257
 329 305 l 257
 341 346 341 346 352 382 c 257
 361 413 361 413 370 444 c 128
 379 475 379 475 381 492 c 257
270 420 m 257
 536 436 l 257
 545 367 l 257
 241 367 l 257
 270 420 l 257
EndSplineSet
PickledDataWithLists: "(dp1
S'com.adobe.type.autohint'
p2
(S'data'
S'<data>\\n  <hintSetList>\\n    <hintset pointTag=\"hr00\">\\n      <hstem pos=\"0\" width=\"-20\"/>\\n      <hstem pos=\"367\" width=\"127\"/>\\n      <hstem pos=\"367\" width=\"61\"/>\\n    </hintset>\\n  </hintSetList>\\n  </data>'
Ntp3
s."
EndChar

StartChar: U0C1A
Encoding: 53 3098 53
GlifName: U0C1A_
Width: 659
VWidth: 0
Flags: W
LayerCount: 2
Back
Fore
SplineSet
165 403 m 257
NamedP: "hr00"
 482 535 l 257
 496 420 l 257
 168 347 l 257
 165 403 l 257
NamedP: "hr00"
16 282 m 257
 259 295 l 257
 250 281 250 281 241 262 c 257
 232 247 232 247 223 224.5 c 128
 214 202 214 202 207 174 c 257
 200 145 200 145 207.5 138 c 128
 215 131 215 131 229 135 c 128
 243 139 243 139 256.5 148 c 128
 270 157 270 157 275 161 c 257
 300 178 300 178 313 179.5 c 128
 326 181 326 181 338 167 c 257
 345 158 345 158 358.5 142 c 128
 372 126 372 126 389 112.5 c 128
 406 99 406 99 423.5 92.5 c 128
 441 86 441 86 459 95 c 257
 487 119 487 119 492.5 154 c 128
 498 189 498 189 487 225 c 128
 476 261 476 261 452 292 c 128
 428 323 428 323 397 338 c 257
 374 350 374 350 338.5 354 c 128
 303 358 303 358 270 358 c 257
 231 358 231 358 190 354 c 257
 191 357 191 357 191 364 c 257
 191 369 191 369 190 378.5 c 128
 189 388 189 388 187 403 c 257
 194 409 194 409 224.5 410 c 128
 255 411 255 411 297.5 405 c 128
 340 399 340 399 387.5 386 c 128
 435 373 435 373 475.5 351.5 c 128
 516 330 516 330 542.5 299 c 128
 569 268 569 268 570 226 c 257
 571 165 571 165 550.5 122.5 c 128
 530 80 530 80 502.5 53 c 128
 475 26 475 26 447.5 13.5 c 128
 420 1 420 1 407 0 c 257
 376 -4 376 -4 354 7.5 c 128
 332 19 332 19 315.5 35 c 128
 299 51 299 51 285.5 66.5 c 128
 272 82 272 82 259 85 c 257
 237 93 237 93 202 68 c 128
 167 43 167 43 112 -6 c 257
 94 38 94 38 96 76 c 128
 98 114 98 114 108 142 c 257
 119 176 119 176 138 203 c 257
 0 170 l 257
 16 282 l 257
EndSplineSet
PickledDataWithLists: "(dp1
S'com.adobe.type.autohint'
p2
(S'data'
S'<data>\\n  <hintSetList>\\n    <hintset pointTag=\"hr00\">\\n      <hstem pos=\"288\" width=\"70\"/>\\n      <hstem pos=\"535\" width=\"-20\"/>\\n    </hintset>\\n  </hintSetList>\\n  </data>'
Ntp3
s."
EndChar

StartChar: U0C1B
Encoding: 54 3099 54
GlifName: U0C1B_
Width: 659
VWidth: 0
Flags: W
LayerCount: 2
Back
Fore
SplineSet
482 535 m 257
NamedP: "hr00"
 496 420 l 257
 168 347 l 257
 167 397 l 257
 482 535 l 257
NamedP: "hr00"
259 295 m 257
 250 281 250 281 241 262 c 257
 232 247 232 247 223 224.5 c 128
 214 202 214 202 207 174 c 257
 200 145 200 145 207.5 138 c 128
 215 131 215 131 229 135 c 128
 243 139 243 139 256.5 148 c 128
 270 157 270 157 275 161 c 257
 300 178 300 178 313 179.5 c 128
 326 181 326 181 338 167 c 257
 345 158 345 158 358.5 142 c 128
 372 126 372 126 389 112.5 c 128
 406 99 406 99 423.5 92.5 c 128
 441 86 441 86 459 95 c 257
 487 119 487 119 492.5 154 c 128
 498 189 498 189 487 225 c 128
 476 261 476 261 452 292 c 128
 428 323 428 323 397 338 c 257
 374 350 374 350 338.5 354 c 128
 303 358 303 358 270 358 c 257
 231 358 231 358 190 354 c 257
 191 357 191 357 191 364 c 257
 191 369 191 369 190 378.5 c 128
 189 388 189 388 187 403 c 257
 194 409 194 409 224.5 410 c 128
 255 411 255 411 297.5 405 c 128
 340 399 340 399 387.5 386 c 128
 435 373 435 373 475.5 351.5 c 128
 516 330 516 330 542.5 299 c 128
 569 268 569 268 570 226 c 257
 571 165 571 165 550.5 122.5 c 128
 530 80 530 80 502.5 53 c 128
 475 26 475 26 447.5 13.5 c 128
 420 1 420 1 407 0 c 257
 376 -4 376 -4 354 7.5 c 128
 332 19 332 19 315.5 35 c 128
 299 51 299 51 285.5 66.5 c 128
 272 82 272 82 259 85 c 257
 237 93 237 93 202 68 c 128
 167 43 167 43 112 -6 c 257
 94 38 94 38 96 76 c 128
 98 114 98 114 108 142 c 257
 119 176 119 176 138 203 c 257
 0 170 l 257
 16 282 l 257
 259 295 l 257
150 -82 m 257
 237 -82 l 257
 271 37 l 257
 215 37 l 257
 150 -82 l 257
EndSplineSet
PickledDataWithLists: "(dp1
S'com.adobe.type.autohint'
p2
(S'data'
S'<data>\\n  <hintSetList>\\n    <hintset pointTag=\"hr00\">\\n      <hstem pos=\"-61\" width=\"-21\"/>\\n      <hstem pos=\"288\" width=\"70\"/>\\n      <hstem pos=\"535\" width=\"-20\"/>\\n    </hintset>\\n  </hintSetList>\\n  </data>'
Ntp3
s."
EndChar

StartChar: U0C1C
Encoding: 55 3100 55
GlifName: U0C1C_
Width: 726
VWidth: 0
Flags: W
AnchorPoint: "mark0" 280 -27 basechar 0
LayerCount: 2
Back
Fore
SplineSet
375 512 m 257
 506 502 l 257
 512 451 512 451 509 407 c 257
 507 388 507 388 504 368.5 c 128
 501 349 501 349 493.5 331.5 c 128
 486 314 486 314 476 300.5 c 128
 466 287 466 287 451 280 c 257
 419 263 419 263 389 265 c 128
 359 267 359 267 334 279.5 c 128
 309 292 309 292 290 309.5 c 128
 271 327 271 327 260 341 c 257
 248 355 248 355 251 373 c 128
 254 391 254 391 262 409 c 257
 272 428 272 428 290 450 c 257
 292 435 292 435 297 422 c 257
 302 411 302 411 310.5 397.5 c 128
 319 384 319 384 336 374 c 257
 348 366 348 366 360.5 357.5 c 128
 373 349 373 349 384 344.5 c 128
 395 340 395 340 404 339.5 c 128
 413 339 413 339 418 345 c 257
 425 355 425 355 423 375 c 128
 421 395 421 395 414 418 c 128
 407 441 407 441 396 465.5 c 128
 385 490 385 490 375 512 c 257
621 259 m 257
 623 209 623 209 616 166 c 257
 610 129 610 129 594.5 92.5 c 128
 579 56 579 56 543 40 c 257
 512 27 512 27 478 16 c 128
 444 5 444 5 408 5.5 c 128
 372 6 372 6 332.5 22.5 c 128
 293 39 293 39 251 79 c 257
 234 78 234 78 209 66 c 128
 184 54 184 54 159.5 40 c 128
 135 26 135 26 116 14 c 128
 97 2 97 2 93 1 c 257
 90 -1 90 -1 84.5 17.5 c 128
 79 36 79 36 75.5 63 c 128
 72 90 72 90 73 121.5 c 128
 74 153 74 153 84 177 c 257
 92 198 92 198 105 214 c 128
 118 230 118 230 130 243 c 257
 143 257 143 257 159 269 c 257
 109 263 109 263 72 273 c 257
 56 278 56 278 41.5 286 c 128
 27 294 27 294 16.5 308 c 128
 6 322 6 322 1.5 341.5 c 128
 -3 361 -3 361 2 390 c 257
 7 421 7 421 26 442.5 c 128
 45 464 45 464 71.5 478 c 128
 98 492 98 492 128.5 499 c 128
 159 506 159 506 185.5 508 c 128
 212 510 212 510 231.5 507 c 128
 251 504 251 504 257 499 c 257
 266 492 266 492 274 484 c 128
 282 476 282 476 286.5 465.5 c 128
 291 455 291 455 290 439.5 c 128
 289 424 289 424 281 400 c 257
 271 377 271 377 256.5 349.5 c 128
 242 322 242 322 226.5 295.5 c 128
 211 269 211 269 199 246 c 128
 187 223 187 223 185 210 c 257
 181 197 181 197 177.5 182.5 c 128
 174 168 174 168 172.5 155.5 c 128
 171 143 171 143 172.5 135.5 c 128
 174 128 174 128 182 128 c 257
 189 128 189 128 206.5 137.5 c 128
 224 147 224 147 243.5 159.5 c 128
 263 172 263 172 280 182.5 c 128
 297 193 297 193 303 194 c 257
 308 197 308 197 316.5 190 c 128
 325 183 325 183 334.5 172.5 c 128
 344 162 344 162 355 149 c 128
 366 136 366 136 375 125 c 257
 384 114 384 114 398 100 c 128
 412 86 412 86 429 77 c 128
 446 68 446 68 466.5 67 c 128
 487 66 487 66 510 79 c 257
 520 85 520 85 526 109 c 128
 532 133 532 133 529 161.5 c 128
 526 190 526 190 513.5 218 c 128
 501 246 501 246 473 259 c 257
 621 259 l 257
100 361 m 257
 102 346 102 346 117 337.5 c 128
 132 329 132 329 150 324 c 257
 169 318 169 318 195 315 c 257
 198 327 198 327 201 339 c 257
 203 350 203 350 203.5 365 c 128
 204 380 204 380 199 397 c 257
 195 413 195 413 181 421 c 128
 167 429 167 429 152 432 c 257
 133 436 133 436 113 436 c 257
 105 432 105 432 101 422 c 257
 97 414 97 414 96 399.5 c 128
 95 385 95 385 100 361 c 257
EndSplineSet
EndChar

StartChar: U0C1D
Encoding: 56 3101 56
GlifName: U0C1D_
Width: 1005
VWidth: 0
Flags: W
LayerCount: 2
Back
Fore
SplineSet
438 429 m 257
NamedP: "hr00"
 580 429 l 257
 623 361 623 361 636 290 c 257
 642 259 642 259 641.5 224 c 128
 641 189 641 189 631 153 c 128
 621 117 621 117 598 79.5 c 128
 575 42 575 42 537 6 c 257
 517 15 517 15 495 19.5 c 128
 473 24 473 24 453 25.5 c 128
 433 27 433 27 417 27 c 128
 401 27 401 27 392 27 c 257
 368 27 368 27 347 24.5 c 128
 326 22 326 22 310 19 c 257
 292 16 292 16 278 13 c 257
 289 30 289 30 302 48 c 257
 313 63 313 63 327.5 82.5 c 128
 342 102 342 102 356 121 c 257
 359 125 359 125 375.5 123 c 128
 392 121 392 121 412 116 c 128
 432 111 432 111 450 102.5 c 128
 468 94 468 94 474 85 c 257
 498 94 498 94 521 123 c 128
 544 152 544 152 548.5 196.5 c 128
 553 241 553 241 530 300 c 128
 507 359 507 359 438 429 c 257
NamedP: "hr00"
698 426 m 257
 836 426 l 257
 879 357 879 357 892 286 c 257
 898 255 898 255 898 220 c 128
 898 185 898 185 888.5 148.5 c 128
 879 112 879 112 857 74 c 128
 835 36 835 36 797 0 c 257
 775 8 775 8 753 12.5 c 128
 731 17 731 17 711.5 19.5 c 128
 692 22 692 22 676 21 c 128
 660 20 660 20 652 19 c 257
 628 19 628 19 606.5 16.5 c 128
 585 14 585 14 568 12 c 257
 550 9 550 9 535 6 c 257
 560 42 l 257
 571 57 571 57 584.5 76.5 c 128
 598 96 598 96 612 115 c 257
 616 119 616 119 633 117 c 128
 650 115 650 115 670 109 c 128
 690 103 690 103 708.5 95 c 128
 727 87 727 87 734 79 c 257
 749 84 749 84 764.5 99 c 128
 780 114 780 114 791 137 c 128
 802 160 802 160 806 189.5 c 128
 810 219 810 219 801 256 c 128
 792 293 792 293 767.5 336 c 128
 743 379 743 379 698 426 c 257
20 411 m 257
 291 587 l 257
 350 511 l 257
 44 367 l 257
 20 411 l 257
432 319 m 257
 444 288 444 288 439 241.5 c 128
 434 195 434 195 412.5 148 c 128
 391 101 391 101 352 62.5 c 128
 313 24 313 24 258 8 c 257
 203 -8 203 -8 158.5 5 c 128
 114 18 114 18 81 47 c 128
 48 76 48 76 28 114 c 128
 8 152 8 152 2 185 c 257
 -3 207 -3 207 3 233.5 c 128
 9 260 9 260 22.5 287 c 128
 36 314 36 314 55.5 341 c 128
 75 368 75 368 96 388.5 c 128
 117 409 117 409 139 422 c 128
 161 435 161 435 179 437 c 257
 220 442 220 442 260 436 c 128
 300 430 300 430 334.5 414 c 128
 369 398 369 398 394.5 374 c 128
 420 350 420 350 432 319 c 257
264 77 m 257
 284 73 284 73 301.5 95 c 128
 319 117 319 117 329.5 149.5 c 128
 340 182 340 182 340 218.5 c 128
 340 255 340 255 324 280 c 257
 309 303 309 303 286.5 321.5 c 128
 264 340 264 340 240 350.5 c 128
 216 361 216 361 193.5 362.5 c 128
 171 364 171 364 157 352 c 257
 146 345 146 345 131.5 324.5 c 128
 117 304 117 304 106.5 277 c 128
 96 250 96 250 93.5 218 c 128
 91 186 91 186 106.5 158 c 128
 122 130 122 130 159.5 108 c 128
 197 86 197 86 264 77 c 257
435 -128 m 257
 522 -128 l 257
 557 -9 l 257
 501 -9 l 257
 435 -128 l 257
EndSplineSet
PickledDataWithLists: "(dp1
S'com.adobe.type.autohint'
p2
(S'data'
S'<data>\\n  <hintSetList>\\n    <hintset pointTag=\"hr00\">\\n      <hstem pos=\"-107\" width=\"-21\"/>\\n      <hstem pos=\"587\" width=\"-20\"/>\\n    </hintset>\\n  </hintSetList>\\n  </data>'
Ntp3
s."
EndChar

StartChar: U0C1E
Encoding: 57 3102 57
GlifName: U0C1E_
Width: 901
VWidth: 0
Flags: W
AnchorPoint: "mark0" 287 -41 basechar 0
LayerCount: 2
Back
Fore
SplineSet
630 357 m 257
 632 357 632 357 646 357.5 c 128
 660 358 660 358 677 360 c 257
 695 361 695 361 719 364 c 257
 670 180 l 257
 581 170 l 257
 593 211 593 211 604 248 c 257
 613 279 613 279 620.5 310 c 128
 628 341 628 341 630 357 c 257
528 292 m 257
 784 305 l 257
 797 240 l 257
 489 236 l 257
 528 292 l 257
535 226 m 257
 516 187 516 187 500 162.5 c 128
 484 138 484 138 473 123 c 257
 460 104 460 104 450 95 c 257
 522 36 l 257
 450 -10 l 257
 435 6 435 6 423 20 c 257
 412 33 412 33 400 45 c 128
 388 57 388 57 381 66 c 257
 349 40 349 40 309.5 24.5 c 128
 270 9 270 9 230 3.5 c 128
 190 -2 190 -2 152.5 2 c 128
 115 6 115 6 86 19.5 c 128
 57 33 57 33 41 55.5 c 128
 25 78 25 78 27 109 c 257
 30 137 30 137 47.5 157 c 128
 65 177 65 177 91.5 189.5 c 128
 118 202 118 202 150 206.5 c 128
 182 211 182 211 214 210 c 257
NamedP: "hr01"
 247 209 247 209 277 200 c 128
 307 191 307 191 330.5 181.5 c 128
 354 172 354 172 370 163 c 128
 386 154 386 154 391 151 c 257
 406 163 406 163 419 180 c 257
 430 195 430 195 442 214.5 c 128
 454 234 454 234 460 259 c 257
 466 283 466 283 464.5 300 c 128
 463 317 463 317 456 330 c 128
 449 343 449 343 438.5 351.5 c 128
 428 360 428 360 417 367 c 257
 394 379 394 379 367 379.5 c 128
 340 380 340 380 326 360 c 257
 322 354 322 354 318 342.5 c 128
 314 331 314 331 311 319 c 257
 307 306 307 306 305 292 c 257
 237 292 l 257
 241 313 241 313 241 332 c 257
 241 348 241 348 237.5 364.5 c 128
 234 381 234 381 223 390 c 257
 212 398 212 398 188.5 402 c 128
 165 406 165 406 142.5 402.5 c 128
 120 399 120 399 106 387.5 c 128
 92 376 92 376 102 354 c 257
 110 337 110 337 118 325.5 c 128
 126 314 126 314 134 307 c 257
 143 299 143 299 152 295 c 257
 86 240 l 257
 56 268 56 268 36 296 c 257
 18 319 18 319 7 346 c 128
 -4 373 -4 373 7 393 c 257
 18 416 18 416 53.5 439 c 128
 89 462 89 462 128.5 478.5 c 128
 168 495 168 495 200.5 501 c 128
 233 507 233 507 240 495 c 257
 246 483 246 483 251 468.5 c 128
 256 454 256 454 260 439 c 257
 264 423 264 423 269 407 c 257
 284 428 284 428 302 443 c 257
 317 457 317 457 337 466 c 128
 357 475 357 475 381 469 c 257
 429 457 429 457 454 448 c 128
 479 439 479 439 492.5 431.5 c 128
 506 424 506 424 512 416 c 128
 518 408 518 408 528 396 c 257
 542 376 542 376 547 352 c 128
 552 328 552 328 551 305 c 128
 550 282 550 282 545.5 261.5 c 128
 541 241 541 241 535 226 c 257
132 125 m 257
 127 103 127 103 147 92.5 c 128
 167 82 167 82 199 80 c 128
 231 78 231 78 269 84.5 c 128
 307 91 307 91 338 104 c 257
 326 120 326 120 294 132.5 c 128
 262 145 262 145 228 150.5 c 128
 194 156 194 156 165.5 150.5 c 128
 137 145 137 145 132 125 c 257
EndSplineSet
PickledDataWithLists: "(dp1
S'com.adobe.type.autohint'
p2
(S'data'
S'<data>\\n  <hintSetList>\\n    <hintset pointTag=\"hr01\">\\n      <hstem pos=\"210\" width=\"82\"/>\\n    </hintset>\\n  </hintSetList>\\n  </data>'
Ntp3
s."
EndChar

StartChar: U0C1F
Encoding: 58 3103 58
GlifName: U0C1F_
Width: 656
VWidth: 0
Flags: W
LayerCount: 2
Back
Fore
SplineSet
502 423 m 257
NamedP: "hr00"
 508 413 508 413 519 381 c 128
 530 349 530 349 541 308.5 c 128
 552 268 552 268 558 226 c 128
 564 184 564 184 561 154 c 257
 553 99 553 99 521.5 56.5 c 128
 490 14 490 14 433 0 c 257
 412 -3 412 -3 391.5 5 c 128
 371 13 371 13 351.5 24.5 c 128
 332 36 332 36 311.5 46 c 128
 291 56 291 56 269 56 c 257
 248 56 248 56 231 50 c 128
 214 44 214 44 201 36 c 128
 188 28 188 28 177.5 18.5 c 128
 167 9 167 9 158 3 c 257
 145 8 145 8 123.5 27.5 c 128
 102 47 102 47 79 74 c 128
 56 101 56 101 35.5 133.5 c 128
 15 166 15 166 4 197 c 257
 -6 227 -6 227 8.5 260.5 c 128
 23 294 23 294 46.5 324 c 128
 70 354 70 354 95 377.5 c 128
 120 401 120 401 132 413 c 257
 159 433 159 433 195.5 426 c 128
 232 419 232 419 280 367 c 257
 302 341 302 341 306.5 322.5 c 128
 311 304 311 304 303.5 289 c 128
 296 274 296 274 278.5 260.5 c 128
 261 247 261 247 240 229 c 257
 219 211 219 211 197 204 c 128
 175 197 175 197 155 195 c 257
 131 193 131 193 109 197 c 257
 109 181 109 181 116 164.5 c 128
 123 148 123 148 135.5 135 c 128
 148 122 148 122 166.5 113 c 128
 185 104 185 104 207 104 c 257
 223 104 223 104 238 114 c 128
 253 124 253 124 265.5 135.5 c 128
 278 147 278 147 286.5 157 c 128
 295 167 295 167 298 167 c 257
 301 167 301 167 306.5 156 c 128
 312 145 312 145 324 133 c 128
 336 121 336 121 355 110.5 c 128
 374 100 374 100 403 101 c 257
 417 101 417 101 430.5 111 c 128
 444 121 444 121 455 137.5 c 128
 466 154 466 154 471 176.5 c 128
 476 199 476 199 472 226 c 257
 467 260 467 260 449 295 c 128
 431 330 431 330 412 358 c 257
 388 392 388 392 361 423 c 257
 502 423 l 257
NamedP: "hr00"
128 262 m 257
 134 256 134 256 145 256.5 c 128
 156 257 156 257 167.5 262 c 128
 179 267 179 267 190 275 c 128
 201 283 201 283 207 292 c 257
 214 301 214 301 209.5 313 c 128
 205 325 205 325 195 333.5 c 128
 185 342 185 342 172.5 345 c 128
 160 348 160 348 152 341 c 257
 142 334 142 334 135.5 323 c 128
 129 312 129 312 125 300.5 c 128
 121 289 121 289 121.5 278.5 c 128
 122 268 122 268 128 262 c 257
132 538 m 257
 133 541 133 541 145.5 543 c 128
 158 545 158 545 171.5 544.5 c 128
 185 544 185 544 195.5 539.5 c 128
 206 535 206 535 204 524 c 257
 200 516 200 516 193 505 c 128
 186 494 186 494 180.5 481.5 c 128
 175 469 175 469 173 456 c 128
 171 443 171 443 177 432 c 257
 183 427 183 427 178 420.5 c 128
 173 414 173 414 165 408 c 257
 155 400 155 400 141 393 c 257
 124 408 124 408 116 428 c 257
 109 445 109 445 110 473 c 128
 111 501 111 501 132 538 c 257
EndSplineSet
PickledDataWithLists: "(dp1
S'com.adobe.type.autohint'
p2
(S'data'
S'<data>\\n  <hintSetList>\\n    <hintset pointTag=\"hr00\">\\n      <hstem pos=\"56\" width=\"45\"/>\\n    </hintset>\\n  </hintSetList>\\n  </data>'
Ntp3
s."
EndChar

StartChar: U0C20
Encoding: 59 3104 59
GlifName: U0C20_
Width: 538
VWidth: 0
Flags: W
AnchorPoint: "mark0" 266 -20 basechar 0
LayerCount: 2
Back
Fore
SplineSet
28 402 m 257
NamedP: "hr00"
 283 589 l 257
 341 516 l 257
 50 364 l 257
 28 402 l 257
NamedP: "hr00"
431 322 m 257
 443 289 443 289 438.5 242.5 c 128
 434 196 434 196 412 149.5 c 128
 390 103 390 103 351.5 64.5 c 128
 313 26 313 26 258 10 c 257
 204 -6 204 -6 159.5 7 c 128
 115 20 115 20 82 49 c 128
 49 78 49 78 28.5 116 c 128
 8 154 8 154 2 186 c 257
 -5 218 -5 218 11 261 c 128
 27 304 27 304 55 342.5 c 128
 83 381 83 381 117 408.5 c 128
 151 436 151 436 179 439 c 257
 220 444 220 444 260 438 c 128
 300 432 300 432 334 416 c 128
 368 400 368 400 393.5 376 c 128
 419 352 419 352 431 322 c 257
264 79 m 257
 284 75 284 75 301.5 97 c 128
 319 119 319 119 329.5 151.5 c 128
 340 184 340 184 340.5 220.5 c 128
 341 257 341 257 327 282 c 257
 310 306 310 306 287 324.5 c 128
 264 343 264 343 240 353.5 c 128
 216 364 216 364 193.5 364.5 c 128
 171 365 171 365 157 354 c 257
 146 347 146 347 132 326.5 c 128
 118 306 118 306 107 279 c 128
 96 252 96 252 94.5 220 c 128
 93 188 93 188 108.5 160 c 128
 124 132 124 132 161 110 c 128
 198 88 198 88 264 79 c 257
278 232 m 257
 278 215 278 215 261 202.5 c 128
 244 190 244 190 222 190 c 257
 200 190 200 190 183 202.5 c 128
 166 215 166 215 166 232 c 257
 166 250 166 250 183 262.5 c 128
 200 275 200 275 222 275 c 257
 244 275 244 275 261 262.5 c 128
 278 250 278 250 278 232 c 257
EndSplineSet
PickledDataWithLists: "(dp1
S'com.adobe.type.autohint'
p2
(S'data'
S'<data>\\n  <hintSetList>\\n    <hintset pointTag=\"hr00\">\\n      <hstem pos=\"190\" width=\"85\"/>\\n      <hstem pos=\"589\" width=\"-20\"/>\\n      <vstem pos=\"166\" width=\"112\"/>\\n    </hintset>\\n  </hintSetList>\\n  </data>'
Ntp3
s."
EndChar

StartChar: U0C21
Encoding: 60 3105 60
GlifName: U0C21_
Width: 646
VWidth: 0
Flags: W
LayerCount: 2
Back
Fore
SplineSet
43 346 m 257
NamedP: "hr00"
 22 389 l 257
 415 614 l 257
 451 530 l 257
 43 346 l 257
NamedP: "hr00"
530 174 m 257
 544 140 544 140 540 109 c 128
 536 78 536 78 519 53.5 c 128
 502 29 502 29 473 14.5 c 128
 444 0 444 0 408 0 c 257
 372 0 372 0 345 15 c 128
 318 30 318 30 298.5 46 c 128
 279 62 279 62 265 74 c 128
 251 86 251 86 241 79 c 257
 220 67 220 67 195 50.5 c 128
 170 34 170 34 145.5 20.5 c 128
 121 7 121 7 100 1.5 c 128
 79 -4 79 -4 69 4 c 257
 40 29 40 29 23.5 61 c 128
 7 93 7 93 2.5 129 c 128
 -2 165 -2 165 4.5 203 c 128
 11 241 11 241 30 276 c 257
 50 315 50 315 83 348.5 c 128
 116 382 116 382 159 404 c 257
 200 427 200 427 245 433 c 128
 290 439 290 439 331 437.5 c 128
 372 436 372 436 404 430.5 c 128
 436 425 436 425 453 424 c 257
 446 411 446 411 440.5 398 c 128
 435 385 435 385 431 375 c 257
 426 364 426 364 422 352 c 257
 410 354 410 354 384 359 c 128
 358 364 358 364 326.5 365.5 c 128
 295 367 295 367 260.5 362 c 128
 226 357 226 357 196 342 c 257
 179 333 179 333 157.5 316 c 128
 136 299 136 299 120 275 c 257
 103 252 103 252 93 225 c 128
 83 198 83 198 81 172.5 c 128
 79 147 79 147 87.5 126.5 c 128
 96 106 96 106 118 96 c 257
 131 92 131 92 156.5 106 c 128
 182 120 182 120 209 137 c 257
 240 158 240 158 273 185 c 257
 288 156 288 156 307 132.5 c 128
 326 109 326 109 346.5 92.5 c 128
 367 76 367 76 386.5 67 c 128
 406 58 406 58 422 58 c 257
 438 58 438 58 447.5 60.5 c 128
 457 63 457 63 462 67 c 257
 467 71 467 71 469 75 c 257
 457 70 457 70 441 70.5 c 128
 425 71 425 71 408 76 c 128
 391 81 391 81 375.5 90 c 128
 360 99 360 99 351 113 c 257
 334 137 334 137 334 159 c 128
 334 181 334 181 343.5 199 c 128
 353 217 353 217 368 229.5 c 128
 383 242 383 242 397 246 c 257
 404 247 404 247 420.5 249.5 c 128
 437 252 437 252 456.5 247.5 c 128
 476 243 476 243 496 226.5 c 128
 516 210 516 210 530 174 c 257
474 113 m 257
 483 120 483 120 481.5 138 c 128
 480 156 480 156 470 171.5 c 128
 460 187 460 187 442.5 196.5 c 128
 425 206 425 206 400 197 c 257
 388 184 388 184 395 167.5 c 128
 402 151 402 151 417 136.5 c 128
 432 122 432 122 449 114 c 128
 466 106 466 106 474 113 c 257
EndSplineSet
PickledDataWithLists: "(dp1
S'com.adobe.type.autohint'
p2
(S'data'
S'<data>\\n  <hintSetList>\\n    <hintset pointTag=\"hr00\">\\n      <hstem pos=\"0\" width=\"58\"/>\\n      <hstem pos=\"614\" width=\"-20\"/>\\n    </hintset>\\n  </hintSetList>\\n  </data>'
Ntp3
s."
EndChar

StartChar: U0C22
Encoding: 61 3106 61
GlifName: U0C22_
Width: 646
VWidth: 0
Flags: W
LayerCount: 2
Back
Fore
SplineSet
219 30 m 257
NamedP: "hr00"
 269 31 l 257
 251 -76 l 257
 174 -79 l 257
 219 30 l 257
NamedP: "hr00"
43 346 m 257
 22 389 l 257
 433 623 l 257
 469 539 l 257
 43 346 l 257
530 174 m 257
 544 140 544 140 540 109 c 128
 536 78 536 78 519 53.5 c 128
 502 29 502 29 473 14.5 c 128
 444 0 444 0 408 0 c 257
 372 0 372 0 345 15 c 128
 318 30 318 30 298.5 46 c 128
 279 62 279 62 265 74 c 128
 251 86 251 86 241 79 c 257
 220 67 220 67 195 50.5 c 128
 170 34 170 34 145.5 20.5 c 128
 121 7 121 7 100 1.5 c 128
 79 -4 79 -4 69 4 c 257
 40 29 40 29 23.5 61 c 128
 7 93 7 93 2.5 129 c 128
 -2 165 -2 165 4.5 203 c 128
 11 241 11 241 30 276 c 257
 50 315 50 315 85 348 c 128
 120 381 120 381 163 403 c 257
 204 426 204 426 248.5 432.5 c 128
 293 439 293 439 333 437.5 c 128
 373 436 373 436 404.5 430.5 c 128
 436 425 436 425 453 424 c 257
 439 396 439 396 430 379 c 257
 425 368 425 368 420 359 c 257
 388 372 388 372 352 376 c 257
 322 379 322 379 282 374 c 128
 242 369 242 369 199 346 c 257
 182 337 182 337 159 318 c 128
 136 299 136 299 120 275 c 257
 103 252 103 252 93 225 c 128
 83 198 83 198 81 172.5 c 128
 79 147 79 147 87.5 126.5 c 128
 96 106 96 106 118 96 c 257
 131 92 131 92 156.5 106 c 128
 182 120 182 120 209 137 c 257
 240 158 240 158 273 185 c 257
 288 156 288 156 307 132.5 c 128
 326 109 326 109 346.5 92.5 c 128
 367 76 367 76 386.5 67 c 128
 406 58 406 58 422 58 c 257
 438 58 438 58 447.5 60.5 c 128
 457 63 457 63 462 67 c 257
 467 71 467 71 469 75 c 257
 457 70 457 70 441 70.5 c 128
 425 71 425 71 408 76 c 128
 391 81 391 81 375.5 90 c 128
 360 99 360 99 351 113 c 257
 334 137 334 137 334 159 c 128
 334 181 334 181 343.5 199 c 128
 353 217 353 217 368 229.5 c 128
 383 242 383 242 397 246 c 257
 404 247 404 247 420.5 249.5 c 128
 437 252 437 252 456.5 247.5 c 128
 476 243 476 243 496 226.5 c 128
 516 210 516 210 530 174 c 257
474 113 m 257
 483 120 483 120 481.5 138 c 128
 480 156 480 156 470 171.5 c 128
 460 187 460 187 442.5 196.5 c 128
 425 206 425 206 400 197 c 257
 388 184 388 184 395 167.5 c 128
 402 151 402 151 417 136.5 c 128
 432 122 432 122 449 114 c 128
 466 106 466 106 474 113 c 257
EndSplineSet
PickledDataWithLists: "(dp1
S'com.adobe.type.autohint'
p2
(S'data'
S'<data>\\n  <hintSetList>\\n    <hintset pointTag=\"hr00\">\\n      <hstem pos=\"-58\" width=\"-21\"/>\\n      <hstem pos=\"0\" width=\"58\"/>\\n      <hstem pos=\"623\" width=\"-20\"/>\\n    </hintset>\\n  </hintSetList>\\n  </data>'
Ntp3
s."
EndChar

StartChar: U0C23
Encoding: 62 3107 62
GlifName: U0C23_
Width: 646
VWidth: 0
Flags: W
LayerCount: 2
Back
Fore
SplineSet
186 -1 m 257
 171 -1 171 -1 156 0 c 128
 141 1 141 1 126 3 c 257
 111 5 111 5 94.5 20 c 128
 78 35 78 35 63.5 56.5 c 128
 49 78 49 78 38.5 102.5 c 128
 28 127 28 127 24 150 c 257
 22 162 22 162 23.5 178.5 c 128
 25 195 25 195 38 201 c 257
 58 211 58 211 74.5 217 c 128
 91 223 91 223 102 226 c 257
 116 230 116 230 127 231 c 257
 128 247 l 257
 117 249 117 249 105 253 c 257
 95 256 95 256 82.5 260.5 c 128
 70 265 70 265 57 272 c 257
 -8 310 -8 310 1 357 c 257
 3 374 3 374 24 392.5 c 128
 45 411 45 411 79 427 c 257
 112 442 112 442 146.5 452 c 128
 181 462 181 462 206 462 c 257
 234 462 234 462 241 450 c 257
 246 437 246 437 251.5 424 c 128
 257 411 257 411 261 399.5 c 128
 265 388 265 388 267.5 380.5 c 128
 270 373 270 373 270 372 c 257
 275 355 l 257
 285 371 l 257
 287 375 287 375 291 379 c 257
 298 388 298 388 310 397 c 257
 328 412 328 412 348 417.5 c 128
 368 423 368 423 391 423 c 257
 403 423 l 257
 567 414 567 414 561 250 c 257
 560 211 560 211 541.5 167 c 128
 523 123 523 123 493 82 c 257
 464 46 464 46 432.5 23 c 128
 401 0 401 0 378 0 c 257
 356 0 356 0 340.5 11.5 c 128
 325 23 325 23 315 35 c 257
NamedP: "hr01"
 295 59 295 59 286.5 89 c 128
 278 119 278 119 282 137 c 257
 284 148 284 148 292 162.5 c 128
 300 177 300 177 314 191 c 257
 347 222 347 222 381 222 c 257
 421 222 421 222 458 182 c 257
 465 174 l 257
 470 183 l 257
 479 196 479 196 483.5 215 c 128
 488 234 488 234 488 257 c 257
 488 282 488 282 481.5 302.5 c 128
 475 323 475 323 461 336 c 257
 438 360 438 360 400 360 c 257
 377 360 377 360 358 351 c 128
 339 342 339 342 333 327 c 257
 330 322 330 322 327 312.5 c 128
 324 303 324 303 320.5 293 c 128
 317 283 317 283 314 273.5 c 128
 311 264 311 264 310 258 c 257
 249 258 l 257
 251 264 251 264 252 274 c 128
 253 284 253 284 254 295 c 257
 254 345 254 345 230 362 c 257
 218 372 218 372 198 375.5 c 128
 178 379 178 379 161 379 c 257
 156 379 156 379 146 378.5 c 128
 136 378 136 378 125.5 375.5 c 128
 115 373 115 373 105 368.5 c 128
 95 364 95 364 91 355 c 257
NamedP: "hr02"
 89 350 89 350 88.5 343.5 c 128
 88 337 88 337 94 329 c 257
 103 314 103 314 117.5 304.5 c 128
 132 295 132 295 147 288.5 c 128
 162 282 162 282 175 278 c 128
 188 274 188 274 197 273 c 257
 189 210 l 257
 182 208 182 208 169.5 203.5 c 128
 157 199 157 199 143.5 192.5 c 128
 130 186 130 186 119.5 178 c 128
 109 170 109 170 104 161 c 257
 101 150 101 150 109 137 c 257
 116 127 116 127 127.5 120 c 128
 139 113 139 113 152.5 108 c 128
 166 103 166 103 180.5 101 c 128
 195 99 195 99 207 99 c 257
 214 99 214 99 221 99.5 c 128
 228 100 228 100 236 102 c 257
 236 2 l 257
 229 1 229 1 216.5 0 c 128
 204 -1 204 -1 186 -1 c 257
381 180 m 257
 349 180 349 180 346 144 c 257
 344 119 344 119 361 101 c 257
 373 88 373 88 388.5 82.5 c 128
 404 77 404 77 416 77 c 257
 424 77 424 77 430 81 c 257
 439 86 439 86 442.5 102.5 c 128
 446 119 446 119 433 147 c 257
 427 162 427 162 412 171 c 128
 397 180 397 180 381 180 c 257
EndSplineSet
PickledDataWithLists: "(dp1
S'com.adobe.type.autohint'
p2
(S'data'
S'<data>\\n  <hintSetList>\\n    <hintset pointTag=\"hr01\">\\n      <hstem pos=\"0\" width=\"222\"/>\\n      <hstem pos=\"360\" width=\"63\"/>\\n      <vstem pos=\"488\" width=\"73\"/>\\n    </hintset>\\n    <hintset pointTag=\"hr02\">\\n      <hstem pos=\"20\" width=\"-21\"/>\\n      <hstem pos=\"180\" width=\"42\"/>\\n      <hstem pos=\"379\" width=\"83\"/>\\n      <vstem pos=\"488\" width=\"73\"/>\\n    </hintset>\\n  </hintSetList>\\n  </data>'
Ntp3
s."
EndChar

StartChar: U0C24
Encoding: 63 3108 63
GlifName: U0C24_
Width: 593
VWidth: 0
Flags: W
AnchorPoint: "mark0" 259 -34 basechar 0
AnchorPoint: "mark0" 321 -30 basechar 0
LayerCount: 2
Back
Fore
SplineSet
122 378 m 257
NamedP: "hr00"
 112 438 l 257
 414 614 l 257
 432 508 l 257
 365 480 365 480 305 455 c 257
 280 443 280 443 253 432.5 c 128
 226 422 226 422 201.5 411.5 c 128
 177 401 177 401 156.5 392.5 c 128
 136 384 136 384 122 378 c 257
NamedP: "hr00"
394 369 m 257
 443 369 443 369 468.5 349 c 128
 494 329 494 329 500.5 297 c 128
 507 265 507 265 498.5 227.5 c 128
 490 190 490 190 473 154.5 c 128
 456 119 456 119 432.5 90.5 c 128
 409 62 409 62 386 50 c 257
 301 2 301 2 230.5 0 c 128
 160 -2 160 -2 109 21.5 c 128
 58 45 58 45 29.5 83.5 c 128
 1 122 1 122 0 156 c 257
 -3 189 -3 189 14 224.5 c 128
 31 260 31 260 58.5 288.5 c 128
 86 317 86 317 120.5 334 c 128
 155 351 155 351 186 348 c 257
 218 345 218 345 233.5 330.5 c 128
 249 316 249 316 250.5 295 c 128
 252 274 252 274 241 248.5 c 128
 230 223 230 223 209 198 c 257
 186 171 186 171 164 167.5 c 128
 142 164 142 164 124 169 c 257
 102 175 102 175 82 191 c 257
 84 174 84 174 91.5 156 c 128
 99 138 99 138 117 123 c 128
 135 108 135 108 167 96.5 c 128
 199 85 199 85 249 80 c 257
 299 75 299 75 328.5 84 c 128
 358 93 358 93 374.5 109.5 c 128
 391 126 391 126 397.5 145 c 128
 404 164 404 164 410 178 c 257
 403 172 403 172 386 168 c 128
 369 164 369 164 349 167 c 128
 329 170 329 170 310 181.5 c 128
 291 193 291 193 282 217 c 257
 271 251 271 251 271.5 273 c 128
 272 295 272 295 280 311 c 128
 288 327 288 327 301 339 c 128
 314 351 314 351 331 365 c 257
 321 391 321 391 300 402.5 c 128
 279 414 279 414 257 416 c 257
 231 419 231 419 203 413 c 257
 185 418 185 418 171 423 c 257
 159 428 159 428 148.5 434.5 c 128
 138 441 138 441 137 451 c 257
 203 467 203 467 249 461.5 c 128
 295 456 295 456 325.5 440 c 128
 356 424 356 424 372.5 403 c 128
 389 382 389 382 394 369 c 257
115 293 m 257
 110 281 110 281 114.5 264.5 c 128
 119 248 119 248 130.5 235 c 128
 142 222 142 222 159 217.5 c 128
 176 213 176 213 197 224 c 257
 200 256 200 256 187.5 271 c 128
 175 286 175 286 159 291 c 257
 140 296 140 296 115 293 c 257
416 221 m 257
 418 234 418 234 414.5 252 c 128
 411 270 411 270 401 287 c 128
 391 304 391 304 375 316 c 128
 359 328 359 328 337 329 c 257
 333 308 333 308 334.5 293 c 128
 336 278 336 278 340.5 266.5 c 128
 345 255 345 255 352.5 247.5 c 128
 360 240 360 240 369 234 c 257
 388 223 388 223 416 221 c 257
EndSplineSet
PickledDataWithLists: "(dp1
S'com.adobe.type.autohint'
p2
(S'data'
S'<data>\\n  <hintSetList>\\n    <hintset pointTag=\"hr00\">\\n      <hstem pos=\"329\" width=\"40\"/>\\n      <hstem pos=\"614\" width=\"-20\"/>\\n    </hintset>\\n  </hintSetList>\\n  </data>'
Ntp3
s."
EndChar

StartChar: U0C25
Encoding: 64 3109 64
GlifName: U0C25_
Width: 594
VWidth: 0
Flags: W
LayerCount: 2
Back
Fore
SplineSet
32 407 m 257
 373 551 l 257
 383 451 l 257
 38 356 l 257
 32 407 l 257
488 220 m 257
 495 168 495 168 480.5 127.5 c 128
 466 87 466 87 442.5 58.5 c 128
 419 30 419 30 390.5 15 c 128
 362 0 362 0 341 -1 c 257
 319 -4 319 -4 303 3 c 128
 287 10 287 10 270.5 20.5 c 128
 254 31 254 31 235.5 40 c 128
 217 49 217 49 191 49 c 257
 169 49 169 49 139 36 c 128
 109 23 109 23 87 0 c 257
 56 26 56 26 38 52.5 c 128
 20 79 20 79 11.5 107.5 c 128
 3 136 3 136 2 167.5 c 128
 1 199 1 199 5 232 c 257
 10 284 10 284 35.5 317 c 128
 61 350 61 350 89 371 c 257
 122 393 122 393 161 406 c 257
 204 419 204 419 258 410.5 c 128
 312 402 312 402 361.5 377 c 128
 411 352 411 352 446.5 311.5 c 128
 482 271 482 271 488 220 c 257
345 70 m 257
 357 71 357 71 370 82.5 c 128
 383 94 383 94 391.5 113 c 128
 400 132 400 132 403 157 c 128
 406 182 406 182 399.5 209 c 128
 393 236 393 236 374.5 262 c 128
 356 288 356 288 324 311 c 257
 290 335 290 335 258.5 343 c 128
 227 351 227 351 206 351 c 257
 179 351 179 351 158 342 c 257
NamedP: "hr01"
 145 338 145 338 133 326.5 c 128
 121 315 121 315 111 299.5 c 128
 101 284 101 284 94 266.5 c 128
 87 249 87 249 84 234 c 257
 77 200 77 200 79 171 c 128
 81 142 81 142 90.5 124 c 128
 100 106 100 106 115 100.5 c 128
 130 95 130 95 150 108 c 257
 184 128 184 128 209 143.5 c 128
 234 159 234 159 240 159 c 257
 245 157 245 157 254 142.5 c 128
 263 128 263 128 276.5 111 c 128
 290 94 290 94 306.5 81.5 c 128
 323 69 323 69 345 70 c 257
281 259 m 257
 281 239 281 239 265.5 226 c 128
 250 213 250 213 225 213 c 257
 203 213 203 213 188 226 c 128
 173 239 173 239 173 259 c 257
 173 276 173 276 188 289 c 128
 203 302 203 302 225 302 c 257
 250 302 250 302 265.5 289 c 128
 281 276 281 276 281 259 c 257
173 30 m 257
NamedP: "hr02"
 223 31 l 257
NamedP: "hr03"
 205 -76 l 257
 128 -79 l 257
 173 30 l 257
NamedP: "hr02"
EndSplineSet
PickledDataWithLists: "(dp1
S'com.adobe.type.autohint'
p2
(S'data'
S'<data>\\n  <hintSetList>\\n    <hintset pointTag=\"hr01\">\\n      <hstem pos=\"-58\" width=\"-21\"/>\\n      <hstem pos=\"-1\" width=\"71\"/>\\n      <hstem pos=\"302\" width=\"49\"/>\\n      <hstem pos=\"551\" width=\"-20\"/>\\n      <vstem pos=\"173\" width=\"108\"/>\\n    </hintset>\\n    <hintset pointTag=\"hr02\">\\n      <hstem pos=\"-58\" width=\"-21\"/>\\n      <hstem pos=\"49\" width=\"21\"/>\\n      <hstem pos=\"213\" width=\"89\"/>\\n      <hstem pos=\"551\" width=\"-20\"/>\\n      <vstem pos=\"173\" width=\"108\"/>\\n    </hintset>\\n    <hintset pointTag=\"hr03\">\\n      <hstem pos=\"-58\" width=\"-21\"/>\\n      <hstem pos=\"-1\" width=\"71\"/>\\n      <hstem pos=\"213\" width=\"89\"/>\\n      <hstem pos=\"551\" width=\"-20\"/>\\n      <vstem pos=\"173\" width=\"108\"/>\\n    </hintset>\\n  </hintSetList>\\n  </data>'
Ntp3
s."
EndChar

StartChar: U0C26
Encoding: 65 3110 65
GlifName: U0C26_
Width: 593
VWidth: 0
Flags: W
LayerCount: 2
Back
Fore
SplineSet
32 407 m 257
 373 551 l 257
 383 451 l 257
 38 356 l 257
 32 407 l 257
488 220 m 257
 495 168 495 168 480.5 127.5 c 128
 466 87 466 87 442.5 58.5 c 128
 419 30 419 30 390.5 15 c 128
 362 0 362 0 341 -1 c 257
 319 -4 319 -4 303 3 c 128
 287 10 287 10 270.5 20.5 c 128
 254 31 254 31 235.5 40 c 128
 217 49 217 49 191 49 c 257
 169 49 169 49 139 36 c 128
 109 23 109 23 87 0 c 257
 56 26 56 26 38 52.5 c 128
 20 79 20 79 11.5 107.5 c 128
 3 136 3 136 2 167.5 c 128
 1 199 1 199 5 232 c 257
 10 284 10 284 35.5 317 c 128
 61 350 61 350 89 371 c 257
 122 393 122 393 161 406 c 257
 204 419 204 419 258 410.5 c 128
 312 402 312 402 361.5 377 c 128
 411 352 411 352 446.5 311.5 c 128
 482 271 482 271 488 220 c 257
345 70 m 257
 357 71 357 71 370 82.5 c 128
 383 94 383 94 391.5 113 c 128
 400 132 400 132 403 157 c 128
 406 182 406 182 399.5 209 c 128
 393 236 393 236 374.5 262 c 128
 356 288 356 288 324 311 c 257
 290 335 290 335 258.5 343 c 128
 227 351 227 351 206 351 c 257
NamedP: "hr01"
 179 351 179 351 158 342 c 257
NamedP: "hr02"
 145 338 145 338 133 326.5 c 128
 121 315 121 315 111 299.5 c 128
 101 284 101 284 94 266.5 c 128
 87 249 87 249 84 234 c 257
 77 200 77 200 79 171 c 128
 81 142 81 142 90.5 124 c 128
 100 106 100 106 115 100.5 c 128
 130 95 130 95 150 108 c 257
 184 128 184 128 209 143.5 c 128
 234 159 234 159 240 159 c 257
 245 157 245 157 254 142.5 c 128
 263 128 263 128 276.5 111 c 128
 290 94 290 94 306.5 81.5 c 128
 323 69 323 69 345 70 c 257
EndSplineSet
PickledDataWithLists: "(dp1
S'com.adobe.type.autohint'
p2
(S'data'
S'<data>\\n  <hintSetList>\\n    <hintset pointTag=\"hr01\">\\n      <hstem pos=\"49\" width=\"21\"/>\\n      <hstem pos=\"551\" width=\"-20\"/>\\n    </hintset>\\n    <hintset pointTag=\"hr02\">\\n      <hstem pos=\"-1\" width=\"71\"/>\\n      <hstem pos=\"551\" width=\"-20\"/>\\n    </hintset>\\n  </hintSetList>\\n  </data>'
Ntp3
s."
EndChar

StartChar: U0C27
Encoding: 66 3111 66
GlifName: U0C27_
Width: 593
VWidth: 0
Flags: W
LayerCount: 2
Back
Fore
SplineSet
32 407 m 257
NamedP: "hr00"
 373 551 l 257
 383 451 l 257
 38 356 l 257
 32 407 l 257
NamedP: "hr00"
488 220 m 257
 495 168 495 168 480.5 127.5 c 128
 466 87 466 87 442.5 58.5 c 128
 419 30 419 30 390.5 15 c 128
 362 0 362 0 341 -1 c 257
 319 -4 319 -4 303 3 c 128
 287 10 287 10 270.5 20.5 c 128
 254 31 254 31 235.5 40 c 128
 217 49 217 49 191 49 c 257
 169 49 169 49 139 36 c 128
 109 23 109 23 87 0 c 257
 56 26 56 26 38 52.5 c 128
 20 79 20 79 11.5 107.5 c 128
 3 136 3 136 2 167.5 c 128
 1 199 1 199 5 232 c 257
 10 284 10 284 35.5 317 c 128
 61 350 61 350 89 371 c 257
 122 393 122 393 161 406 c 257
 204 419 204 419 258 410.5 c 128
 312 402 312 402 361.5 377 c 128
 411 352 411 352 446.5 311.5 c 128
 482 271 482 271 488 220 c 257
345 70 m 257
 357 71 357 71 370 82.5 c 128
 383 94 383 94 391.5 113 c 128
 400 132 400 132 403 157 c 128
 406 182 406 182 399.5 209 c 128
 393 236 393 236 374.5 262 c 128
 356 288 356 288 324 311 c 257
 290 335 290 335 258.5 343 c 128
 227 351 227 351 206 351 c 257
 179 351 179 351 158 342 c 257
 145 338 145 338 133 326.5 c 128
 121 315 121 315 111 299.5 c 128
 101 284 101 284 94 266.5 c 128
 87 249 87 249 84 234 c 257
 77 200 77 200 79 171 c 128
 81 142 81 142 90.5 124 c 128
 100 106 100 106 115 100.5 c 128
 130 95 130 95 150 108 c 257
 184 128 184 128 209 143.5 c 128
 234 159 234 159 240 159 c 257
 245 157 245 157 254 142.5 c 128
 263 128 263 128 276.5 111 c 128
 290 94 290 94 306.5 81.5 c 128
 323 69 323 69 345 70 c 257
173 30 m 257
 223 31 l 257
 205 -76 l 257
 128 -79 l 257
 173 30 l 257
EndSplineSet
PickledDataWithLists: "(dp1
S'com.adobe.type.autohint'
p2
(S'data'
S'<data>\\n  <hintSetList>\\n    <hintset pointTag=\"hr00\">\\n      <hstem pos=\"-58\" width=\"-21\"/>\\n      <hstem pos=\"551\" width=\"-20\"/>\\n    </hintset>\\n  </hintSetList>\\n  </data>'
Ntp3
s."
EndChar

StartChar: U0C28
Encoding: 67 3112 67
GlifName: U0C28_
Width: 583
VWidth: 0
Flags: W
LayerCount: 2
Back
Fore
SplineSet
69 450 m 257
NamedP: "hr00"
 380 561 l 257
 393 450 l 257
 76 381 l 257
 69 450 l 257
NamedP: "hr00"
6 -32 m 257
 5 -27 5 -27 4 -15 c 257
 3 -5 3 -5 2 13 c 128
 1 31 1 31 0 60 c 257
 5 119 5 119 26 157 c 128
 47 195 47 195 75 216.5 c 128
 103 238 103 238 133 244.5 c 128
 163 251 163 251 186 247 c 257
 190 225 190 225 203 193 c 128
 216 161 216 161 234.5 133.5 c 128
 253 106 253 106 275 90.5 c 128
 297 75 297 75 317 86 c 257
 355 116 355 116 369.5 145 c 128
 384 174 384 174 382.5 201 c 128
 381 228 381 228 367 253 c 128
 353 278 353 278 335 297 c 128
 317 316 317 316 298.5 330.5 c 128
 280 345 280 345 268 352 c 257
 250 364 250 364 217.5 369.5 c 128
 185 375 185 375 154 377 c 257
 117 380 117 380 76 380 c 257
 109 394 109 394 139 406 c 257
 166 415 166 415 193.5 421.5 c 128
 221 428 221 428 240 423 c 257
 342 387 342 387 396 343 c 128
 450 299 450 299 468 253.5 c 128
 486 208 486 208 475.5 164.5 c 128
 465 121 465 121 438.5 86 c 128
 412 51 412 51 376 28 c 128
 340 5 340 5 308 1 c 257
 278 -3 278 -3 254 7 c 128
 230 17 230 17 212.5 34 c 128
 195 51 195 51 181 72 c 128
 167 93 167 93 156 110.5 c 128
 145 128 145 128 136 138 c 128
 127 148 127 148 118 145 c 257
 111 142 111 142 107.5 133 c 128
 104 124 104 124 103.5 111 c 128
 103 98 103 98 104.5 83 c 128
 106 68 106 68 110 52 c 257
 116 15 116 15 128 -29 c 257
 6 -32 l 257
EndSplineSet
PickledDataWithLists: "(dp1
S'com.adobe.type.autohint'
p2
(S'data'
S'<data>\\n  <hintSetList>\\n    <hintset pointTag=\"hr00\">\\n      <hstem pos=\"-11\" width=\"-21\"/>\\n      <hstem pos=\"561\" width=\"-20\"/>\\n    </hintset>\\n  </hintSetList>\\n  </data>'
Ntp3
s."
EndChar

StartChar: U0C2A
Encoding: 68 3114 68
GlifName: U0C2A_
Width: 546
VWidth: 0
Flags: W
AnchorPoint: "mark0" 287 -13 basechar 0
LayerCount: 2
Back
Fore
SplineSet
24 326 m 257
NamedP: "hr00"
 1 381 l 257
 310 550 l 257
 352 459 l 257
 24 326 l 257
NamedP: "hr00"
417 374 m 257
 428 353 428 353 437 329 c 257
 445 307 445 307 451 278.5 c 128
 457 250 457 250 456 217 c 257
 454 151 454 151 430.5 93.5 c 128
 407 36 407 36 358 12 c 257
 333 -3 333 -3 309 -0.5 c 128
 285 2 285 2 263.5 12.5 c 128
 242 23 242 23 223.5 36.5 c 128
 205 50 205 50 190 59 c 257
 178 67 178 67 161.5 59 c 128
 145 51 145 51 129 38 c 128
 113 25 113 25 99 13 c 128
 85 1 85 1 79 1 c 257
 57 1 57 1 38.5 19 c 128
 20 37 20 37 9.5 63 c 128
 -1 89 -1 89 -1.5 118 c 128
 -2 147 -2 147 12 170 c 257
 28 194 28 194 48.5 208 c 128
 69 222 69 222 91 225 c 128
 113 228 113 228 133 218.5 c 128
 153 209 153 209 166 184 c 257
 183 152 183 152 202 132.5 c 128
 221 113 221 113 238.5 102.5 c 128
 256 92 256 92 270.5 89 c 128
 285 86 285 86 294 86 c 257
 329 86 329 86 353 119.5 c 128
 377 153 377 153 373 208 c 257
 371 227 371 227 362 248.5 c 128
 353 270 353 270 342 290 c 257
 330 311 330 311 314 334 c 257
 417 374 l 257
105 77 m 257
 124 82 124 82 126.5 98 c 128
 129 114 129 114 123 130 c 128
 117 146 117 146 104.5 158 c 128
 92 170 92 170 81 167 c 257
 62 162 62 162 59.5 146 c 128
 57 130 57 130 64 113.5 c 128
 71 97 71 97 83 85.5 c 128
 95 74 95 74 105 77 c 257
EndSplineSet
PickledDataWithLists: "(dp1
S'com.adobe.type.autohint'
p2
(S'data'
S'<data>\\n  <hintSetList>\\n    <hintset pointTag=\"hr00\">\\n      <hstem pos=\"550\" width=\"-20\"/>\\n      <vstem pos=\"373\" width=\"83\"/>\\n    </hintset>\\n  </hintSetList>\\n  </data>'
Ntp3
s."
EndChar

StartChar: U0C2B
Encoding: 69 3115 69
GlifName: U0C2B_
Width: 548
VWidth: 0
Flags: W
LayerCount: 2
Back
Fore
SplineSet
47 332 m 257
NamedP: "hr00"
 25 389 l 257
 336 557 l 257
 378 466 l 257
 47 332 l 257
NamedP: "hr00"
417 374 m 257
 428 353 428 353 437 329 c 257
 445 307 445 307 451 278.5 c 128
 457 250 457 250 456 217 c 257
 454 151 454 151 430.5 93.5 c 128
 407 36 407 36 358 12 c 257
 333 -3 333 -3 309 -0.5 c 128
 285 2 285 2 263.5 12.5 c 128
 242 23 242 23 223.5 36.5 c 128
 205 50 205 50 190 59 c 257
 178 67 178 67 161.5 59 c 128
 145 51 145 51 129 38 c 128
 113 25 113 25 99 13 c 128
 85 1 85 1 79 1 c 257
 57 1 57 1 38.5 19 c 128
 20 37 20 37 9.5 63 c 128
 -1 89 -1 89 -1.5 118 c 128
 -2 147 -2 147 12 170 c 257
 28 194 28 194 48.5 208 c 128
 69 222 69 222 91 225 c 128
 113 228 113 228 133 218.5 c 128
 153 209 153 209 166 184 c 257
 183 152 183 152 202 132.5 c 128
 221 113 221 113 238.5 102.5 c 128
 256 92 256 92 270.5 89 c 128
 285 86 285 86 294 86 c 257
 329 86 329 86 353 119.5 c 128
 377 153 377 153 373 208 c 257
 371 227 371 227 362 248.5 c 128
 353 270 353 270 342 290 c 257
 330 311 330 311 314 334 c 257
 417 374 l 257
105 77 m 257
 124 82 124 82 126.5 98 c 128
 129 114 129 114 123 130 c 128
 117 146 117 146 104.5 158 c 128
 92 170 92 170 81 167 c 257
 62 162 62 162 59.5 146 c 128
 57 130 57 130 64 113.5 c 128
 71 97 71 97 83 85.5 c 128
 95 74 95 74 105 77 c 257
143 30 m 257
 194 31 l 257
 175 -76 l 257
 98 -79 l 257
 143 30 l 257
EndSplineSet
PickledDataWithLists: "(dp1
S'com.adobe.type.autohint'
p2
(S'data'
S'<data>\\n  <hintSetList>\\n    <hintset pointTag=\"hr00\">\\n      <hstem pos=\"-58\" width=\"-21\"/>\\n      <hstem pos=\"557\" width=\"-20\"/>\\n      <vstem pos=\"373\" width=\"83\"/>\\n    </hintset>\\n  </hintSetList>\\n  </data>'
Ntp3
s."
EndChar

StartChar: U0C2C
Encoding: 70 3116 70
GlifName: U0C2C_
Width: 663
VWidth: 0
Flags: W
LayerCount: 2
Back
Fore
SplineSet
418 438 m 257
 474 398 474 398 501 365 c 257
 524 340 524 340 542.5 309.5 c 128
 561 279 561 279 559 248 c 257
 556 221 556 221 546 184.5 c 128
 536 148 536 148 515.5 112.5 c 128
 495 77 495 77 464 47 c 128
 433 17 433 17 395 3 c 257
 372 -9 372 -9 346.5 4 c 128
 321 17 321 17 296.5 31 c 128
 272 45 272 45 248.5 55.5 c 128
 225 66 225 66 203 58 c 257
 191 55 191 55 164 45 c 128
 137 35 137 35 108 24 c 128
 79 13 79 13 54.5 6 c 128
 30 -1 30 -1 25 2 c 257
 16 4 16 4 7.5 25 c 128
 -1 46 -1 46 2.5 78 c 128
 6 110 6 110 28 149 c 128
 50 188 50 188 103 227 c 257
 87 224 87 224 62 232 c 128
 37 240 37 240 19.5 259 c 128
 2 278 2 278 0.5 307 c 128
 -1 336 -1 336 32 375 c 257
 67 416 67 416 109 428.5 c 128
 151 441 151 441 187.5 434.5 c 128
 224 428 224 428 249 407 c 128
 274 386 274 386 278 358 c 257
 281 323 281 323 266 298 c 128
 251 273 251 273 229.5 256.5 c 128
 208 240 208 240 186 228.5 c 128
 164 217 164 217 153 208 c 257
 128 187 128 187 116 164 c 128
 104 141 104 141 103.5 123 c 128
 103 105 103 105 112.5 96 c 128
 122 87 122 87 139 93 c 257
 176 106 176 106 200 119.5 c 128
 224 133 224 133 239 143.5 c 128
 254 154 254 154 261 158.5 c 128
 268 163 268 163 270 159 c 257
 273 156 273 156 284.5 141.5 c 128
 296 127 296 127 312 113 c 128
 328 99 328 99 347.5 90 c 128
 367 81 367 81 385 87 c 257
 391 88 391 88 406.5 100.5 c 128
 422 113 422 113 436.5 134 c 128
 451 155 451 155 459.5 183 c 128
 468 211 468 211 461 244 c 257
 454 278 454 278 434.5 307.5 c 128
 415 337 415 337 393.5 360.5 c 128
 372 384 372 384 343 408.5 c 128
 314 433 314 433 307 438 c 257
 418 438 l 257
87 382 m 257
 74 358 74 358 82.5 337 c 128
 91 316 91 316 108.5 302.5 c 128
 126 289 126 289 147 285 c 128
 168 281 168 281 179 290 c 257
 193 322 193 322 181.5 342 c 128
 170 362 170 362 150.5 372.5 c 128
 131 383 131 383 111 385 c 128
 91 387 91 387 87 382 c 257
EndSplineSet
EndChar

StartChar: U0C2D
Encoding: 71 3117 71
GlifName: U0C2D_
Width: 659
VWidth: 0
Flags: W
LayerCount: 2
Back
Fore
SplineSet
318 457 m 257
NamedP: "hr00"
 521 612 l 257
 531 501 l 257
 325 406 l 257
 318 457 l 257
NamedP: "hr00"
387 438 m 257
 443 430 443 430 486 394 c 257
 528 358 528 358 543.5 318 c 128
 559 278 559 278 556 247 c 257
 555 220 555 220 545 184 c 128
 535 148 535 148 514.5 113 c 128
 494 78 494 78 461.5 48.5 c 128
 429 19 429 19 385 7 c 257
 364 14 364 14 343.5 22.5 c 128
 323 31 323 31 304.5 37 c 128
 286 43 286 43 269.5 46 c 128
 253 49 253 49 238 46 c 257
 225 45 225 45 192.5 37 c 128
 160 29 160 29 123.5 20 c 128
 87 11 87 11 57.5 4.5 c 128
 28 -2 28 -2 22 1 c 257
 13 3 13 3 5 24 c 128
 -3 45 -3 45 1 77 c 128
 5 109 5 109 27 148 c 128
 49 187 49 187 100 226 c 257
 89 224 89 224 73.5 226.5 c 128
 58 229 58 229 43.5 237 c 128
 29 245 29 245 16.5 257.5 c 128
 4 270 4 270 0 287 c 128
 -4 304 -4 304 2.5 325.5 c 128
 9 347 9 347 32 374 c 257
 66 415 66 415 107 427.5 c 128
 148 440 148 440 184.5 433.5 c 128
 221 427 221 427 246 406 c 128
 271 385 271 385 274 357 c 257
 278 322 278 322 263.5 297 c 128
 249 272 249 272 228 255.5 c 128
 207 239 207 239 185.5 227.5 c 128
 164 216 164 216 153 207 c 257
 127 186 127 186 115 163 c 128
 103 140 103 140 102.5 122 c 128
 102 104 102 104 111.5 95 c 128
 121 86 121 86 136 92 c 257
 173 105 173 105 197.5 118.5 c 128
 222 132 222 132 237.5 142.5 c 128
 253 153 253 153 260.5 157.5 c 128
 268 162 268 162 270 158 c 257
 273 155 273 155 284.5 140.5 c 128
 296 126 296 126 312 112 c 128
 328 98 328 98 346.5 89 c 128
 365 80 365 80 382 86 c 257
 389 87 389 87 404.5 99.5 c 128
 420 112 420 112 434.5 133 c 128
 449 154 449 154 457 182 c 128
 465 210 465 210 468 258 c 257
 462 297 462 297 451.5 319.5 c 128
 441 342 441 342 417 362.5 c 128
 393 383 393 383 369.5 391.5 c 128
 346 400 346 400 329 406 c 257
 387 438 l 257
87 381 m 257
 74 357 74 357 82.5 336 c 128
 91 315 91 315 108.5 301.5 c 128
 126 288 126 288 147 284 c 128
 168 280 168 280 179 289 c 257
 191 321 191 321 180 341 c 128
 169 361 169 361 149.5 371.5 c 128
 130 382 130 382 110.5 384 c 128
 91 386 91 386 87 381 c 257
212 30 m 257
 262 31 l 257
 244 -76 l 257
 167 -79 l 257
 212 30 l 257
EndSplineSet
PickledDataWithLists: "(dp1
S'com.adobe.type.autohint'
p2
(S'data'
S'<data>\\n  <hintSetList>\\n    <hintset pointTag=\"hr00\">\\n      <hstem pos=\"-58\" width=\"-21\"/>\\n      <hstem pos=\"612\" width=\"-20\"/>\\n      <vstem pos=\"468\" width=\"88\"/>\\n    </hintset>\\n  </hintSetList>\\n  </data>'
Ntp3
s."
EndChar

StartChar: U0C2E
Encoding: 72 3118 72
GlifName: U0C2E_
Width: 819
VWidth: 0
Flags: W
LayerCount: 2
Back
Fore
SplineSet
71 423 m 257
NamedP: "hr00"
 168 433 168 433 240.5 418 c 128
 313 403 313 403 362 369.5 c 128
 411 336 411 336 435 288 c 128
 459 240 459 240 459 184 c 257
 459 160 459 160 452.5 134 c 128
 446 108 446 108 434 84.5 c 128
 422 61 422 61 403.5 42 c 128
 385 23 385 23 361 11 c 257
 336 -4 336 -4 312 -1.5 c 128
 288 1 288 1 266.5 11.5 c 128
 245 22 245 22 226.5 35.5 c 128
 208 49 208 49 194 58 c 257
 181 66 181 66 164.5 58 c 128
 148 50 148 50 131.5 37.5 c 128
 115 25 115 25 101.5 12.5 c 128
 88 0 88 0 82 0 c 257
 60 -2 60 -2 42 16 c 128
 24 34 24 34 13 60.5 c 128
 2 87 2 87 1.5 116.5 c 128
 1 146 1 146 15 169 c 257
 31 193 31 193 51.5 207 c 128
 72 221 72 221 94 224 c 128
 116 227 116 227 136 217.5 c 128
 156 208 156 208 169 183 c 257
 186 151 186 151 205 131.5 c 128
 224 112 224 112 241.5 101.5 c 128
 259 91 259 91 273.5 88 c 128
 288 85 288 85 297 85 c 257
 332 85 332 85 355 115.5 c 128
 378 146 378 146 378 202 c 257
 378 215 378 215 373.5 236.5 c 128
 369 258 369 258 355.5 280.5 c 128
 342 303 342 303 319 324.5 c 128
 296 346 296 346 259 360.5 c 128
 222 375 222 375 170.5 379.5 c 128
 119 384 119 384 49 374 c 257
 54 385 54 385 58 395 c 257
 62 403 62 403 65.5 411 c 128
 69 419 69 419 71 423 c 257
NamedP: "hr00"
109 76 m 257
 127 81 127 81 129.5 97 c 128
 132 113 132 113 126 129 c 128
 120 145 120 145 107.5 157 c 128
 95 169 95 169 84 166 c 257
 66 161 66 161 63 145 c 128
 60 129 60 129 67 112.5 c 128
 74 96 74 96 86 84.5 c 128
 98 73 98 73 109 76 c 257
40 423 m 257
 359 557 l 257
 384 466 l 257
 40 371 l 257
 40 423 l 257
514 438 m 257
 657 438 l 257
 700 368 700 368 714 293 c 257
 720 261 720 261 719.5 225 c 128
 719 189 719 189 708.5 151.5 c 128
 698 114 698 114 675.5 75 c 128
 653 36 653 36 614 -1 c 257
 573 16 573 16 538 22.5 c 128
 503 29 503 29 485 29 c 257
 454 29 454 29 428 25.5 c 128
 402 22 402 22 385 16 c 257
 365 11 365 11 348 4 c 257
 364 32 364 32 376 55 c 257
 387 76 387 76 396.5 94.5 c 128
 406 113 406 113 410 119 c 257
 420 119 420 119 437.5 116 c 128
 455 113 455 113 475 107.5 c 128
 495 102 495 102 515.5 95.5 c 128
 536 89 536 89 552 80 c 257
 567 86 567 86 583 101.5 c 128
 599 117 599 117 610.5 141 c 128
 622 165 622 165 626 196 c 128
 630 227 630 227 620.5 264.5 c 128
 611 302 611 302 586 346 c 128
 561 390 561 390 514 438 c 257
EndSplineSet
PickledDataWithLists: "(dp1
S'com.adobe.type.autohint'
p2
(S'data'
S'<data>\\n  <hintSetList>\\n    <hintset pointTag=\"hr00\">\\n      <hstem pos=\"0\" width=\"-20\"/>\\n      <hstem pos=\"29\" width=\"56\"/>\\n      <hstem pos=\"557\" width=\"-20\"/>\\n      <vstem pos=\"378\" width=\"81\"/>\\n    </hintset>\\n  </hintSetList>\\n  </data>'
Ntp3
s."
EndChar

StartChar: U0C2F
Encoding: 73 3119 73
GlifName: U0C2F_
Width: 946
VWidth: 0
Flags: W
AnchorPoint: "mark0" 621 -55 basechar 0
LayerCount: 2
Back
Fore
SplineSet
651 422 m 257
 784 422 l 257
 829 356 829 356 843 285 c 257
 849 254 849 254 849 219 c 128
 849 184 849 184 839 147.5 c 128
 829 111 829 111 807 73 c 128
 785 35 785 35 748 -1 c 257
 728 7 728 7 707.5 12.5 c 128
 687 18 687 18 668 21 c 128
 649 24 649 24 632.5 25 c 128
 616 26 616 26 605 25 c 257
 581 25 581 25 560 22 c 128
 539 19 539 19 524 17 c 257
 507 14 507 14 494 11 c 257
 506 25 506 25 519 40 c 257
 530 53 530 53 543.5 70 c 128
 557 87 557 87 571 105 c 257
 575 110 575 110 587.5 109 c 128
 600 108 600 108 616.5 103 c 128
 633 98 633 98 651.5 91.5 c 128
 670 85 670 85 685 78 c 257
 699 84 699 84 715 99.5 c 128
 731 115 731 115 743 137.5 c 128
 755 160 755 160 758.5 189.5 c 128
 762 219 762 219 753 256 c 128
 744 293 744 293 722 335.5 c 128
 700 378 700 378 651 422 c 257
481 424 m 257
 501 421 501 421 526.5 405 c 128
 552 389 552 389 575 362 c 128
 598 335 598 335 614.5 296.5 c 128
 631 258 631 258 631 210 c 257
 631 171 631 171 616 135 c 128
 601 99 601 99 576 71 c 128
 551 43 551 43 517.5 24 c 128
 484 5 484 5 449 -1 c 257
 432 1 432 1 413.5 11.5 c 128
 395 22 395 22 376.5 32.5 c 128
 358 43 358 43 340.5 49 c 128
 323 55 323 55 308 49 c 257
 289 41 289 41 276.5 36 c 128
 264 31 264 31 254 25.5 c 128
 244 20 244 20 232 14.5 c 128
 220 9 220 9 202 1 c 257
 162 4 162 4 122.5 26.5 c 128
 83 49 83 49 54 85.5 c 128
 25 122 25 122 10 169.5 c 128
 -5 217 -5 217 4 271 c 257
 12 301 12 301 35 336.5 c 128
 58 372 58 372 84.5 393.5 c 128
 111 415 111 415 134.5 424.5 c 128
 158 434 158 434 168 435 c 257
 230 442 230 442 273 432 c 128
 316 422 316 422 343 399.5 c 128
 370 377 370 377 383 346 c 128
 396 315 396 315 400 283 c 257
 411 227 411 227 381 124 c 257
 382 124 382 124 390.5 120 c 128
 399 116 399 116 410 108 c 128
 421 100 421 100 432 89 c 128
 443 78 443 78 450 65 c 257
 459 67 459 67 474 73 c 128
 489 79 489 79 504.5 94.5 c 128
 520 110 520 110 532 138.5 c 128
 544 167 544 167 546 215 c 257
 547 278 547 278 530 314 c 128
 513 350 513 350 494 368 c 257
 470 388 470 388 439 393 c 257
 428 433 l 257
NamedP: "hr01"
 436 434 436 434 445 433 c 257
 454 432 454 432 463 430.5 c 128
 472 429 472 429 481 424 c 257
214 67 m 257
 233 67 233 67 253.5 93 c 128
 274 119 274 119 288 157.5 c 128
 302 196 302 196 306 229.5 c 128
 310 263 310 263 298 301 c 128
 286 339 286 339 253 363.5 c 128
 220 388 220 388 161 386 c 257
 142 385 142 385 128 359.5 c 128
 114 334 114 334 105.5 296 c 128
 97 258 97 258 97.5 224.5 c 128
 98 191 98 191 110 153.5 c 128
 122 116 122 116 147 91 c 128
 172 66 172 66 214 67 c 257
600 567 m 257
 611 464 l 257
 424 387 l 257
 417 437 l 257
 600 567 l 257
EndSplineSet
PickledDataWithLists: "(dp1
S'com.adobe.type.autohint'
p2
(S'data'
S'<data>\\n  <hintSetList>\\n    <hintset pointTag=\"hr01\">\\n      <hstem pos=\"20\" width=\"-21\"/>\\n      <hstem pos=\"567\" width=\"-20\"/>\\n      <vstem pos=\"631\" width=\"127\"/>\\n    </hintset>\\n  </hintSetList>\\n  </data>'
Ntp3
s."
EndChar

StartChar: U0C30
Encoding: 74 3120 74
GlifName: U0C30_
Width: 538
VWidth: 0
Flags: W
AnchorPoint: "mark0" 259 -20 basechar 0
LayerCount: 2
Back
Fore
SplineSet
48 422 m 257
NamedP: "hr00"
 306 601 l 257
 369 506 l 257
 71 375 l 257
 48 422 l 257
NamedP: "hr00"
431 319 m 257
 443 288 443 288 438.5 241.5 c 128
 434 195 434 195 412.5 148 c 128
 391 101 391 101 353 63 c 128
 315 25 315 25 261 8 c 257
 206 -8 206 -8 161 5 c 128
 116 18 116 18 82.5 47 c 128
 49 76 49 76 28.5 114 c 128
 8 152 8 152 2 185 c 257
 -5 217 -5 217 11 259.5 c 128
 27 302 27 302 55 341 c 128
 83 380 83 380 117 407.5 c 128
 151 435 151 435 179 437 c 257
 220 442 220 442 260 436 c 128
 300 430 300 430 334 414 c 128
 368 398 368 398 393.5 374 c 128
 419 350 419 350 431 319 c 257
264 77 m 257
 284 74 284 74 301.5 96 c 128
 319 118 319 118 329.5 150.5 c 128
 340 183 340 183 340.5 219.5 c 128
 341 256 341 256 327 281 c 257
 310 303 310 303 287 321.5 c 128
 264 340 264 340 240 350.5 c 128
 216 361 216 361 193.5 362.5 c 128
 171 364 171 364 157 352 c 257
 146 345 146 345 132 324.5 c 128
 118 304 118 304 107 277 c 128
 96 250 96 250 94.5 218 c 128
 93 186 93 186 108.5 158 c 128
 124 130 124 130 161 108 c 128
 198 86 198 86 264 77 c 257
EndSplineSet
PickledDataWithLists: "(dp1
S'com.adobe.type.autohint'
p2
(S'data'
S'<data>\\n  <hintSetList>\\n    <hintset pointTag=\"hr00\">\\n      <hstem pos=\"601\" width=\"-20\"/>\\n    </hintset>\\n  </hintSetList>\\n  </data>'
Ntp3
s."
EndChar

StartChar: U0C31
Encoding: 75 3121 75
GlifName: U0C31_
Width: 718
VWidth: 0
Flags: W
LayerCount: 2
Back
Fore
SplineSet
439 446 m 257
 458 452 458 452 488.5 447 c 128
 519 442 519 442 549.5 419.5 c 128
 580 397 580 397 601.5 352.5 c 128
 623 308 623 308 623 233 c 257
 623 155 623 155 592 94.5 c 128
 561 34 561 34 515 4 c 257
 506 -1 506 -1 496 1 c 128
 486 3 486 3 468.5 7 c 128
 451 11 451 11 420.5 15.5 c 128
 390 20 390 20 341 20 c 257
 299 22 299 22 272 16.5 c 128
 245 11 245 11 227.5 5 c 128
 210 -1 210 -1 198.5 -5.5 c 128
 187 -10 187 -10 177 -9 c 257
 151 -3 151 -3 126.5 9.5 c 128
 102 22 102 22 82.5 36 c 128
 63 50 63 50 48 66 c 128
 33 82 33 82 24 96 c 257
 5 122 5 122 1 159 c 128
 -3 196 -3 196 7 235.5 c 128
 17 275 17 275 42.5 315 c 128
 68 355 68 355 109 387 c 257
 148 419 148 419 187 424 c 128
 226 429 226 429 257 418 c 128
 288 407 288 407 307.5 384.5 c 128
 327 362 327 362 328 342 c 257
NamedP: "hr01"
 330 302 330 302 301 268 c 128
 272 234 272 234 223 217 c 257
 200 209 200 209 180 213.5 c 128
 160 218 160 218 144 226 c 257
 126 236 126 236 112 250 c 257
 97 206 97 206 102.5 175.5 c 128
 108 145 108 145 124.5 125 c 128
 141 105 141 105 165.5 94.5 c 128
 190 84 190 84 215.5 79.5 c 128
 241 75 241 75 263.5 76 c 128
 286 77 286 77 298 80 c 257
 312 83 312 83 321 90 c 128
 330 97 330 97 335 104 c 257
 340 113 340 113 341 122 c 257
 346 113 346 113 354 104 c 257
 361 97 361 97 371.5 90 c 128
 382 83 382 83 396 80 c 257
 419 74 419 74 446 76 c 128
 473 78 473 78 496 94.5 c 128
 519 111 519 111 533.5 145 c 128
 548 179 548 179 544 237 c 257
 543 264 543 264 534.5 287.5 c 128
 526 311 526 311 512 326.5 c 128
 498 342 498 342 476.5 347.5 c 128
 455 353 455 353 426 345 c 257
 415 342 415 342 413.5 334.5 c 128
 412 327 412 327 417 314.5 c 128
 422 302 422 302 431.5 285.5 c 128
 441 269 441 269 453 250 c 257
 465 231 465 231 464.5 210.5 c 128
 464 190 464 190 453 173 c 128
 442 156 442 156 422 143.5 c 128
 402 131 402 131 377 129 c 257
 359 127 359 127 334 126.5 c 128
 309 126 309 126 286 127 c 257
 259 127 259 127 229 129 c 257
 229 201 l 257
 371 201 l 257
 395 201 395 201 397.5 211.5 c 128
 400 222 400 222 390 240 c 257
 360 282 360 282 358.5 317.5 c 128
 357 353 357 353 370.5 380 c 128
 384 407 384 407 404.5 424 c 128
 425 441 425 441 439 446 c 257
187 361 m 257
NamedP: "hr02"
 171 351 171 351 172 332 c 128
 173 313 173 313 184.5 298.5 c 128
 196 284 196 284 214 279 c 128
 232 274 232 274 253 293 c 257
 267 306 267 306 264 322.5 c 128
 261 339 261 339 248.5 351.5 c 128
 236 364 236 364 218.5 368.5 c 128
 201 373 201 373 187 361 c 257
NamedP: "hr02"
EndSplineSet
PickledDataWithLists: "(dp1
S'com.adobe.type.autohint'
p2
(S'data'
S'<data>\\n  <hintSetList>\\n    <hintset pointTag=\"hr01\">\\n      <hstem pos=\"129\" width=\"72\"/>\\n      <vstem pos=\"544\" width=\"79\"/>\\n    </hintset>\\n    <hintset pointTag=\"hr02\">\\n      <hstem pos=\"20\" width=\"181\"/>\\n      <vstem pos=\"544\" width=\"79\"/>\\n    </hintset>\\n  </hintSetList>\\n  </data>'
Ntp3
s."
EndChar

StartChar: U0C32
Encoding: 76 3122 76
GlifName: U0C32_
Width: 579
VWidth: 0
Flags: W
AnchorPoint: "mark0" 300 -12 basechar 0
LayerCount: 2
Back
Fore
SplineSet
431 434 m 257
NamedP: "hr00"
 459 395 459 395 469 350 c 128
 479 305 479 305 475.5 259.5 c 128
 472 214 472 214 456.5 171.5 c 128
 441 129 441 129 417.5 94 c 128
 394 59 394 59 364.5 35.5 c 128
 335 12 335 12 302 5 c 257
 261 -4 261 -4 213.5 -1 c 128
 166 2 166 2 122.5 19 c 128
 79 36 79 36 46 68 c 128
 13 100 13 100 3 150 c 257
 -6 201 -6 201 8.5 252.5 c 128
 23 304 23 304 49 346 c 128
 75 388 75 388 105 414 c 128
 135 440 135 440 159 440 c 257
 214 438 214 438 237.5 417.5 c 128
 261 397 261 397 263.5 368.5 c 128
 266 340 266 340 253.5 307 c 128
 241 274 241 274 222 249 c 257
 204 221 204 221 179.5 220 c 128
 155 219 155 219 132 229 c 257
 105 241 105 241 80 265 c 257
 82 208 82 208 102.5 172 c 128
 123 136 123 136 150.5 115.5 c 128
 178 95 178 95 206 87.5 c 128
 234 80 234 80 253 80 c 257
 272 80 272 80 292.5 87 c 128
 313 94 313 94 331 111 c 128
 349 128 349 128 363.5 154.5 c 128
 378 181 378 181 386 220 c 257
 394 258 394 258 383.5 296.5 c 128
 373 335 373 335 357 366 c 257
 339 401 339 401 313 434 c 257
 319 432 319 432 335 432 c 257
 347 431 347 431 370 431.5 c 128
 393 432 393 432 431 434 c 257
NamedP: "hr00"
115 381 m 257
 103 367 103 367 104 351.5 c 128
 105 336 105 336 114 322 c 128
 123 308 123 308 137 297.5 c 128
 151 287 151 287 165 281.5 c 128
 179 276 179 276 192 277.5 c 128
 205 279 205 279 211 289 c 257
 218 310 218 310 215 326.5 c 128
 212 343 212 343 202.5 354.5 c 128
 193 366 193 366 178.5 372.5 c 128
 164 379 164 379 151 382 c 128
 138 385 138 385 127.5 384.5 c 128
 117 384 117 384 115 381 c 257
EndSplineSet
PickledDataWithLists: "(dp1
S'com.adobe.type.autohint'
p2
(S'data'
S'<data>\\n  <hintSetList>\\n    <hintset pointTag=\"hr00\">\\n      <hstem pos=\"440\" width=\"-20\"/>\\n    </hintset>\\n  </hintSetList>\\n  </data>'
Ntp3
s."
EndChar

StartChar: U0C33
Encoding: 77 3123 77
GlifName: U0C33_
Width: 556
VWidth: 0
Flags: W
AnchorPoint: "mark0" 253 -27 basechar 0
LayerCount: 2
Back
Fore
SplineSet
260 423 m 257
NamedP: "hr00"
 249 466 l 257
 468 611 l 257
 508 540 l 257
 260 423 l 257
NamedP: "hr00"
353 248 m 257
 404 226 404 226 429.5 195.5 c 128
 455 165 455 165 454 132.5 c 128
 453 100 453 100 426 69.5 c 128
 399 39 399 39 347 18 c 257
 306 2 306 2 256.5 0 c 128
 207 -2 207 -2 163 9 c 128
 119 20 119 20 87 45.5 c 128
 55 71 55 71 49 110 c 257
 42 165 42 165 64 192.5 c 128
 86 220 86 220 122 236 c 257
 109 241 109 241 98 246.5 c 128
 87 252 87 252 67 259 c 257
 32 282 32 282 17 306.5 c 128
 2 331 2 331 1 354.5 c 128
 0 378 0 378 9.5 400 c 128
 19 422 19 422 33 439.5 c 128
 47 457 47 457 61.5 469 c 128
 76 481 76 481 85 486 c 257
 102 494 102 494 132.5 486 c 128
 163 478 163 478 190 459.5 c 128
 217 441 217 441 231.5 413 c 128
 246 385 246 385 231 353 c 257
 217 322 217 322 199.5 311 c 128
 182 300 182 300 166 300 c 257
 147 299 147 299 128 309 c 257
 131 304 131 304 146 298 c 128
 161 292 161 292 181 287 c 128
 201 282 201 282 224.5 277.5 c 128
 248 273 248 273 268 271 c 257
 280 275 280 275 289 280 c 128
 298 285 298 285 304 289 c 257
 311 293 311 293 316 297 c 257
 333 309 333 309 344 323 c 257
 354 334 354 334 361 349 c 128
 368 364 368 364 362 380 c 257
 355 400 355 400 339 409.5 c 128
 323 419 323 419 305 422 c 257
 286 426 286 426 262 424 c 257
 259 451 l 257
 268 455 268 455 282 458 c 257
 293 460 293 460 310 460.5 c 128
 327 461 327 461 350 456 c 257
 403 443 403 443 427 415.5 c 128
 451 388 451 388 448.5 356.5 c 128
 446 325 446 325 421 294.5 c 128
 396 264 396 264 353 248 c 257
97 366 m 257
 112 352 112 352 126 347 c 128
 140 342 140 342 148 351 c 257
 158 358 158 358 156 373 c 128
 154 388 154 388 140 404 c 257
 126 418 126 418 110 421.5 c 128
 94 425 94 425 85 419 c 257
 79 410 79 410 81 394.5 c 128
 83 379 83 379 97 366 c 257
314 66 m 257
 344 79 344 79 356.5 107 c 128
 369 135 369 135 350 168 c 257
 340 187 340 187 316.5 199 c 128
 293 211 293 211 267.5 216.5 c 128
 242 222 242 222 219.5 221.5 c 128
 197 221 197 221 188 218 c 257
 168 207 168 207 156.5 195.5 c 128
 145 184 145 184 142 172 c 128
 139 160 139 160 143 146 c 128
 147 132 147 132 158 116 c 257
 168 99 168 99 190 87.5 c 128
 212 76 212 76 236.5 69.5 c 128
 261 63 261 63 283 61.5 c 128
 305 60 305 60 314 66 c 257
EndSplineSet
PickledDataWithLists: "(dp1
S'com.adobe.type.autohint'
p2
(S'data'
S'<data>\\n  <hintSetList>\\n    <hintset pointTag=\"hr00\">\\n      <hstem pos=\"611\" width=\"-20\"/>\\n    </hintset>\\n  </hintSetList>\\n  </data>'
Ntp3
s."
EndChar

StartChar: U0C35
Encoding: 78 3125 78
GlifName: U0C35_
Width: 554
VWidth: 0
Flags: W
AnchorPoint: "mark0" 300 -34 basechar 0
AnchorPoint: "mark0" 280 -2 basechar 0
LayerCount: 2
Back
Fore
SplineSet
71 423 m 257
NamedP: "hr00"
 168 433 168 433 240.5 418 c 128
 313 403 313 403 362 369.5 c 128
 411 336 411 336 435 288 c 128
 459 240 459 240 459 184 c 257
 459 160 459 160 452.5 134 c 128
 446 108 446 108 434 84.5 c 128
 422 61 422 61 403.5 42 c 128
 385 23 385 23 361 11 c 257
 336 -4 336 -4 312 -1.5 c 128
 288 1 288 1 266.5 11.5 c 128
 245 22 245 22 226.5 35.5 c 128
 208 49 208 49 194 58 c 257
 181 66 181 66 164.5 58 c 128
 148 50 148 50 131.5 37.5 c 128
 115 25 115 25 101.5 12.5 c 128
 88 0 88 0 82 0 c 257
 60 -2 60 -2 42 16 c 128
 24 34 24 34 13 60.5 c 128
 2 87 2 87 1.5 116.5 c 128
 1 146 1 146 15 169 c 257
 31 193 31 193 51.5 207 c 128
 72 221 72 221 94 224 c 128
 116 227 116 227 136 217.5 c 128
 156 208 156 208 169 183 c 257
 186 151 186 151 205 131.5 c 128
 224 112 224 112 241.5 101.5 c 128
 259 91 259 91 273.5 88 c 128
 288 85 288 85 297 85 c 257
 332 85 332 85 355 115.5 c 128
 378 146 378 146 378 202 c 257
 378 215 378 215 373.5 236.5 c 128
 369 258 369 258 355.5 280.5 c 128
 342 303 342 303 319 324.5 c 128
 296 346 296 346 259 360.5 c 128
 222 375 222 375 170.5 379.5 c 128
 119 384 119 384 49 374 c 257
 54 385 54 385 58 395 c 257
 62 403 62 403 65.5 411 c 128
 69 419 69 419 71 423 c 257
NamedP: "hr00"
109 76 m 257
 127 81 127 81 129.5 97 c 128
 132 113 132 113 126 129 c 128
 120 145 120 145 107.5 157 c 128
 95 169 95 169 84 166 c 257
 66 161 66 161 63 145 c 128
 60 129 60 129 67 112.5 c 128
 74 96 74 96 86 84.5 c 128
 98 73 98 73 109 76 c 257
40 423 m 257
 359 557 l 257
 384 466 l 257
 40 371 l 257
 40 423 l 257
EndSplineSet
PickledDataWithLists: "(dp1
S'com.adobe.type.autohint'
p2
(S'data'
S'<data>\\n  <hintSetList>\\n    <hintset pointTag=\"hr00\">\\n      <hstem pos=\"0\" width=\"-20\"/>\\n      <hstem pos=\"557\" width=\"-20\"/>\\n      <vstem pos=\"378\" width=\"81\"/>\\n    </hintset>\\n  </hintSetList>\\n  </data>'
Ntp3
s."
EndChar

StartChar: U0C36
Encoding: 79 3126 79
GlifName: U0C36_
Width: 591
VWidth: 0
Flags: W
AnchorPoint: "mark0" 362 -61 basechar 0
LayerCount: 2
Back
Fore
SplineSet
402 291 m 257
 442 271 442 271 462 247.5 c 128
 482 224 482 224 487 199 c 128
 492 174 492 174 483 149 c 128
 474 124 474 124 457 101.5 c 128
 440 79 440 79 417 60 c 128
 394 41 394 41 370 29 c 257
 331 8 331 8 283.5 4 c 128
 236 0 236 0 192 10 c 128
 148 20 148 20 116.5 45.5 c 128
 85 71 85 71 79 110 c 257
 76 140 76 140 81.5 164 c 128
 87 188 87 188 100 205.5 c 128
 113 223 113 223 130.5 235 c 128
 148 247 148 247 170 255 c 257
 137 253 137 253 106.5 243.5 c 128
 76 234 76 234 52 224 c 257
 25 213 25 213 0 198 c 257
 0 282 l 257
 101 304 101 304 168.5 311 c 128
 236 318 236 318 274 317 c 257
 321 315 321 315 346 306 c 257
 348 312 348 312 349 321 c 257
 350 328 350 328 349.5 337 c 128
 349 346 349 346 346 359 c 257
 343 370 343 370 332 376.5 c 128
 321 383 321 383 305 386.5 c 128
 289 390 289 390 269.5 391 c 128
 250 392 250 392 230 392 c 257
 184 391 184 391 128 382 c 257
 128 420 l 257
 169 426 169 426 210 429 c 257
 246 431 246 431 287 431 c 128
 328 431 328 431 364 424 c 257
 398 416 398 416 415.5 404 c 128
 433 392 433 392 438.5 378.5 c 128
 444 365 444 365 441 351 c 128
 438 337 438 337 431 324.5 c 128
 424 312 424 312 415.5 303.5 c 128
 407 295 407 295 402 291 c 257
344 70 m 257
 359 73 359 73 370 85.5 c 128
 381 98 381 98 386 116.5 c 128
 391 135 391 135 391 156.5 c 128
 391 178 391 178 385 198 c 257
 379 218 379 218 357 231 c 128
 335 244 335 244 310 250.5 c 128
 285 257 285 257 263 257.5 c 128
 241 258 241 258 234 255 c 257
NamedP: "hr01"
 214 244 214 244 199.5 227 c 128
 185 210 185 210 177.5 190.5 c 128
 170 171 170 171 170.5 151 c 128
 171 131 171 131 181 115 c 257
 190 97 190 97 210.5 87 c 128
 231 77 231 77 255.5 71.5 c 128
 280 66 280 66 303.5 66 c 128
 327 66 327 66 344 70 c 257
128 382 m 257
 111 430 l 257
 384 594 l 257
 423 503 l 257
 128 382 l 257
EndSplineSet
PickledDataWithLists: "(dp1
S'com.adobe.type.autohint'
p2
(S'data'
S'<data>\\n  <hintSetList>\\n    <hintset pointTag=\"hr01\">\\n      <hstem pos=\"317\" width=\"75\"/>\\n      <hstem pos=\"594\" width=\"-20\"/>\\n    </hintset>\\n  </hintSetList>\\n  </data>'
Ntp3
s."
EndChar

StartChar: U0C37
Encoding: 80 3127 80
GlifName: U0C37_
Width: 569
VWidth: 0
Flags: W
AnchorPoint: "mark0" 300 -96 basechar 0
LayerCount: 2
Back
Fore
SplineSet
76 332 m 257
 53 384 l 257
 361 581 l 257
 403 470 l 257
 76 332 l 257
456 378 m 257
 460 358 460 358 464 333 c 257
 467 311 467 311 468.5 282 c 128
 470 253 470 253 469 220 c 257
 469 188 469 188 459 158.5 c 128
 449 129 449 129 433 101.5 c 128
 417 74 417 74 397 49 c 128
 377 24 377 24 357 1 c 257
 355 1 355 1 339 6.5 c 128
 323 12 323 12 299 19 c 128
 275 26 275 26 246.5 31.5 c 128
 218 37 218 37 190 37 c 257
 161 38 161 38 135.5 33 c 128
 110 28 110 28 88.5 21 c 128
 67 14 67 14 51.5 7 c 128
 36 0 36 0 27 -2 c 257
 14 -5 14 -5 7.5 13.5 c 128
 1 32 1 32 0.5 59 c 128
 0 86 0 86 5.5 114.5 c 128
 11 143 11 143 24 162 c 257
 36 179 36 179 58 194 c 128
 80 209 80 209 102.5 218.5 c 128
 125 228 125 228 143 230 c 128
 161 232 161 232 165 224 c 257
 177 198 177 198 200.5 177 c 128
 224 156 224 156 249.5 141 c 128
 275 126 275 126 296.5 118 c 128
 318 110 318 110 328 110 c 257
 336 108 336 108 346 119.5 c 128
 356 131 356 131 365 148.5 c 128
 374 166 374 166 380 187.5 c 128
 386 209 386 209 386 227 c 257
NamedP: "hr01"
 384 246 384 246 378.5 264.5 c 128
 373 283 373 283 366 298 c 257
 357 315 357 315 347 332 c 257
 456 378 l 257
80 83 m 257
 93 70 93 70 108.5 75.5 c 128
 124 81 124 81 134.5 95 c 128
 145 109 145 109 149.5 125 c 128
 154 141 154 141 145 148 c 257
 134 157 134 157 119.5 150 c 128
 105 143 105 143 93.5 130.5 c 128
 82 118 82 118 77 103.5 c 128
 72 89 72 89 80 83 c 257
400 195 m 257
 469 214 l 257
 466 168 466 168 471 126 c 257
 476 90 476 90 490.5 50.5 c 128
 505 11 505 11 538 -15 c 257
 520 -34 520 -34 509 -45 c 128
 498 -56 498 -56 489 -61 c 257
 480 -69 480 -69 475 -71 c 257
 450 -51 450 -51 431 -15 c 257
 416 14 416 14 405 65.5 c 128
 394 117 394 117 400 195 c 257
EndSplineSet
PickledDataWithLists: "(dp1
S'com.adobe.type.autohint'
p2
(S'data'
S'<data>\\n  <hintSetList>\\n    <hintset pointTag=\"hr01\">\\n      <hstem pos=\"-50\" width=\"-21\"/>\\n      <hstem pos=\"581\" width=\"-20\"/>\\n      <vstem pos=\"386\" width=\"83\"/>\\n    </hintset>\\n  </hintSetList>\\n  </data>'
Ntp3
s."
EndChar

StartChar: U0C38
Encoding: 81 3128 81
GlifName: U0C38_
Width: 559
VWidth: 0
Flags: W
AnchorPoint: "mark0" 280 -34 basechar 0
LayerCount: 2
Back
Fore
SplineSet
3 -66 m 257
NamedP: "hr00"
 2 -52 2 -52 1 -37 c 257
 0 -24 0 -24 0 -6 c 128
 0 12 0 12 0 33 c 257
 1 71 1 71 18.5 102.5 c 128
 36 134 36 134 58.5 156.5 c 128
 81 179 81 179 104.5 190 c 128
 128 201 128 201 141 197 c 257
 148 196 148 196 169.5 177.5 c 128
 191 159 191 159 217 137.5 c 128
 243 116 243 116 267.5 98.5 c 128
 292 81 292 81 305 82 c 257
 319 83 319 83 332 97.5 c 128
 345 112 345 112 353 133.5 c 128
 361 155 361 155 365.5 182 c 128
 370 209 370 209 368 236 c 257
 364 264 364 264 354 286 c 128
 344 308 344 308 333 325 c 257
 321 343 321 343 305 357 c 257
 420 416 l 257
 431 390 431 390 439 359 c 257
 446 333 446 333 451.5 298 c 128
 457 263 457 263 456 223 c 257
 454 170 454 170 436 128.5 c 128
 418 87 418 87 393 58.5 c 128
 368 30 368 30 339 15 c 128
 310 0 310 0 286 0 c 257
 265 1 265 1 240.5 17.5 c 128
 216 34 216 34 192.5 53 c 128
 169 72 169 72 149.5 87 c 128
 130 102 130 102 122 101 c 257
 98 99 98 99 91.5 77.5 c 128
 85 56 85 56 87 32 c 257
 89 3 89 3 98 -33 c 257
 3 -66 l 257
NamedP: "hr00"
49 334 m 257
 30 387 l 257
 331 570 l 257
 380 469 l 257
 49 334 l 257
EndSplineSet
PickledDataWithLists: "(dp1
S'com.adobe.type.autohint'
p2
(S'data'
S'<data>\\n  <hintSetList>\\n    <hintset pointTag=\"hr00\">\\n      <hstem pos=\"-45\" width=\"-21\"/>\\n      <hstem pos=\"0\" width=\"-20\"/>\\n      <hstem pos=\"570\" width=\"-20\"/>\\n      <vstem pos=\"368\" width=\"88\"/>\\n    </hintset>\\n  </hintSetList>\\n  </data>'
Ntp3
s."
EndChar

StartChar: U0C39
Encoding: 82 3129 82
GlifName: U0C39_
Width: 808
VWidth: 0
Flags: W
LayerCount: 2
Back
Fore
SplineSet
707 255 m 257
NamedP: "hr00"
 710 223 710 223 706.5 199.5 c 128
 703 176 703 176 697 159 c 128
 691 142 691 142 682 131.5 c 128
 673 121 673 121 663 115 c 257
 639 99 639 99 606 100 c 257
 599 101 599 101 588 106 c 257
 578 112 578 112 562.5 121.5 c 128
 547 131 547 131 526 151 c 257
 512 163 512 163 507.5 176.5 c 128
 503 190 503 190 505 203.5 c 128
 507 217 507 217 513.5 230 c 128
 520 243 520 243 529 255 c 257
 551 282 551 282 588 309 c 257
 434 300 l 257
 437 292 437 292 441 278 c 128
 445 264 445 264 449 248 c 128
 453 232 453 232 455.5 216.5 c 128
 458 201 458 201 458 187 c 257
 458 121 458 121 437 78.5 c 128
 416 36 416 36 368 12 c 257
 342 -3 342 -3 316.5 -0.5 c 128
 291 2 291 2 268 12.5 c 128
 245 23 245 23 225.5 36.5 c 128
 206 50 206 50 191 59 c 257
 179 67 179 67 162.5 59 c 128
 146 51 146 51 129.5 38.5 c 128
 113 26 113 26 99.5 13.5 c 128
 86 1 86 1 80 1 c 257
 58 -1 58 -1 40 17 c 128
 22 35 22 35 11 61.5 c 128
 0 88 0 88 -0.5 117.5 c 128
 -1 147 -1 147 13 170 c 257
 29 194 29 194 49.5 208 c 128
 70 222 70 222 92 225 c 128
 114 228 114 228 134 218.5 c 128
 154 209 154 209 167 184 c 257
 184 152 184 152 203 132.5 c 128
 222 113 222 113 239.5 102.5 c 128
 257 92 257 92 271.5 89 c 128
 286 86 286 86 295 86 c 257
 330 86 330 86 352 109 c 128
 374 132 374 132 374 187 c 257
 374 199 374 199 370 220 c 128
 366 241 366 241 357.5 266 c 128
 349 291 349 291 336.5 319 c 128
 324 347 324 347 306 373 c 257
 574 373 l 257
 600 373 600 373 623 361.5 c 128
 646 350 646 350 664 332 c 128
 682 314 682 314 693.5 293.5 c 128
 705 273 705 273 707 255 c 257
NamedP: "hr00"
106 77 m 257
 125 82 125 82 127.5 98 c 128
 130 114 130 114 124 130 c 128
 118 146 118 146 105.5 158 c 128
 93 170 93 170 82 167 c 257
 63 162 63 162 60.5 146 c 128
 58 130 58 130 65 113.5 c 128
 72 97 72 97 84 85.5 c 128
 96 74 96 74 106 77 c 257
646 176 m 257
 662 193 662 193 659 211.5 c 128
 656 230 656 230 644.5 245 c 128
 633 260 633 260 617.5 265.5 c 128
 602 271 602 271 593 261 c 257
 578 245 578 245 580 225 c 128
 582 205 582 205 592.5 190 c 128
 603 175 603 175 618.5 169.5 c 128
 634 164 634 164 646 176 c 257
3 371 m 257
 272 567 l 257
 326 493 l 257
 32 329 l 257
 3 371 l 257
EndSplineSet
PickledDataWithLists: "(dp1
S'com.adobe.type.autohint'
p2
(S'data'
S'<data>\\n  <hintSetList>\\n    <hintset pointTag=\"hr00\">\\n      <hstem pos=\"304\" width=\"69\"/>\\n      <hstem pos=\"567\" width=\"-20\"/>\\n      <vstem pos=\"374\" width=\"84\"/>\\n    </hintset>\\n  </hintSetList>\\n  </data>'
Ntp3
s."
EndChar

StartChar: uni0C3D
Encoding: 83 3133 83
GlifName: uni0C3D_
Width: 766
VWidth: 0
Flags: W
LayerCount: 2
Back
Fore
SplineSet
680 2 m 257
NamedP: "hr00"
 575 0 575 0 481 12.5 c 128
 387 25 387 25 311.5 37 c 128
 236 49 236 49 182 53 c 128
 128 57 128 57 105 39 c 257
 93 29 93 29 88 24 c 128
 83 19 83 19 80 16 c 128
 77 13 77 13 74 9.5 c 128
 71 6 71 6 63 0 c 257
 52 3 52 3 41.5 19.5 c 128
 31 36 31 36 28 56.5 c 128
 25 77 25 77 32.5 98 c 128
 40 119 40 119 65 131 c 257
 92 150 92 150 128.5 166.5 c 128
 165 183 165 183 198 205 c 128
 231 227 231 227 254.5 259 c 128
 278 291 278 291 278 339 c 257
 278 352 278 352 271.5 361 c 128
 265 370 265 370 256.5 375.5 c 128
 248 381 248 381 237.5 383 c 128
 227 385 227 385 218 385 c 257
 185 385 185 385 160 371.5 c 128
 135 358 135 358 117 339.5 c 128
 99 321 99 321 87 301 c 128
 75 281 75 281 68 267 c 257
 66 267 66 267 57 280 c 128
 48 293 48 293 37 308 c 257
 8 349 l 257
 26 364 26 364 47 381 c 128
 68 398 68 398 94 413 c 128
 120 428 120 428 152 437.5 c 128
 184 447 184 447 225 447 c 257
 283 447 283 447 317.5 435.5 c 128
 352 424 352 424 370 405.5 c 128
 388 387 388 387 392.5 364 c 128
 397 341 397 341 395 319 c 257
 389 292 389 292 368.5 267.5 c 128
 348 243 348 243 320.5 222 c 128
 293 201 293 201 263 183 c 128
 233 165 233 165 208.5 151 c 128
 184 137 184 137 170 127.5 c 128
 156 118 156 118 159 113 c 257
 158 106 158 106 173.5 102.5 c 128
 189 99 189 99 215 98 c 128
 241 97 241 97 272.5 97 c 128
 304 97 304 97 334.5 98 c 128
 365 99 365 99 390 100 c 128
 415 101 415 101 427 102 c 257
 461 103 461 103 506.5 106.5 c 128
 552 110 552 110 595.5 115.5 c 128
 639 121 639 121 673.5 129.5 c 128
 708 138 708 138 719 151 c 257
 711 113 711 113 706 84.5 c 128
 701 56 701 56 698 37.5 c 128
 695 19 695 19 691 10.5 c 128
 687 2 687 2 680 2 c 257
NamedP: "hr00"
EndSplineSet
PickledDataWithLists: "(dp1
S'com.adobe.type.autohint'
p2
(S'data'
S'<data>\\n  <hintSetList>\\n    <hintset pointTag=\"hr00\">\\n      <hstem pos=\"2\" width=\"100\"/>\\n      <hstem pos=\"385\" width=\"62\"/>\\n    </hintset>\\n  </hintSetList>\\n  </data>'
Ntp3
s."
EndChar

StartChar: U0C3E
Encoding: 84 3134 84
GlifName: U0C3E_
Width: 956
VWidth: 0
Flags: W
LayerCount: 2
Back
Fore
SplineSet
640 370 m 257
NamedP: "hr00"
 640 390 640 390 645.5 407 c 128
 651 424 651 424 660 435 c 257
 658 442 l 257
 606 435 l 257
 0 435 l 257
 0 501 l 257
 731 501 l 257
 791 501 791 501 833.5 462.5 c 128
 876 424 876 424 876 370 c 257
 876 321 876 321 841.5 286 c 128
 807 251 807 251 758 251 c 257
 709 251 709 251 674.5 286 c 128
 640 321 640 321 640 370 c 257
NamedP: "hr00"
693 370 m 257
 693 342 693 342 712 323.5 c 128
 731 305 731 305 758 305 c 257
 785 305 785 305 804.5 323.5 c 128
 824 342 824 342 824 370 c 257
 824 397 824 397 804.5 416 c 128
 785 435 785 435 758 435 c 257
 731 435 731 435 712 416 c 128
 693 397 693 397 693 370 c 257
EndSplineSet
PickledDataWithLists: "(dp1
S'com.adobe.type.autohint'
p2
(S'data'
S'<data>\\n  <hintSetList>\\n    <hintset pointTag=\"hr00\">\\n      <hstem pos=\"251\" width=\"54\"/>\\n      <hstem pos=\"435\" width=\"66\"/>\\n      <vstem pos=\"640\" width=\"53\"/>\\n      <vstem pos=\"824\" width=\"52\"/>\\n    </hintset>\\n  </hintSetList>\\n  </data>'
Ntp3
s."
EndChar

StartChar: U0C3F
Encoding: 85 3135 85
GlifName: U0C3F_
Width: 0
VWidth: 0
Flags: W
LayerCount: 2
Back
Fore
SplineSet
-102 521 m 257
 -78 506 -78 506 -52.5 498 c 128
 -27 490 -27 490 -2 490 c 257
 47 490 47 490 82 519 c 128
 117 548 117 548 117 589 c 257
 110 591 l 257
 95 571 95 571 68.5 560.5 c 128
 42 550 42 550 8 550 c 257
 -55 550 -55 550 -99.5 580.5 c 128
 -144 611 -144 611 -144 654 c 257
 -144 701 -144 701 -99 733.5 c 128
 -54 766 -54 766 10 766 c 257
 82 755 82 755 130 710.5 c 128
 178 666 178 666 178 608 c 257
 178 538 178 538 125.5 488 c 128
 73 438 73 438 -2 438 c 257
 -41 438 -41 438 -74.5 448 c 128
 -108 458 -108 458 -133 478 c 257
 -102 521 l 257
-78 661 m 257
 -78 634 -78 634 -52.5 615 c 128
 -27 596 -27 596 8 596 c 257
 40 596 40 596 62.5 613 c 128
 85 630 85 630 85 654 c 257
 85 678 85 678 62.5 695.5 c 128
 40 713 40 713 8 713 c 257
 -27 713 -27 713 -52.5 697.5 c 128
 -78 682 -78 682 -78 661 c 257
EndSplineSet
PickledDataWithLists: "(dp1
S'com.adobe.type.autohint'
p2
(S'data'
S'<data>\\n  <hintSetList>\\n    <hintset pointTag=\"\">\\n      <hstem pos=\"490\" width=\"60\"/>\\n      <hstem pos=\"596\" width=\"117\"/>\\n      <hstem pos=\"766\" width=\"-20\"/>\\n      <vstem pos=\"-144\" width=\"66\"/>\\n      <vstem pos=\"85\" width=\"93\"/>\\n    </hintset>\\n  </hintSetList>\\n  </data>'
Ntp3
s."
EndChar

StartChar: U0C40
Encoding: 86 3136 86
GlifName: U0C40_
Width: 0
VWidth: 0
Flags: W
LayerCount: 2
Back
Fore
SplineSet
-109 528 m 257
 -89 513 -89 513 -61 504.5 c 128
 -33 496 -33 496 1 496 c 257
 46 496 46 496 78 523 c 128
 110 550 110 550 110 589 c 257
 105 594 l 257
 88 576 88 576 61 566 c 128
 34 556 34 556 1 556 c 257
 -62 556 -62 556 -106.5 587 c 128
 -151 618 -151 618 -151 661 c 257
 -151 687 -151 687 -132 709.5 c 128
 -113 732 -113 732 -82 741 c 257
 -82 746 l 257
 -106 754 -106 754 -120.5 773.5 c 128
 -135 793 -135 793 -135 818 c 257
 -135 861 -135 861 -95 891.5 c 128
 -55 922 -55 922 1 922 c 257
 63 922 63 922 106 886.5 c 128
 149 851 149 851 144 804 c 257
 73 804 l 257
NamedP: "hr01"
 73 831 73 831 51.5 850 c 128
 30 869 30 869 1 869 c 257
 -27 869 -27 869 -47 854 c 128
 -67 839 -67 839 -67 818 c 257
NamedP: "hr02"
 -67 799 -67 799 -46.5 783.5 c 128
 -26 768 -26 768 4 764 c 257
 76 754 76 754 123.5 709.5 c 128
 171 665 171 665 171 608 c 257
 171 538 171 538 121 488 c 128
 71 438 71 438 1 438 c 257
 -32 438 -32 438 -67.5 446 c 128
 -103 454 -103 454 -140 470 c 257
 -109 528 l 257
-85 661 m 257
 -85 639 -85 639 -59.5 624.5 c 128
 -34 610 -34 610 1 610 c 257
 33 610 33 610 55.5 624.5 c 128
 78 639 78 639 78 661 c 257
 78 682 78 682 55.5 697.5 c 128
 33 713 33 713 1 713 c 257
NamedP: "hr03"
 -34 713 -34 713 -59.5 697.5 c 128
 -85 682 -85 682 -85 661 c 257
EndSplineSet
PickledDataWithLists: "(dp1
S'com.adobe.type.autohint'
p2
(S'data'
S'<data>\\n  <hintSetList>\\n    <hintset pointTag=\"hr01\">\\n      <hstem pos=\"438\" width=\"58\"/>\\n      <hstem pos=\"556\" width=\"54\"/>\\n      <hstem pos=\"869\" width=\"53\"/>\\n      <vstem pos=\"-135\" width=\"68\"/>\\n      <vstem pos=\"78\" width=\"93\"/>\\n    </hintset>\\n    <hintset pointTag=\"hr02\">\\n      <hstem pos=\"438\" width=\"58\"/>\\n      <hstem pos=\"556\" width=\"54\"/>\\n      <hstem pos=\"804\" width=\"118\"/>\\n      <vstem pos=\"-135\" width=\"68\"/>\\n      <vstem pos=\"78\" width=\"93\"/>\\n    </hintset>\\n    <hintset pointTag=\"hr03\">\\n      <hstem pos=\"438\" width=\"58\"/>\\n      <hstem pos=\"556\" width=\"54\"/>\\n      <hstem pos=\"713\" width=\"209\"/>\\n      <vstem pos=\"-151\" width=\"66\"/>\\n      <vstem pos=\"110\" width=\"61\"/>\\n    </hintset>\\n  </hintSetList>\\n  </data>'
Ntp3
s."
EndChar

StartChar: U0C41
Encoding: 87 3137 87
GlifName: U0C41_
Width: 240
VWidth: 0
Flags: W
AnchorPoint: "mark0" -261 -23 basechar 0
LayerCount: 2
Back
Fore
SplineSet
-61 423 m 257
NamedP: "hr00"
 77 423 l 257
 120 355 120 355 133 284 c 257
 140 253 140 253 139.5 218 c 128
 139 183 139 183 129 147 c 128
 119 111 119 111 97 73.5 c 128
 75 36 75 36 37 0 c 257
 -5 17 -5 17 -45.5 24 c 128
 -86 31 -86 31 -109 30 c 257
 -134 29 -134 29 -159.5 27.5 c 128
 -185 26 -185 26 -205 24 c 257
 -230 22 -230 22 -253 19 c 257
 -240 35 -240 35 -228 53 c 257
 -217 69 -217 69 -204 87.5 c 128
 -191 106 -191 106 -177 125 c 257
 -173 129 -173 129 -151.5 125.5 c 128
 -130 122 -130 122 -104.5 114 c 128
 -79 106 -79 106 -55.5 96.5 c 128
 -32 87 -32 87 -25 79 c 257
 -11 84 -11 84 5 99 c 128
 21 114 21 114 32.5 136.5 c 128
 44 159 44 159 46.5 185.5 c 128
 49 212 49 212 41.5 252 c 128
 34 292 34 292 9.5 334 c 128
 -15 376 -15 376 -61 423 c 257
NamedP: "hr00"
EndSplineSet
PickledDataWithLists: "(dp1
S'com.adobe.type.autohint'
p2
(S'data'
S'<data>\\n  <hintSetList>\\n    <hintset pointTag=\"hr00\">\\n      <hstem pos=\"21\" width=\"-21\"/>\\n      <hstem pos=\"423\" width=\"-20\"/>\\n    </hintset>\\n  </hintSetList>\\n  </data>'
Ntp3
s."
EndChar

StartChar: U0C42
Encoding: 88 3138 88
GlifName: U0C42_
Width: 540
VWidth: 0
Flags: W
LayerCount: 2
Back
Fore
SplineSet
440 289 m 257
NamedP: "hr00"
 443 252 443 252 439 225 c 128
 435 198 435 198 427.5 178 c 128
 420 158 420 158 409.5 145 c 128
 399 132 399 132 386 125 c 257
 359 106 359 106 321 109 c 257
 315 105 315 105 303 111 c 257
 293 115 293 115 275 127.5 c 128
 257 140 257 140 230 167 c 257
 214 181 214 181 209 197 c 128
 204 213 204 213 206 228.5 c 128
 208 244 208 244 216 259 c 128
 224 274 224 274 235 288 c 257
 259 319 259 319 301 350 c 257
 33 328 l 257
 -52 423 l 257
 285 423 l 257
 315 423 315 423 341.5 409.5 c 128
 368 396 368 396 389 376 c 128
 410 356 410 356 423.5 332.5 c 128
 437 309 437 309 440 289 c 257
NamedP: "hr00"
367 197 m 257
 385 215 385 215 382 237 c 128
 379 259 379 259 366.5 276 c 128
 354 293 354 293 335.5 300 c 128
 317 307 317 307 304 295 c 257
 289 276 289 276 291.5 253 c 128
 294 230 294 230 306.5 213 c 128
 319 196 319 196 336.5 189 c 128
 354 182 354 182 367 197 c 257
-59 423 m 257
 79 423 l 257
 122 355 122 355 135 284 c 257
 142 253 142 253 141.5 218 c 128
 141 183 141 183 131 147 c 128
 121 111 121 111 99 73.5 c 128
 77 36 77 36 39 0 c 257
 19 8 19 8 -5.5 12.5 c 128
 -30 17 -30 17 -52.5 20 c 128
 -75 23 -75 23 -93 23.5 c 128
 -111 24 -111 24 -121 24 c 257
 -145 24 -145 24 -167 22 c 128
 -189 20 -189 20 -206 18 c 257
 -224 15 -224 15 -240 13 c 257
 -228 29 -228 29 -216 47 c 257
 -205 62 -205 62 -192 81 c 128
 -179 100 -179 100 -165 119 c 257
 -160 123 -160 123 -141 120.5 c 128
 -122 118 -122 118 -97.5 111 c 128
 -73 104 -73 104 -51.5 95.5 c 128
 -30 87 -30 87 -23 79 c 257
 -9 84 -9 84 7 99 c 128
 23 114 23 114 34.5 136.5 c 128
 46 159 46 159 50 189 c 128
 54 219 54 219 45 255.5 c 128
 36 292 36 292 11.5 334 c 128
 -13 376 -13 376 -59 423 c 257
EndSplineSet
PickledDataWithLists: "(dp1
S'com.adobe.type.autohint'
p2
(S'data'
S'<data>\\n  <hintSetList>\\n    <hintset pointTag=\"hr00\">\\n      <hstem pos=\"21\" width=\"-21\"/>\\n      <hstem pos=\"423\" width=\"-20\"/>\\n    </hintset>\\n  </hintSetList>\\n  </data>'
Ntp3
s."
EndChar

StartChar: U0C43
Encoding: 89 3139 89
GlifName: U0C43_
Width: 190
VWidth: 0
Flags: W
AnchorPoint: "mark0" -272 16 mark 0
AnchorPoint: "mark0" -267 161 basechar 0
LayerCount: 2
Back
Fore
SplineSet
-40 233 m 257
NamedP: "hr00"
 -17 230 -17 230 9 219.5 c 128
 35 209 35 209 59.5 188.5 c 128
 84 168 84 168 104 136.5 c 128
 124 105 124 105 134 62 c 257
 145 9 145 9 139.5 -33.5 c 128
 134 -76 134 -76 117 -108.5 c 128
 100 -141 100 -141 74.5 -163.5 c 128
 49 -186 49 -186 21.5 -200.5 c 128
 -6 -215 -6 -215 -32 -220.5 c 128
 -58 -226 -58 -226 -76 -224 c 257
 -97 -222 -97 -222 -118 -211.5 c 128
 -139 -201 -139 -201 -155.5 -185 c 128
 -172 -169 -172 -169 -181.5 -149.5 c 128
 -191 -130 -191 -130 -190 -110.5 c 128
 -189 -91 -189 -91 -174 -73 c 128
 -159 -55 -159 -55 -127 -42 c 257
 -101 -32 -101 -32 -83 -32.5 c 128
 -65 -33 -65 -33 -53.5 -40 c 128
 -42 -47 -42 -47 -34.5 -60 c 128
 -27 -73 -27 -73 -23 -87 c 257
 -15 -121 -15 -121 -20 -171 c 257
 14 -155 14 -155 34 -129 c 128
 54 -103 54 -103 62 -72 c 128
 70 -41 70 -41 67.5 -6.5 c 128
 65 28 65 28 53 60 c 257
 46 76 46 76 35.5 87.5 c 128
 25 99 25 99 13 107.5 c 128
 1 116 1 116 -9.5 120.5 c 128
 -20 125 -20 125 -25 125 c 257
 -40 233 l 257
NamedP: "hr00"
-66 -164 m 257
 -58 -167 -58 -167 -59 -150 c 128
 -60 -133 -60 -133 -67 -122 c 257
 -80 -104 -80 -104 -94 -103 c 128
 -108 -102 -108 -102 -120 -113 c 257
 -131 -121 -131 -121 -128 -132.5 c 128
 -125 -144 -125 -144 -114.5 -153.5 c 128
 -104 -163 -104 -163 -90.5 -167 c 128
 -77 -171 -77 -171 -66 -164 c 257
EndSplineSet
PickledDataWithLists: "(dp1
S'com.adobe.type.autohint'
p2
(S'data'
S'<data>\\n  <hintSetList>\\n    <hintset pointTag=\"hr00\">\\n      <hstem pos=\"233\" width=\"-20\"/>\\n    </hintset>\\n  </hintSetList>\\n  </data>'
Ntp3
s."
EndChar

StartChar: U0C44
Encoding: 90 3140 90
GlifName: U0C44_
Width: 387
VWidth: 0
Flags: W
AnchorPoint: "mark0" -431 -107 mark 0
AnchorPoint: "mark0" -356 193 basechar 0
LayerCount: 2
Back
Fore
SplineSet
327 52 m 257
 333 -15 333 -15 316.5 -50 c 128
 300 -85 300 -85 279 -99 c 257
 252 -117 252 -117 218 -115 c 257
 209 -113 209 -113 197 -106 c 257
 185 -101 185 -101 169.5 -90.5 c 128
 154 -80 154 -80 133 -59 c 257
 103 -33 103 -33 107 -4.5 c 128
 111 24 111 24 127 47 c 257
 145 74 145 74 179 98 c 257
 54 98 l 257
 69 74 69 74 77.5 40 c 128
 86 6 86 6 84 -33 c 257
NamedP: "hr01"
 82 -95 82 -95 65 -136.5 c 128
 48 -178 48 -178 22 -203.5 c 128
 -4 -229 -4 -229 -36 -242.5 c 128
 -68 -256 -68 -256 -99 -261 c 128
 -130 -266 -130 -266 -157.5 -266 c 128
 -185 -266 -185 -266 -203 -266 c 257
 -227 -266 -227 -266 -245.5 -252 c 128
 -264 -238 -264 -238 -275 -216 c 128
 -286 -194 -286 -194 -288 -167.5 c 128
 -290 -141 -290 -141 -281 -118 c 128
 -272 -95 -272 -95 -250.5 -78.5 c 128
 -229 -62 -229 -62 -195 -59 c 257
 -168 -57 -168 -57 -150.5 -62.5 c 128
 -133 -68 -133 -68 -123.5 -78 c 128
 -114 -88 -114 -88 -110 -102 c 128
 -106 -116 -106 -116 -108 -131 c 257
 -110 -166 -110 -166 -129 -213 c 257
 -87 -208 -87 -208 -59 -189.5 c 128
 -31 -171 -31 -171 -15.5 -143.5 c 128
 0 -116 0 -116 4 -81.5 c 128
 8 -47 8 -47 2 -10 c 257
 -3 23 -3 23 -17 42.5 c 128
 -31 62 -31 62 -50 72 c 257
 -34 183 l 257
 -6 182 -6 182 25 181 c 128
 56 180 56 180 86.5 179 c 128
 117 178 117 178 142.5 177.5 c 128
 168 177 168 177 185 177 c 257
NamedP: "hr02"
 212 177 212 177 236.5 164.5 c 128
 261 152 261 152 280 133.5 c 128
 299 115 299 115 311.5 93 c 128
 324 71 324 71 327 52 c 257
-172 -194 m 257
 -160 -190 -160 -190 -157.5 -180.5 c 128
 -155 -171 -155 -171 -160 -162 c 128
 -165 -153 -165 -153 -175.5 -147 c 128
 -186 -141 -186 -141 -202 -147 c 257
 -214 -153 -214 -153 -215.5 -162 c 128
 -217 -171 -217 -171 -211.5 -179 c 128
 -206 -187 -206 -187 -195 -192 c 128
 -184 -197 -184 -197 -172 -194 c 257
261 -33 m 257
 276 -15 276 -15 273 5 c 128
 270 25 270 25 258.5 39.5 c 128
 247 54 247 54 231 60.5 c 128
 215 67 215 67 205 55 c 257
 189 40 189 40 191.5 19 c 128
 194 -2 194 -2 205 -18 c 128
 216 -34 216 -34 232.5 -40 c 128
 249 -46 249 -46 261 -33 c 257
EndSplineSet
PickledDataWithLists: "(dp1
S'com.adobe.type.autohint'
p2
(S'data'
S'<data>\\n  <hintSetList>\\n    <hintset pointTag=\"hr01\">\\n      <hstem pos=\"-266\" width=\"207\"/>\\n      <hstem pos=\"183\" width=\"-20\"/>\\n    </hintset>\\n    <hintset pointTag=\"hr02\">\\n      <hstem pos=\"-266\" width=\"207\"/>\\n      <hstem pos=\"98\" width=\"79\"/>\\n    </hintset>\\n  </hintSetList>\\n  </data>'
Ntp3
s."
EndChar

StartChar: U0C46
Encoding: 91 3142 91
GlifName: U0C46_
Width: 0
VWidth: 0
Flags: W
LayerCount: 2
Back
Fore
SplineSet
-334 659 m 257
 49 659 l 257
 94 659 94 659 126.5 627 c 128
 159 595 159 595 159 550 c 257
 159 503 159 503 125.5 470 c 128
 92 437 92 437 45 437 c 257
 -78 437 l 257
NamedP: "hr01"
 -78 503 l 257
 54 503 l 257
 70 503 70 503 82 516.5 c 128
 94 530 94 530 94 550 c 257
 94 568 94 568 82 581 c 128
 70 594 70 594 53 594 c 257
 -334 594 l 257
 -334 659 l 257
EndSplineSet
PickledDataWithLists: "(dp1
S'com.adobe.type.autohint'
p2
(S'data'
S'<data>\\n  <hintSetList>\\n    <hintset pointTag=\"hr01\">\\n      <hstem pos=\"437\" width=\"66\"/>\\n      <hstem pos=\"594\" width=\"65\"/>\\n      <vstem pos=\"-78\" width=\"237\"/>\\n    </hintset>\\n  </hintSetList>\\n  </data>'
Ntp3
s."
EndChar

StartChar: U0C47
Encoding: 92 3143 92
GlifName: U0C47_
Width: 0
VWidth: 0
Flags: W
LayerCount: 2
Back
Fore
SplineSet
-334 657 m 257
 -61 657 l 257
 -26 653 l 257
 -23 657 l 257
 -35 669 -35 669 -42 684.5 c 128
 -49 700 -49 700 -49 717 c 257
 -49 758 -49 758 -18.5 786 c 128
 12 814 12 814 54 814 c 257
 100 814 100 814 132.5 779.5 c 128
 165 745 165 745 165 696 c 257
 112 696 l 257
 112 723 112 723 97 742.5 c 128
 82 762 82 762 62 762 c 257
 40 762 40 762 25 746.5 c 128
 10 731 10 731 10 710 c 257
 10 695 10 695 25.5 680.5 c 128
 41 666 41 666 66 657 c 257
 108 642 108 642 133.5 611.5 c 128
 159 581 159 581 159 546 c 257
 159 500 159 500 125.5 467.5 c 128
 92 435 92 435 45 435 c 257
NamedP: "hr01"
 -154 435 l 257
 -154 501 l 257
 54 501 l 257
 70 501 70 501 82 514 c 128
 94 527 94 527 94 546 c 257
 94 565 94 565 82 578 c 128
 70 591 70 591 53 591 c 257
 -334 591 l 257
 -334 657 l 257
EndSplineSet
PickledDataWithLists: "(dp1
S'com.adobe.type.autohint'
p2
(S'data'
S'<data>\\n  <hintSetList>\\n    <hintset pointTag=\"hr01\">\\n      <hstem pos=\"435\" width=\"66\"/>\\n      <hstem pos=\"591\" width=\"66\"/>\\n      <hstem pos=\"762\" width=\"52\"/>\\n      <vstem pos=\"-49\" width=\"59\"/>\\n      <vstem pos=\"112\" width=\"47\"/>\\n    </hintset>\\n  </hintSetList>\\n  </data>'
Ntp3
s."
EndChar

StartChar: U0C48
Encoding: 93 3144 93
GlifName: U0C48_
Width: 734
VWidth: 0
Flags: W
LayerCount: 2
Back
Fore
SplineSet
173 659 m 257
 556 659 l 257
 602 659 602 659 634 627 c 128
 666 595 666 595 666 550 c 257
 666 503 666 503 632.5 470 c 128
 599 437 599 437 552 437 c 257
 428 437 l 257
 428 503 l 257
 562 503 l 257
 578 503 578 503 589.5 516.5 c 128
 601 530 601 530 601 550 c 257
 601 568 601 568 589 581 c 128
 577 594 577 594 560 594 c 257
 173 594 l 257
 173 659 l 257
120 -163 m 257
 120 -190 120 -190 139 -209.5 c 128
 158 -229 158 -229 185 -229 c 257
 212 -229 212 -229 231 -209.5 c 128
 250 -190 250 -190 250 -163 c 257
 250 -136 250 -136 231 -117 c 128
 212 -98 212 -98 185 -98 c 257
 158 -98 158 -98 139 -117 c 128
 120 -136 120 -136 120 -163 c 257
68 -163 m 257
 68 -115 68 -115 102.5 -80.5 c 128
 137 -46 137 -46 185 -46 c 257
 234 -46 234 -46 268.5 -80.5 c 128
 303 -115 303 -115 303 -163 c 257
 303 -178 303 -178 295.5 -195 c 128
 288 -212 288 -212 274 -229 c 257
 276 -234 l 257
 332 -229 l 257
 632 -229 l 257
 632 -295 l 257
 197 -295 l 257
NamedP: "hr01"
 143 -295 143 -295 105.5 -256.5 c 128
 68 -218 68 -218 68 -163 c 257
EndSplineSet
PickledDataWithLists: "(dp1
S'com.adobe.type.autohint'
p2
(S'data'
S'<data>\\n  <hintSetList>\\n    <hintset pointTag=\"hr01\">\\n      <hstem pos=\"-295\" width=\"66\"/>\\n      <hstem pos=\"-98\" width=\"52\"/>\\n      <hstem pos=\"437\" width=\"66\"/>\\n      <hstem pos=\"594\" width=\"65\"/>\\n      <vstem pos=\"68\" width=\"52\"/>\\n      <vstem pos=\"250\" width=\"53\"/>\\n      <vstem pos=\"428\" width=\"238\"/>\\n    </hintset>\\n  </hintSetList>\\n  </data>'
Ntp3
s."
EndChar

StartChar: U0C4A
Encoding: 94 3146 94
GlifName: U0C4A_
Width: 580
VWidth: 0
Flags: W
LayerCount: 2
Back
Fore
SplineSet
346 562 m 257
NamedP: "hr04"
 346 582 346 582 351 599.5 c 128
 356 617 356 617 366 628 c 257
NamedP: "hr01"
 363 632 l 257
NamedP: "hr02"
 329 628 l 257
 278 628 l 257
 236 628 236 628 205.5 608.5 c 128
 175 589 175 589 175 562 c 257
 114 562 l 257
 114 589 114 589 77 608.5 c 128
 40 628 40 628 -12 628 c 257
 -65 628 -65 628 -102 608 c 128
 -139 588 -139 588 -139 559 c 257
 -139 530 -139 530 -113.5 510 c 128
 -88 490 -88 490 -52 490 c 257
 10 490 l 257
 10 435 l 257
 -52 435 l 257
 -115 435 -115 435 -159.5 471 c 128
 -204 507 -204 507 -204 558 c 257
 -204 614 -204 614 -147.5 654 c 128
 -91 694 -91 694 -12 694 c 257
 42 694 42 694 82.5 681.5 c 128
 123 669 123 669 142 646 c 257
 148 646 l 257
 167 669 167 669 201 681.5 c 128
 235 694 235 694 278 694 c 257
 462 694 l 257
 511 694 511 694 546 655 c 128
 581 616 581 616 581 562 c 257
NamedP: "hr03"
 581 514 581 514 546 479.5 c 128
 511 445 511 445 462 445 c 257
 414 445 414 445 380 479.5 c 128
 346 514 346 514 346 562 c 257
NamedP: "hr04"
397 562 m 257
 397 534 397 534 416 515 c 128
 435 496 435 496 462 496 c 257
 490 496 490 496 509.5 515 c 128
 529 534 529 534 529 562 c 257
 529 589 529 589 509.5 608.5 c 128
 490 628 490 628 462 628 c 257
 435 628 435 628 416 608.5 c 128
 397 589 397 589 397 562 c 257
EndSplineSet
PickledDataWithLists: "(dp1
S'com.adobe.type.autohint'
p2
(S'data'
S'<data>\\n  <hintSetList>\\n    <hintset pointTag=\"hr01\">\\n      <hstem pos=\"445\" width=\"51\"/>\\n      <hstem pos=\"628\" width=\"66\"/>\\n      <vstem pos=\"-204\" width=\"65\"/>\\n      <vstem pos=\"346\" width=\"51\"/>\\n      <vstem pos=\"529\" width=\"52\"/>\\n    </hintset>\\n    <hintset pointTag=\"hr02\">\\n      <hstem pos=\"445\" width=\"51\"/>\\n      <hstem pos=\"562\" width=\"132\"/>\\n      <vstem pos=\"-204\" width=\"65\"/>\\n      <vstem pos=\"346\" width=\"51\"/>\\n      <vstem pos=\"529\" width=\"52\"/>\\n    </hintset>\\n    <hintset pointTag=\"hr03\">\\n      <hstem pos=\"456\" width=\"-21\"/>\\n      <hstem pos=\"628\" width=\"66\"/>\\n      <vstem pos=\"-204\" width=\"65\"/>\\n      <vstem pos=\"346\" width=\"51\"/>\\n      <vstem pos=\"529\" width=\"52\"/>\\n    </hintset>\\n    <hintset pointTag=\"hr04\">\\n      <hstem pos=\"445\" width=\"51\"/>\\n      <hstem pos=\"562\" width=\"132\"/>\\n      <vstem pos=\"-204\" width=\"65\"/>\\n      <vstem pos=\"346\" width=\"51\"/>\\n      <vstem pos=\"529\" width=\"52\"/>\\n    </hintset>\\n    <hintset pointTag=\"hr04\">\\n      <hstem pos=\"445\" width=\"51\"/>\\n      <hstem pos=\"628\" width=\"66\"/>\\n      <vstem pos=\"-204\" width=\"65\"/>\\n      <vstem pos=\"346\" width=\"51\"/>\\n      <vstem pos=\"529\" width=\"52\"/>\\n    </hintset>\\n    <hintset pointTag=\"\">\\n      <hstem pos=\"445\" width=\"51\"/>\\n      <hstem pos=\"562\" width=\"132\"/>\\n      <vstem pos=\"-204\" width=\"65\"/>\\n      <vstem pos=\"346\" width=\"51\"/>\\n      <vstem pos=\"529\" width=\"52\"/>\\n    </hintset>\\n  </hintSetList>\\n  </data>'
Ntp3
s."
EndChar

StartChar: U0C4B
Encoding: 95 3147 95
GlifName: U0C4B_
Width: 577
VWidth: 0
Flags: W
LayerCount: 2
Back
Fore
SplineSet
342 562 m 257
 342 582 342 582 347.5 599 c 128
 353 616 353 616 363 628 c 257
NamedP: "hr01"
 360 632 l 257
NamedP: "hr02"
 321 628 l 257
 276 628 l 257
 234 628 234 628 203.5 608.5 c 128
 173 589 173 589 173 562 c 257
 111 562 l 257
 111 589 111 589 76.5 608.5 c 128
 42 628 42 628 -7 628 c 257
 -60 628 -60 628 -97 607 c 128
 -134 586 -134 586 -134 555 c 257
 -134 528 -134 528 -110.5 509 c 128
 -87 490 -87 490 -54 490 c 257
 14 490 l 257
 14 435 l 257
NamedP: "hr03"
 -54 435 l 257
 -114 435 -114 435 -157 470.5 c 128
 -200 506 -200 506 -200 555 c 257
 -200 613 -200 613 -143.5 653.5 c 128
 -87 694 -87 694 -8 694 c 257
 44 694 44 694 83.5 681.5 c 128
 123 669 123 669 142 646 c 257
 162 669 162 669 184 681.5 c 128
 206 694 206 694 227 694 c 257
 346 694 l 257
 379 690 l 257
 382 694 l 257
 370 704 370 704 363 721 c 128
 356 738 356 738 356 759 c 257
 356 797 356 797 388.5 823.5 c 128
 421 850 421 850 466 850 c 257
 512 850 512 850 543 814.5 c 128
 574 779 574 779 570 732 c 257
 517 732 l 257
 519 758 519 758 504 778 c 128
 489 798 489 798 466 798 c 257
 445 798 445 798 429.5 784.5 c 128
 414 771 414 771 414 752 c 257
 414 730 414 730 428 713 c 128
 442 696 442 696 462 692 c 257
 512 683 512 683 545 646.5 c 128
 578 610 578 610 578 562 c 257
 578 514 578 514 543 479.5 c 128
 508 445 508 445 459 445 c 257
 411 445 411 445 376.5 479.5 c 128
 342 514 342 514 342 562 c 257
394 562 m 257
 394 534 394 534 413 515 c 128
 432 496 432 496 459 496 c 257
 487 496 487 496 506.5 515 c 128
 526 534 526 534 526 562 c 257
 526 589 526 589 506.5 608.5 c 128
 487 628 487 628 459 628 c 257
NamedP: "hr04"
 432 628 432 628 413 608.5 c 128
 394 589 394 589 394 562 c 257
EndSplineSet
PickledDataWithLists: "(dp1
S'com.adobe.type.autohint'
p2
(S'data'
S'<data>\\n  <hintSetList>\\n    <hintset pointTag=\"hr01\">\\n      <hstem pos=\"445\" width=\"51\"/>\\n      <hstem pos=\"628\" width=\"66\"/>\\n      <hstem pos=\"798\" width=\"52\"/>\\n      <vstem pos=\"-200\" width=\"66\"/>\\n      <vstem pos=\"342\" width=\"52\"/>\\n      <vstem pos=\"526\" width=\"52\"/>\\n    </hintset>\\n    <hintset pointTag=\"hr02\">\\n      <hstem pos=\"445\" width=\"51\"/>\\n      <hstem pos=\"562\" width=\"132\"/>\\n      <hstem pos=\"798\" width=\"52\"/>\\n      <vstem pos=\"-200\" width=\"66\"/>\\n      <vstem pos=\"342\" width=\"52\"/>\\n      <vstem pos=\"526\" width=\"52\"/>\\n    </hintset>\\n    <hintset pointTag=\"hr03\">\\n      <hstem pos=\"456\" width=\"-21\"/>\\n      <hstem pos=\"562\" width=\"132\"/>\\n      <hstem pos=\"798\" width=\"52\"/>\\n      <vstem pos=\"-200\" width=\"66\"/>\\n      <vstem pos=\"356\" width=\"58\"/>\\n      <vstem pos=\"526\" width=\"52\"/>\\n    </hintset>\\n    <hintset pointTag=\"hr04\">\\n      <hstem pos=\"445\" width=\"51\"/>\\n      <hstem pos=\"628\" width=\"66\"/>\\n      <hstem pos=\"798\" width=\"52\"/>\\n      <vstem pos=\"-200\" width=\"66\"/>\\n      <vstem pos=\"342\" width=\"52\"/>\\n      <vstem pos=\"526\" width=\"52\"/>\\n    </hintset>\\n    <hintset pointTag=\"\">\\n      <hstem pos=\"445\" width=\"51\"/>\\n      <hstem pos=\"562\" width=\"132\"/>\\n      <hstem pos=\"798\" width=\"52\"/>\\n      <vstem pos=\"-200\" width=\"66\"/>\\n      <vstem pos=\"342\" width=\"52\"/>\\n      <vstem pos=\"526\" width=\"52\"/>\\n    </hintset>\\n    <hintset pointTag=\"\">\\n      <hstem pos=\"445\" width=\"51\"/>\\n      <hstem pos=\"628\" width=\"66\"/>\\n      <hstem pos=\"798\" width=\"52\"/>\\n      <vstem pos=\"-200\" width=\"66\"/>\\n      <vstem pos=\"342\" width=\"52\"/>\\n      <vstem pos=\"526\" width=\"52\"/>\\n    </hintset>\\n    <hintset pointTag=\"\">\\n      <hstem pos=\"445\" width=\"51\"/>\\n      <hstem pos=\"562\" width=\"132\"/>\\n      <hstem pos=\"798\" width=\"52\"/>\\n      <vstem pos=\"-200\" width=\"66\"/>\\n      <vstem pos=\"342\" width=\"52\"/>\\n      <vstem pos=\"526\" width=\"52\"/>\\n    </hintset>\\n  </hintSetList>\\n  </data>'
Ntp3
s."
EndChar

StartChar: U0C4C
Encoding: 96 3148 96
GlifName: U0C4C_
Width: 614
VWidth: 0
Flags: W
LayerCount: 2
Back
Fore
SplineSet
-192 657 m 257
 470 657 l 257
 530 657 530 657 572 619 c 128
 614 581 614 581 614 526 c 257
 614 478 614 478 579.5 444 c 128
 545 410 545 410 496 410 c 257
 445 410 445 410 409 444 c 128
 373 478 373 478 373 526 c 257
 373 549 373 549 379.5 566 c 128
 386 583 386 583 397 591 c 257
 394 596 l 257
 350 591 l 257
 265 591 l 257
NamedP: "hr01"
 230 596 l 257
 227 591 l 257
 238 582 238 582 243.5 570.5 c 128
 249 559 249 559 249 546 c 257
 249 500 249 500 218.5 467.5 c 128
 188 435 188 435 146 435 c 257
 -42 435 l 257
 -42 501 l 257
 144 501 l 257
 160 501 160 501 171.5 514 c 128
 183 527 183 527 183 546 c 257
 183 565 183 565 171 578 c 128
 159 591 159 591 142 591 c 257
 -192 591 l 257
 -192 657 l 257
431 526 m 257
 431 499 431 499 450 480 c 128
 469 461 469 461 496 461 c 257
 523 461 523 461 542.5 480 c 128
 562 499 562 499 562 526 c 257
 562 554 562 554 542.5 572.5 c 128
 523 591 523 591 496 591 c 257
NamedP: "hr02"
 469 591 469 591 450 572.5 c 128
 431 554 431 554 431 526 c 257
EndSplineSet
PickledDataWithLists: "(dp1
S'com.adobe.type.autohint'
p2
(S'data'
S'<data>\\n  <hintSetList>\\n    <hintset pointTag=\"hr01\">\\n      <hstem pos=\"435\" width=\"66\"/>\\n      <hstem pos=\"591\" width=\"66\"/>\\n      <vstem pos=\"183\" width=\"66\"/>\\n      <vstem pos=\"373\" width=\"58\"/>\\n      <vstem pos=\"562\" width=\"52\"/>\\n    </hintset>\\n    <hintset pointTag=\"hr02\">\\n      <hstem pos=\"410\" width=\"51\"/>\\n      <hstem pos=\"591\" width=\"66\"/>\\n      <vstem pos=\"183\" width=\"66\"/>\\n      <vstem pos=\"373\" width=\"58\"/>\\n      <vstem pos=\"562\" width=\"52\"/>\\n    </hintset>\\n  </hintSetList>\\n  </data>'
Ntp3
s."
EndChar

StartChar: U0C4D
Encoding: 97 3149 97
GlifName: U0C4D_
Width: 0
VWidth: 0
Flags: W
LayerCount: 2
Back
Fore
SplineSet
235 445 m 257
 130 445 l 257
 86 453 86 453 56.5 482.5 c 128
 27 512 27 512 27 550 c 257
NamedP: "hr01"
 27 573 27 573 38 593 c 128
 49 613 49 613 68 624 c 257
 68 628 l 257
NamedP: "hr02"
 49 642 49 642 38 662.5 c 128
 27 683 27 683 27 706 c 257
 27 754 27 754 62 789 c 128
 97 824 97 824 146 824 c 257
 441 824 l 257
NamedP: "hr03"
 441 759 l 257
 147 759 l 257
 125 759 125 759 109 743.5 c 128
 93 728 93 728 93 706 c 257
 93 684 93 684 104.5 669 c 128
 116 654 116 654 132 654 c 257
 274 654 l 257
 274 589 l 257
 134 589 l 257
 117 589 117 589 105 577.5 c 128
 93 566 93 566 93 550 c 257
 93 533 93 533 104.5 521.5 c 128
 116 510 116 510 132 510 c 257
 235 510 l 257
 235 445 l 257
EndSplineSet
PickledDataWithLists: "(dp1
S'com.adobe.type.autohint'
p2
(S'data'
S'<data>\\n  <hintSetList>\\n    <hintset pointTag=\"hr01\">\\n      <hstem pos=\"445\" width=\"65\"/>\\n      <hstem pos=\"589\" width=\"65\"/>\\n      <hstem pos=\"759\" width=\"65\"/>\\n      <vstem pos=\"27\" width=\"66\"/>\\n    </hintset>\\n    <hintset pointTag=\"hr02\">\\n      <hstem pos=\"445\" width=\"65\"/>\\n      <hstem pos=\"589\" width=\"65\"/>\\n      <hstem pos=\"759\" width=\"65\"/>\\n      <vstem pos=\"27\" width=\"247\"/>\\n    </hintset>\\n    <hintset pointTag=\"hr03\">\\n      <hstem pos=\"445\" width=\"65\"/>\\n      <hstem pos=\"589\" width=\"65\"/>\\n      <hstem pos=\"759\" width=\"65\"/>\\n      <vstem pos=\"27\" width=\"66\"/>\\n    </hintset>\\n    <hintset pointTag=\"\">\\n      <hstem pos=\"445\" width=\"65\"/>\\n      <hstem pos=\"589\" width=\"65\"/>\\n      <hstem pos=\"759\" width=\"65\"/>\\n      <vstem pos=\"27\" width=\"208\"/>\\n    </hintset>\\n  </hintSetList>\\n  </data>'
Ntp3
s."
EndChar

StartChar: U0C55
Encoding: 98 3157 98
GlifName: U0C55_
Width: 387
VWidth: 0
Flags: W
LayerCount: 2
Back
Fore
SplineSet
114 474 m 257
NamedP: "hr00"
 92 492 92 492 80 519 c 128
 68 546 68 546 68 575 c 257
 68 618 68 618 106 649 c 128
 144 680 144 680 198 680 c 257
 238 680 238 680 271 654.5 c 128
 304 629 304 629 319 586 c 257
 262 562 l 257
 248 586 248 586 231 600 c 128
 214 614 214 614 198 614 c 257
 171 614 171 614 152.5 598.5 c 128
 134 583 134 583 134 562 c 257
 134 542 134 542 146 522 c 128
 158 502 158 502 181 482 c 257
 114 474 l 257
NamedP: "hr00"
EndSplineSet
PickledDataWithLists: "(dp1
S'com.adobe.type.autohint'
p2
(S'data'
S'<data>\\n  <hintSetList>\\n    <hintset pointTag=\"hr00\">\\n      <hstem pos=\"495\" width=\"-21\"/>\\n      <hstem pos=\"614\" width=\"66\"/>\\n      <vstem pos=\"68\" width=\"66\"/>\\n    </hintset>\\n  </hintSetList>\\n  </data>'
Ntp3
s."
EndChar

StartChar: U0C56
Encoding: 99 3158 99
GlifName: U0C56_
Width: 0
VWidth: 0
Flags: W
AnchorPoint: "mark0" -348 -55 mark 0
AnchorPoint: "mark0" -347 -29 mark 0
LayerCount: 2
Back
Fore
SplineSet
-526 -233 m 257
NamedP: "hr00"
 -557 -232 -557 -232 -581 -219.5 c 128
 -605 -207 -605 -207 -619.5 -188 c 128
 -634 -169 -634 -169 -638 -146.5 c 128
 -642 -124 -642 -124 -632.5 -103.5 c 128
 -623 -83 -623 -83 -598.5 -67.5 c 128
 -574 -52 -574 -52 -532 -47 c 257
 -508 -44 -508 -44 -490.5 -47.5 c 128
 -473 -51 -473 -51 -461.5 -59 c 128
 -450 -67 -450 -67 -443.5 -78 c 128
 -437 -89 -437 -89 -434 -101 c 257
 -428 -130 -428 -130 -437 -168 c 257
 -178 -145 l 257
 -178 -230 l 257
 -260 -230 -260 -230 -331 -231 c 257
 -360 -231 -360 -231 -390.5 -231.5 c 128
 -421 -232 -421 -232 -447.5 -232.5 c 128
 -474 -233 -474 -233 -495 -233 c 128
 -516 -233 -516 -233 -526 -233 c 257
NamedP: "hr00"
-546 -109 m 257
 -562 -115 -562 -115 -566 -127 c 128
 -570 -139 -570 -139 -564 -148.5 c 128
 -558 -158 -558 -158 -541.5 -162.5 c 128
 -525 -167 -525 -167 -500 -158 c 257
 -493 -155 -493 -155 -493.5 -145 c 128
 -494 -135 -494 -135 -501 -125 c 128
 -508 -115 -508 -115 -519.5 -109 c 128
 -531 -103 -531 -103 -546 -109 c 257
EndSplineSet
PickledDataWithLists: "(dp1
S'com.adobe.type.autohint'
p2
(S'data'
S'<data>\\n  <hintSetList>\\n    <hintset pointTag=\"hr00\">\\n      <hstem pos=\"-212\" width=\"-21\"/>\\n    </hintset>\\n  </hintSetList>\\n  </data>'
Ntp3
s."
EndChar

StartChar: U0C58
Encoding: 100 3160 100
GlifName: U0C58_
Width: 720
VWidth: 0
Flags: W
LayerCount: 2
Back
Fore
SplineSet
165 403 m 257
NamedP: "hr00"
 482 535 l 257
 496 420 l 257
 168 347 l 257
 165 403 l 257
NamedP: "hr00"
16 282 m 257
 259 295 l 257
 250 281 250 281 241 262 c 257
 232 247 232 247 223 224.5 c 128
 214 202 214 202 207 174 c 257
 200 145 200 145 207.5 138 c 128
 215 131 215 131 229 135 c 128
 243 139 243 139 256.5 148 c 128
 270 157 270 157 275 161 c 257
 300 178 300 178 313 179.5 c 128
 326 181 326 181 338 167 c 257
 345 158 345 158 358.5 142 c 128
 372 126 372 126 389 112.5 c 128
 406 99 406 99 423.5 92.5 c 128
 441 86 441 86 459 95 c 257
 487 119 487 119 492.5 154 c 128
 498 189 498 189 487 225 c 128
 476 261 476 261 452 292 c 128
 428 323 428 323 397 338 c 257
 374 350 374 350 338.5 354 c 128
 303 358 303 358 270 358 c 257
 231 358 231 358 190 354 c 257
 191 357 191 357 191 364 c 257
 191 369 191 369 190 378.5 c 128
 189 388 189 388 187 403 c 257
 194 409 194 409 224.5 410 c 128
 255 411 255 411 297.5 405 c 128
 340 399 340 399 387.5 386 c 128
 435 373 435 373 475.5 351.5 c 128
 516 330 516 330 542.5 299 c 128
 569 268 569 268 570 226 c 257
 571 165 571 165 550.5 122.5 c 128
 530 80 530 80 502.5 53 c 128
 475 26 475 26 447.5 13.5 c 128
 420 1 420 1 407 0 c 257
 376 -4 376 -4 354 7.5 c 128
 332 19 332 19 315.5 35 c 128
 299 51 299 51 285.5 66.5 c 128
 272 82 272 82 259 85 c 257
 237 93 237 93 202 68 c 128
 167 43 167 43 112 -6 c 257
 94 38 94 38 96 76 c 128
 98 114 98 114 108 142 c 257
 119 176 119 176 138 203 c 257
 0 170 l 257
 16 282 l 257
385 557 m 257
 355 553 355 553 305 553.5 c 128
 255 554 255 554 200 557 c 128
 145 560 145 560 94.5 563.5 c 128
 44 567 44 567 15 569 c 257
 15 591 15 591 19.5 609.5 c 128
 24 628 24 628 32 655 c 257
 59 651 59 651 96.5 643 c 128
 134 635 134 635 171 627.5 c 128
 208 620 208 620 240.5 614 c 128
 273 608 273 608 293 609 c 257
 285 621 285 621 282.5 639.5 c 128
 280 658 280 658 291 686 c 257
 299 708 299 708 329 724.5 c 128
 359 741 359 741 393 743 c 257
 413 744 413 744 431 737.5 c 128
 449 731 449 731 461 718 c 128
 473 705 473 705 479 687.5 c 128
 485 670 485 670 482 649 c 257
 479 636 479 636 473 621.5 c 128
 467 607 467 607 456 594.5 c 128
 445 582 445 582 428 571.5 c 128
 411 561 411 561 385 557 c 257
362 678 m 257
 347 669 347 669 342.5 658.5 c 128
 338 648 338 648 340.5 639.5 c 128
 343 631 343 631 349.5 624.5 c 128
 356 618 356 618 362 617 c 257
 371 615 371 615 380 617.5 c 128
 389 620 389 620 397.5 624 c 128
 406 628 406 628 412 633.5 c 128
 418 639 418 639 420 643 c 257
 425 657 425 657 421.5 668 c 128
 418 679 418 679 409 684 c 128
 400 689 400 689 387.5 688 c 128
 375 687 375 687 362 678 c 257
EndSplineSet
PickledDataWithLists: "(dp1
S'com.adobe.type.autohint'
p2
(S'data'
S'<data>\\n  <hintSetList>\\n    <hintset pointTag=\"hr00\">\\n      <hstem pos=\"288\" width=\"70\"/>\\n      <hstem pos=\"358\" width=\"251\"/>\\n    </hintset>\\n  </hintSetList>\\n  </data>'
Ntp3
s."
EndChar

StartChar: uni0C59
Encoding: 101 3161 101
GlifName: uni0C59_
Width: 723
VWidth: 0
Flags: W
LayerCount: 2
Back
Fore
SplineSet
375 512 m 257
 506 502 l 257
 512 451 512 451 509 407 c 257
 507 388 507 388 504 368.5 c 128
 501 349 501 349 493.5 331.5 c 128
 486 314 486 314 476 300.5 c 128
 466 287 466 287 451 280 c 257
 419 263 419 263 389 265 c 128
 359 267 359 267 334 279.5 c 128
 309 292 309 292 290 309.5 c 128
 271 327 271 327 260 341 c 257
 248 355 248 355 251 373 c 128
 254 391 254 391 262 409 c 257
 272 428 272 428 290 450 c 257
 292 435 292 435 297 422 c 257
 302 411 302 411 310.5 397.5 c 128
 319 384 319 384 336 374 c 257
 348 366 348 366 360.5 357.5 c 128
 373 349 373 349 384 344.5 c 128
 395 340 395 340 404 339.5 c 128
 413 339 413 339 418 345 c 257
 425 355 425 355 423 375 c 128
 421 395 421 395 414 418 c 128
 407 441 407 441 396 465.5 c 128
 385 490 385 490 375 512 c 257
621 259 m 257
 623 209 623 209 616 166 c 257
 610 129 610 129 594.5 92.5 c 128
 579 56 579 56 543 40 c 257
 512 27 512 27 478 16 c 128
 444 5 444 5 408 5.5 c 128
 372 6 372 6 332.5 22.5 c 128
 293 39 293 39 251 79 c 257
 234 78 234 78 209 66 c 128
 184 54 184 54 159.5 40 c 128
 135 26 135 26 116 14 c 128
 97 2 97 2 93 1 c 257
 90 -1 90 -1 84.5 17.5 c 128
 79 36 79 36 75.5 63 c 128
 72 90 72 90 73 121.5 c 128
 74 153 74 153 84 177 c 257
 92 198 92 198 105 214 c 128
 118 230 118 230 130 243 c 257
 143 257 143 257 159 269 c 257
 109 263 109 263 72 273 c 257
 56 278 56 278 41.5 286 c 128
 27 294 27 294 16.5 308 c 128
 6 322 6 322 1.5 341.5 c 128
 -3 361 -3 361 2 390 c 257
 7 421 7 421 26 442.5 c 128
 45 464 45 464 71.5 478 c 128
 98 492 98 492 128.5 499 c 128
 159 506 159 506 185.5 508 c 128
 212 510 212 510 231.5 507 c 128
 251 504 251 504 257 499 c 257
 266 492 266 492 274 484 c 128
 282 476 282 476 286.5 465.5 c 128
 291 455 291 455 290 439.5 c 128
 289 424 289 424 281 400 c 257
 271 377 271 377 256.5 349.5 c 128
 242 322 242 322 226.5 295.5 c 128
 211 269 211 269 199 246 c 128
 187 223 187 223 185 210 c 257
 181 197 181 197 177.5 182.5 c 128
 174 168 174 168 172.5 155.5 c 128
 171 143 171 143 172.5 135.5 c 128
 174 128 174 128 182 128 c 257
 189 128 189 128 206.5 137.5 c 128
 224 147 224 147 243.5 159.5 c 128
 263 172 263 172 280 182.5 c 128
 297 193 297 193 303 194 c 257
 308 197 308 197 316.5 190 c 128
 325 183 325 183 334.5 172.5 c 128
 344 162 344 162 355 149 c 128
 366 136 366 136 375 125 c 257
 384 114 384 114 398 100 c 128
 412 86 412 86 429 77 c 128
 446 68 446 68 466.5 67 c 128
 487 66 487 66 510 79 c 257
 520 85 520 85 526 109 c 128
 532 133 532 133 529 161.5 c 128
 526 190 526 190 513.5 218 c 128
 501 246 501 246 473 259 c 257
 621 259 l 257
100 361 m 257
 102 346 102 346 117 337.5 c 128
 132 329 132 329 150 324 c 257
 169 318 169 318 195 315 c 257
 198 327 198 327 201 339 c 257
 203 350 203 350 203.5 365 c 128
 204 380 204 380 199 397 c 257
 195 413 195 413 181 421 c 128
 167 429 167 429 152 432 c 257
 133 436 133 436 113 436 c 257
 105 432 105 432 101 422 c 257
 97 414 97 414 96 399.5 c 128
 95 385 95 385 100 361 c 257
385 557 m 257
 355 553 355 553 305 553.5 c 128
 255 554 255 554 200 557 c 128
 145 560 145 560 94.5 563.5 c 128
 44 567 44 567 15 569 c 257
 15 591 15 591 19.5 609.5 c 128
 24 628 24 628 32 655 c 257
 59 651 59 651 96.5 643 c 128
 134 635 134 635 171 627.5 c 128
 208 620 208 620 240.5 614 c 128
 273 608 273 608 293 609 c 257
 285 621 285 621 282.5 639.5 c 128
 280 658 280 658 291 686 c 257
 299 708 299 708 329 724.5 c 128
 359 741 359 741 393 743 c 257
 413 744 413 744 431 737.5 c 128
 449 731 449 731 461 718 c 128
 473 705 473 705 479 687.5 c 128
 485 670 485 670 482 649 c 257
 479 636 479 636 473 621.5 c 128
 467 607 467 607 456 594.5 c 128
 445 582 445 582 428 571.5 c 128
 411 561 411 561 385 557 c 257
362 678 m 257
 347 669 347 669 342.5 658.5 c 128
 338 648 338 648 340.5 639.5 c 128
 343 631 343 631 349.5 624.5 c 128
 356 618 356 618 362 617 c 257
 371 615 371 615 380 617.5 c 128
 389 620 389 620 397.5 624 c 128
 406 628 406 628 412 633.5 c 128
 418 639 418 639 420 643 c 257
 425 657 425 657 421.5 668 c 128
 418 679 418 679 409 684 c 128
 400 689 400 689 387.5 688 c 128
 375 687 375 687 362 678 c 257
EndSplineSet
EndChar

